<svg width="238" height="42" viewBox="0 0 238 42" fill="none" xmlns="http://www.w3.org/2000/svg">
<path d="M6.112 14.128C4.93867 14.128 3.95733 13.8773 3.168 13.376C2.38933 12.8747 1.79733 12.1867 1.392 11.312C0.997333 10.4373 0.8 9.45067 0.8 8.352C0.8 7.24267 0.997333 6.25067 1.392 5.376C1.79733 4.50133 2.38933 3.81333 3.168 3.312C3.95733 2.81067 4.93867 2.56 6.112 2.56C7.28533 2.56 8.26133 2.81067 9.04 3.312C9.81867 3.81333 10.4053 4.50133 10.8 5.376C11.2053 6.25067 11.408 7.24267 11.408 8.352C11.408 9.45067 11.2053 10.4373 10.8 11.312C10.4053 12.1867 9.81867 12.8747 9.04 13.376C8.26133 13.8773 7.28533 14.128 6.112 14.128ZM6.112 13.088C7.05067 13.088 7.824 12.8747 8.432 12.448C9.04 12.0213 9.488 11.4507 9.776 10.736C10.0747 10.0107 10.224 9.216 10.224 8.352C10.224 7.70133 10.1387 7.088 9.968 6.512C9.808 5.936 9.55733 5.42933 9.216 4.992C8.87467 4.55467 8.44267 4.21333 7.92 3.968C7.408 3.72267 6.80533 3.6 6.112 3.6C5.184 3.6 4.41067 3.81867 3.792 4.256C3.184 4.68267 2.72533 5.25867 2.416 5.984C2.11733 6.69867 1.968 7.488 1.968 8.352C1.968 9.20533 2.11733 9.99467 2.416 10.72C2.71467 11.4347 3.17333 12.0107 3.792 12.448C4.41067 12.8747 5.184 13.088 6.112 13.088ZM13.6271 14L13.6271 2.688L21.2271 2.688L21.2271 3.728L14.7791 3.728L14.7791 7.456L17.5631 7.456C18.0965 7.456 18.6085 7.49867 19.0991 7.584C19.6005 7.66933 20.0485 7.824 20.4431 8.048C20.8378 8.26133 21.1471 8.57067 21.3711 8.976C21.6058 9.38133 21.7231 9.91467 21.7231 10.576C21.7231 11.216 21.6165 11.76 21.4031 12.208C21.1898 12.6453 20.8911 12.9973 20.5071 13.264C20.1231 13.52 19.6698 13.7067 19.1471 13.824C18.6351 13.9413 18.0805 14 17.4831 14L13.6271 14ZM14.7791 12.96L17.3071 12.96C17.7125 12.96 18.1125 12.928 18.5071 12.864C18.9018 12.8 19.2485 12.6933 19.5471 12.544C19.8565 12.384 20.1018 12.1493 20.2831 11.84C20.4645 11.5307 20.5551 11.136 20.5551 10.656C20.5551 10.1547 20.4645 9.76 20.2831 9.472C20.1018 9.184 19.8565 8.97067 19.5471 8.832C19.2485 8.69333 18.9071 8.608 18.5231 8.576C18.1498 8.53333 17.7658 8.512 17.3711 8.512L14.7791 8.512L14.7791 12.96ZM24.0646 14L24.0646 2.688L25.2166 2.688L25.2166 7.92L31.6806 7.92L31.6806 2.688L32.8326 2.688L32.8326 14L31.6806 14L31.6806 8.976L25.2166 8.976L25.2166 14L24.0646 14ZM40.362 14.128C39.1887 14.128 38.2073 13.8773 37.418 13.376C36.6393 12.8747 36.0473 12.1867 35.642 11.312C35.2473 10.4373 35.05 9.45067 35.05 8.352C35.05 7.24267 35.2473 6.25067 35.642 5.376C36.0473 4.50133 36.6393 3.81333 37.418 3.312C38.2073 2.81067 39.1887 2.56 40.362 2.56C41.5353 2.56 42.5113 2.81067 43.29 3.312C44.0687 3.81333 44.6553 4.50133 45.05 5.376C45.4553 6.25067 45.658 7.24267 45.658 8.352C45.658 9.45067 45.4553 10.4373 45.05 11.312C44.6553 12.1867 44.0687 12.8747 43.29 13.376C42.5113 13.8773 41.5353 14.128 40.362 14.128ZM40.362 13.088C41.3007 13.088 42.074 12.8747 42.682 12.448C43.29 12.0213 43.738 11.4507 44.026 10.736C44.3247 10.0107 44.474 9.216 44.474 8.352C44.474 7.70133 44.3887 7.088 44.218 6.512C44.058 5.936 43.8073 5.42933 43.466 4.992C43.1247 4.55467 42.6927 4.21333 42.17 3.968C41.658 3.72267 41.0553 3.6 40.362 3.6C39.434 3.6 38.6607 3.81867 38.042 4.256C37.434 4.68267 36.9753 5.25867 36.666 5.984C36.3673 6.69867 36.218 7.488 36.218 8.352C36.218 9.20533 36.3673 9.99467 36.666 10.72C36.9647 11.4347 37.4233 12.0107 38.042 12.448C38.6607 12.8747 39.434 13.088 40.362 13.088ZM47.8611 14L47.8611 2.688L51.7811 2.688C52.3145 2.688 52.8051 2.73067 53.2531 2.816C53.7011 2.90133 54.0958 3.04533 54.4371 3.248C54.7785 3.45067 55.0398 3.73333 55.2211 4.096C55.4131 4.45867 55.5091 4.91733 55.5091 5.472C55.5091 6.10133 55.3491 6.64 55.0291 7.088C54.7198 7.536 54.2771 7.86133 53.7011 8.064C54.4585 8.17067 55.0451 8.47467 55.4611 8.976C55.8878 9.46667 56.1011 10.1067 56.1011 10.896C56.1011 11.504 55.9785 12.0107 55.7331 12.416C55.4985 12.8107 55.1731 13.1253 54.7571 13.36C54.3411 13.5947 53.8718 13.76 53.3491 13.856C52.8265 13.952 52.2771 14 51.7011 14L47.8611 14ZM49.0131 12.96L51.6531 12.96C52.0051 12.96 52.3731 12.9387 52.7571 12.896C53.1411 12.8533 53.4985 12.768 53.8291 12.64C54.1598 12.5013 54.4265 12.288 54.6291 12C54.8318 11.712 54.9331 11.328 54.9331 10.848C54.9331 10.4213 54.8531 10.0747 54.6931 9.808C54.5331 9.54133 54.3145 9.33333 54.0371 9.184C53.7705 9.024 53.4665 8.91733 53.1251 8.864C52.7945 8.8 52.4531 8.768 52.1011 8.768L49.0131 8.768L49.0131 12.96ZM49.0131 7.744L51.3331 7.744C51.7278 7.744 52.1065 7.70667 52.4691 7.632C52.8425 7.55733 53.1731 7.43467 53.4611 7.264C53.7491 7.09333 53.9731 6.86933 54.1331 6.592C54.3038 6.31467 54.3891 5.968 54.3891 5.552C54.3891 5.01867 54.2665 4.624 54.0211 4.368C53.7758 4.112 53.4558 3.94133 53.0611 3.856C52.6771 3.77067 52.2558 3.728 51.7971 3.728L49.0131 3.728L49.0131 7.744ZM57.1459 14.112L57.1459 12.96C57.3912 12.9493 57.6099 12.896 57.8019 12.8C57.9939 12.6933 58.1592 12.5547 58.2979 12.384C58.4472 12.2027 58.5592 12 58.6339 11.776C58.7405 11.456 58.8205 11.104 58.8739 10.72C58.9272 10.336 58.9645 9.94667 58.9859 9.552C59.0072 9.14667 59.0179 8.768 59.0179 8.416L59.1139 2.688L66.5539 2.688L66.5539 14L65.4019 14L65.4019 3.728L60.2819 3.728L60.1859 7.808C60.1752 8.42667 60.1592 9.05067 60.1379 9.68C60.1165 10.2987 60.0579 10.8853 59.9619 11.44C59.8765 11.984 59.7112 12.4427 59.4659 12.816C59.2525 13.2107 58.9592 13.52 58.5859 13.744C58.2125 13.9573 57.7325 14.08 57.1459 14.112ZM69.4084 14L69.4084 2.688L76.9124 2.688L76.9124 3.728L70.5604 3.728L70.5604 7.872L76.2724 7.872L76.2724 8.928L70.5604 8.928L70.5604 12.96L76.9124 12.96L76.9124 14L69.4084 14ZM79.1428 14L79.1428 2.688L80.2948 2.688L80.2948 7.92L86.7587 7.92L86.7587 2.688L87.9108 2.688L87.9108 14L86.7587 14L86.7587 8.976L80.2948 8.976L80.2948 14L79.1428 14ZM90.7521 14L90.7521 2.688L91.9041 2.688L91.9041 12.352L98.3041 2.688L99.6321 2.688L99.6321 14L98.4641 14L98.4641 4.416L92.0641 14L90.7521 14ZM102.487 14L102.487 2.688L109.991 2.688L109.991 3.728L103.639 3.728L103.639 7.872L109.351 7.872L109.351 8.928L103.639 8.928L103.639 12.96L109.991 12.96L109.991 14L102.487 14ZM115.733 16.736L120.709 1.152L121.925 1.152L116.949 16.736L115.733 16.736ZM128.283 14L128.283 2.688L132.155 2.688C132.977 2.688 133.681 2.82133 134.267 3.088C134.854 3.35467 135.302 3.76533 135.611 4.32C135.931 4.864 136.091 5.55733 136.091 6.4C136.091 7.232 135.905 7.93067 135.531 8.496C135.169 9.06133 134.667 9.48267 134.027 9.76C133.398 10.0373 132.673 10.176 131.851 10.176L129.435 10.176L129.435 14L128.283 14ZM129.435 9.136L131.803 9.136C132.721 9.136 133.467 8.91733 134.043 8.48C134.619 8.04267 134.907 7.328 134.907 6.336C134.907 5.44 134.662 4.784 134.171 4.368C133.691 3.94133 132.993 3.728 132.075 3.728L129.435 3.728L129.435 9.136ZM138.252 14L138.252 2.688L145.756 2.688L145.756 3.728L139.404 3.728L139.404 7.872L145.116 7.872L145.116 8.928L139.404 8.928L139.404 12.96L145.756 12.96L145.756 14L138.252 14ZM152.659 14.176L152.659 12.32L151.283 12.32C150.429 12.2987 149.709 12.1013 149.123 11.728C148.536 11.344 148.093 10.8213 147.795 10.16C147.507 9.49867 147.363 8.75733 147.363 7.936C147.373 7.072 147.555 6.33067 147.907 5.712C148.259 5.08267 148.749 4.59733 149.379 4.256C150.008 3.91467 150.723 3.744 151.523 3.744L152.659 3.744L152.659 2.096L153.811 2.096L153.811 3.744L154.947 3.744C155.757 3.744 156.472 3.91467 157.091 4.256C157.72 4.59733 158.211 5.08267 158.563 5.712C158.915 6.33067 159.096 7.072 159.107 7.936C159.117 8.74667 158.963 9.48267 158.643 10.144C158.333 10.8053 157.88 11.328 157.283 11.712C156.696 12.096 155.976 12.2987 155.123 12.32L153.811 12.32L153.811 14.176L152.659 14.176ZM151.587 11.344L152.659 11.344L152.659 4.72L151.635 4.72C150.994 4.72 150.44 4.85867 149.971 5.136C149.512 5.40267 149.155 5.776 148.899 6.256C148.653 6.72533 148.531 7.27467 148.531 7.904C148.531 8.55467 148.637 9.14133 148.851 9.664C149.064 10.1867 149.395 10.5973 149.843 10.896C150.291 11.1947 150.872 11.344 151.587 11.344ZM153.811 11.344L154.883 11.344C155.597 11.344 156.179 11.1947 156.627 10.896C157.085 10.5973 157.416 10.1867 157.619 9.664C157.832 9.14133 157.939 8.55467 157.939 7.904C157.939 7.27467 157.811 6.72533 157.555 6.256C157.309 5.776 156.952 5.40267 156.483 5.136C156.024 4.85867 155.475 4.72 154.835 4.72L153.811 4.72L153.811 11.344ZM161.33 14L161.33 2.688L165.202 2.688C166.024 2.688 166.728 2.82133 167.314 3.088C167.901 3.35467 168.349 3.76533 168.658 4.32C168.978 4.864 169.138 5.55733 169.138 6.4C169.138 7.232 168.952 7.93067 168.578 8.496C168.216 9.06133 167.714 9.48267 167.074 9.76C166.445 10.0373 165.72 10.176 164.898 10.176L162.482 10.176L162.482 14L161.33 14ZM162.482 9.136L164.85 9.136C165.768 9.136 166.514 8.91733 167.09 8.48C167.666 8.04267 167.954 7.328 167.954 6.336C167.954 5.44 167.709 4.784 167.218 4.368C166.738 3.94133 166.04 3.728 165.122 3.728L162.482 3.728L162.482 9.136ZM171.299 14L171.299 2.688L178.803 2.688L178.803 3.728L172.451 3.728L172.451 7.872L178.163 7.872L178.163 8.928L172.451 8.928L172.451 12.96L178.803 12.96L178.803 14L171.299 14ZM181.033 14L181.033 2.688L182.185 2.688L182.185 12.96L186.793 12.96L186.793 2.688L187.945 2.688L187.945 12.96L192.537 12.96L192.537 2.688L193.705 2.688L193.705 14L181.033 14Z" fill="#4E4E4E"/>
<path opacity="0.4" d="M4.158 37.084C3.38333 37.084 2.73467 36.9253 2.212 36.608C1.68933 36.2813 1.29733 35.8333 1.036 35.264C0.784 34.6947 0.658 34.046 0.658 33.318C0.658 32.5807 0.784 31.932 1.036 31.372C1.29733 30.8027 1.68933 30.3547 2.212 30.028C2.73467 29.7013 3.39267 29.538 4.186 29.538C4.96067 29.538 5.60467 29.7013 6.118 30.028C6.64067 30.3547 7.028 30.8027 7.28 31.372C7.54133 31.932 7.672 32.5807 7.672 33.318C7.672 34.046 7.54133 34.6947 7.28 35.264C7.01867 35.8333 6.62667 36.2813 6.104 36.608C5.59067 36.9253 4.942 37.084 4.158 37.084ZM4.158 36.034C4.69933 36.034 5.138 35.9127 5.474 35.67C5.81933 35.4273 6.07133 35.1007 6.23 34.69C6.398 34.2793 6.482 33.822 6.482 33.318C6.482 32.814 6.398 32.3567 6.23 31.946C6.07133 31.5353 5.81933 31.2087 5.474 30.966C5.138 30.7233 4.69933 30.602 4.158 30.602C3.626 30.602 3.18733 30.7233 2.842 30.966C2.506 31.2087 2.254 31.5353 2.086 31.946C1.92733 32.3567 1.848 32.814 1.848 33.318C1.848 33.822 1.92733 34.2793 2.086 34.69C2.254 35.1007 2.506 35.4273 2.842 35.67C3.18733 35.9127 3.626 36.034 4.158 36.034ZM10.9862 37L10.9862 30.672L8.45217 30.672L8.45217 29.622L14.7102 29.622L14.7102 30.672L12.1762 30.672L12.1762 37L10.9862 37ZM22.6814 37.112C22.2894 37.112 21.8928 37.0747 21.4914 37C21.0994 36.916 20.7308 36.7853 20.3854 36.608C20.0494 36.4307 19.7601 36.1927 19.5174 35.894C19.2841 35.5953 19.1348 35.2267 19.0694 34.788L20.3294 34.788C20.4414 35.1053 20.6281 35.3527 20.8894 35.53C21.1508 35.7073 21.4401 35.8333 21.7574 35.908C22.0841 35.9733 22.3968 36.006 22.6954 36.006C22.9101 36.006 23.1434 35.9873 23.3954 35.95C23.6474 35.9127 23.8901 35.8333 24.1234 35.712C24.3661 35.5907 24.5621 35.4133 24.7114 35.18C24.8608 34.9373 24.9354 34.62 24.9354 34.228C24.9354 33.8547 24.8654 33.556 24.7254 33.332C24.5854 33.0987 24.3988 32.926 24.1654 32.814C23.9321 32.6927 23.6708 32.6133 23.3814 32.576C23.1014 32.5387 22.8168 32.52 22.5274 32.52L21.5754 32.52L21.5754 31.428L22.1494 31.428C22.4761 31.428 22.7841 31.4 23.0734 31.344C23.3628 31.2787 23.6194 31.1807 23.8434 31.05C24.0674 30.9193 24.2401 30.7467 24.3614 30.532C24.4921 30.3173 24.5574 30.0513 24.5574 29.734C24.5574 29.2767 24.4594 28.9313 24.2634 28.698C24.0768 28.4647 23.8341 28.306 23.5354 28.222C23.2368 28.138 22.9241 28.096 22.5974 28.096C22.3361 28.096 22.0654 28.138 21.7854 28.222C21.5148 28.2967 21.2721 28.4227 21.0574 28.6C20.8428 28.768 20.6981 28.9967 20.6234 29.286L19.4054 29.286C19.4614 28.8753 19.5921 28.5253 19.7974 28.236C20.0028 27.9467 20.2548 27.7087 20.5534 27.522C20.8614 27.3353 21.1974 27.2 21.5614 27.116C21.9348 27.032 22.3128 26.99 22.6954 26.99C23.1154 26.99 23.5074 27.0367 23.8714 27.13C24.2448 27.214 24.5714 27.3587 24.8514 27.564C25.1314 27.76 25.3508 28.0213 25.5094 28.348C25.6774 28.6747 25.7614 29.0713 25.7614 29.538C25.7614 29.8833 25.7054 30.2007 25.5934 30.49C25.4814 30.7793 25.3134 31.0313 25.0894 31.246C24.8748 31.4607 24.6041 31.638 24.2774 31.778C24.6974 31.8527 25.0474 32.002 25.3274 32.226C25.6168 32.45 25.8314 32.7253 25.9714 33.052C26.1208 33.3693 26.1954 33.7287 26.1954 34.13C26.1954 34.7553 26.0834 35.264 25.8594 35.656C25.6354 36.048 25.3461 36.3513 24.9914 36.566C24.6368 36.7713 24.2541 36.916 23.8434 37C23.4328 37.0747 23.0454 37.112 22.6814 37.112ZM28.0243 32.814L28.0243 31.722L32.3643 31.722L32.3643 32.814L28.0243 32.814ZM33.5964 37L36.2284 33.234L33.7224 29.622L35.1504 29.622L37.0264 32.422L38.8464 29.622L40.2324 29.622L37.7404 33.276L40.4144 37L39.0004 37L36.9564 34.186L34.9404 37L33.5964 37ZM45.3169 37L45.3169 29.622L46.9129 29.622L49.3069 33.318L51.6589 29.622L53.2269 29.622L53.2269 37L52.0509 37L52.0509 30.938L49.4469 35.11L49.1109 35.11L46.4929 30.938L46.4929 37L45.3169 37ZM58.298 37.084C57.514 37.084 56.8653 36.9253 56.352 36.608C55.8386 36.2813 55.456 35.8333 55.204 35.264C54.952 34.6947 54.826 34.046 54.826 33.318C54.826 32.5807 54.9566 31.932 55.218 31.372C55.4886 30.8027 55.8806 30.3547 56.394 30.028C56.9073 29.7013 57.5373 29.538 58.284 29.538C58.8346 29.538 59.3153 29.6453 59.726 29.86C60.146 30.0653 60.4913 30.3453 60.762 30.7C61.042 31.0547 61.2426 31.4513 61.364 31.89C61.4946 32.3287 61.5506 32.7813 61.532 33.248C61.5226 33.332 61.518 33.416 61.518 33.5C61.518 33.584 61.5133 33.668 61.504 33.752L56.03 33.752C56.0673 34.1813 56.1746 34.5687 56.352 34.914C56.5293 35.2593 56.7813 35.5347 57.108 35.74C57.4346 35.936 57.8406 36.034 58.326 36.034C58.5686 36.034 58.8113 36.006 59.054 35.95C59.306 35.8847 59.53 35.7773 59.726 35.628C59.9313 35.4787 60.076 35.278 60.16 35.026L61.378 35.026C61.266 35.502 61.056 35.894 60.748 36.202C60.44 36.5007 60.0713 36.7247 59.642 36.874C59.2126 37.014 58.7646 37.084 58.298 37.084ZM56.058 32.716L60.328 32.716C60.3186 32.296 60.2253 31.9273 60.048 31.61C59.8706 31.2927 59.628 31.0453 59.32 30.868C59.0213 30.6907 58.662 30.602 58.242 30.602C57.7846 30.602 57.3973 30.7 57.08 30.896C56.772 31.092 56.534 31.3487 56.366 31.666C56.198 31.9833 56.0953 32.3333 56.058 32.716ZM66.2814 37.084C65.5067 37.084 64.8627 36.9253 64.3494 36.608C63.8454 36.2813 63.4674 35.8333 63.2154 35.264C62.9727 34.6947 62.8514 34.0507 62.8514 33.332C62.8514 32.632 62.9774 31.9973 63.2294 31.428C63.4907 30.8493 63.8827 30.392 64.4054 30.056C64.9374 29.7107 65.6094 29.538 66.4214 29.538C66.9254 29.538 67.3734 29.622 67.7654 29.79C68.1667 29.958 68.498 30.2053 68.7594 30.532C69.0207 30.8493 69.2027 31.2507 69.3054 31.736L68.0874 31.736C67.9474 31.3253 67.7234 31.036 67.4154 30.868C67.1167 30.6907 66.762 30.602 66.3514 30.602C65.7914 30.602 65.3434 30.7327 65.0074 30.994C64.6714 31.2553 64.424 31.596 64.2654 32.016C64.116 32.4267 64.0414 32.8653 64.0414 33.332C64.0414 33.8173 64.1207 34.2653 64.2794 34.676C64.438 35.0867 64.6854 35.418 65.0214 35.67C65.3574 35.9127 65.7914 36.034 66.3234 36.034C66.7154 36.034 67.084 35.95 67.4294 35.782C67.784 35.614 68.0174 35.3153 68.1294 34.886L69.3614 34.886C69.268 35.39 69.0674 35.8053 68.7594 36.132C68.4607 36.4587 68.092 36.7013 67.6534 36.86C67.224 37.0093 66.7667 37.084 66.2814 37.084ZM70.4076 37L72.3256 34.088C71.7936 33.9387 71.3736 33.696 71.0656 33.36C70.7576 33.0147 70.6036 32.5573 70.6036 31.988C70.6036 31.54 70.669 31.1667 70.7996 30.868C70.9303 30.56 71.1216 30.3173 71.3736 30.14C71.6256 29.9533 71.929 29.8227 72.2836 29.748C72.6383 29.664 73.0443 29.622 73.5016 29.622L76.4696 29.622L76.4696 37L75.2796 37L75.2796 34.27L73.5856 34.27L71.7936 37L70.4076 37ZM74.3976 33.234L75.2796 33.234L75.2796 30.672L73.6976 30.672C73.4176 30.672 73.161 30.686 72.9276 30.714C72.6943 30.742 72.4936 30.8027 72.3256 30.896C72.167 30.98 72.041 31.106 71.9476 31.274C71.8543 31.4327 71.8076 31.652 71.8076 31.932C71.8076 32.24 71.8823 32.4827 72.0316 32.66C72.1903 32.8373 72.391 32.968 72.6336 33.052C72.8856 33.1267 73.1656 33.178 73.4736 33.206C73.7816 33.2247 74.0896 33.234 74.3976 33.234ZM84.1162 39.268L84.1162 37L78.3482 37L78.3482 29.622L79.5382 29.622L79.5382 35.964L83.1082 35.964L83.1082 29.622L84.3122 29.622L84.3122 35.964L85.2782 35.964L85.2782 39.268L84.1162 39.268ZM89.7159 37.084C88.9319 37.084 88.2833 36.9253 87.7699 36.608C87.2566 36.2813 86.8739 35.8333 86.6219 35.264C86.3699 34.6947 86.2439 34.046 86.2439 33.318C86.2439 32.5807 86.3746 31.932 86.6359 31.372C86.9066 30.8027 87.2986 30.3547 87.8119 30.028C88.3253 29.7013 88.9553 29.538 89.7019 29.538C90.2526 29.538 90.7333 29.6453 91.1439 29.86C91.5639 30.0653 91.9093 30.3453 92.1799 30.7C92.4599 31.0547 92.6606 31.4513 92.7819 31.89C92.9126 32.3287 92.9686 32.7813 92.9499 33.248C92.9406 33.332 92.9359 33.416 92.9359 33.5C92.9359 33.584 92.9313 33.668 92.9219 33.752L87.4479 33.752C87.4853 34.1813 87.5926 34.5687 87.7699 34.914C87.9473 35.2593 88.1993 35.5347 88.5259 35.74C88.8526 35.936 89.2586 36.034 89.7439 36.034C89.9866 36.034 90.2293 36.006 90.4719 35.95C90.7239 35.8847 90.9479 35.7773 91.1439 35.628C91.3493 35.4787 91.4939 35.278 91.5779 35.026L92.7959 35.026C92.6839 35.502 92.4739 35.894 92.1659 36.202C91.8579 36.5007 91.4893 36.7247 91.0599 36.874C90.6306 37.014 90.1826 37.084 89.7159 37.084ZM87.4759 32.716L91.7459 32.716C91.7366 32.296 91.6433 31.9273 91.4659 31.61C91.2886 31.2927 91.0459 31.0453 90.7379 30.868C90.4393 30.6907 90.0799 30.602 89.6599 30.602C89.2026 30.602 88.8153 30.7 88.4979 30.896C88.1899 31.092 87.9519 31.3487 87.7839 31.666C87.6159 31.9833 87.5133 32.3333 87.4759 32.716ZM94.5493 37L94.5493 29.622L97.4053 29.622C97.732 29.622 98.054 29.6453 98.3713 29.692C98.698 29.7293 98.992 29.8133 99.2533 29.944C99.524 30.0653 99.7387 30.2473 99.8973 30.49C100.065 30.7327 100.149 31.0547 100.149 31.456C100.149 31.6987 100.112 31.9227 100.037 32.128C99.9627 32.324 99.8507 32.4967 99.7013 32.646C99.5613 32.7953 99.3793 32.926 99.1553 33.038C99.6593 33.15 100.023 33.3693 100.247 33.696C100.471 34.0227 100.583 34.396 100.583 34.816C100.583 35.1893 100.513 35.516 100.373 35.796C100.243 36.0667 100.056 36.2907 99.8133 36.468C99.58 36.6453 99.3047 36.7807 98.9873 36.874C98.6793 36.958 98.348 37 97.9933 37L94.5493 37ZM95.7673 35.964L97.7133 35.964C98.0027 35.964 98.2733 35.936 98.5253 35.88C98.7773 35.824 98.9827 35.7213 99.1413 35.572C99.3 35.4133 99.3793 35.1893 99.3793 34.9C99.3793 34.6013 99.3093 34.3773 99.1693 34.228C99.0387 34.0693 98.866 33.962 98.6513 33.906C98.446 33.8407 98.222 33.8033 97.9793 33.794C97.7367 33.7847 97.508 33.78 97.2933 33.78L95.7673 33.78L95.7673 35.964ZM95.7673 32.772L96.7893 32.772C96.976 32.772 97.1907 32.7627 97.4333 32.744C97.6853 32.7253 97.928 32.6833 98.1613 32.618C98.404 32.5433 98.6 32.4313 98.7493 32.282C98.908 32.1327 98.9873 31.9273 98.9873 31.666C98.9873 31.3207 98.8893 31.0827 98.6933 30.952C98.5067 30.812 98.2827 30.7327 98.0213 30.714C97.76 30.686 97.5173 30.672 97.2933 30.672L95.7673 30.672L95.7673 32.772Z" fill="black"/>
</svg>
