<svg width="260" height="42" viewBox="0 0 260 42" fill="none" xmlns="http://www.w3.org/2000/svg">
<path d="M1.424 14L1.424 2.688L10.24 2.688L10.24 14L9.088 14L9.088 3.728L2.576 3.728L2.576 14L1.424 14ZM13.0803 14L13.0803 2.688L20.5843 2.688L20.5843 3.728L14.2323 3.728L14.2323 7.872L19.9443 7.872L19.9443 8.928L14.2323 8.928L14.2323 12.96L20.5843 12.96L20.5843 14L13.0803 14ZM22.8146 14L22.8146 2.688L26.6866 2.688C27.508 2.688 28.212 2.82133 28.7986 3.088C29.3853 3.35467 29.8333 3.76533 30.1426 4.32C30.4626 4.864 30.6226 5.55733 30.6226 6.4C30.6226 7.232 30.436 7.93067 30.0626 8.496C29.7 9.06133 29.1986 9.48267 28.5586 9.76C27.9293 10.0373 27.204 10.176 26.3826 10.176L23.9666 10.176L23.9666 14L22.8146 14ZM23.9666 9.136L26.3346 9.136C27.252 9.136 27.9986 8.91733 28.5746 8.48C29.1506 8.04267 29.4386 7.328 29.4386 6.336C29.4386 5.44 29.1933 4.784 28.7026 4.368C28.2226 3.94133 27.524 3.728 26.6066 3.728L23.9666 3.728L23.9666 9.136ZM32.7674 14L32.7674 2.688L36.6874 2.688C37.2207 2.688 37.7114 2.73067 38.1594 2.816C38.6074 2.90133 39.002 3.04533 39.3434 3.248C39.6847 3.45067 39.946 3.73333 40.1274 4.096C40.3194 4.45867 40.4154 4.91733 40.4154 5.472C40.4154 6.10133 40.2554 6.64 39.9354 7.088C39.626 7.536 39.1834 7.86133 38.6074 8.064C39.3647 8.17067 39.9514 8.47467 40.3674 8.976C40.794 9.46667 41.0074 10.1067 41.0074 10.896C41.0074 11.504 40.8847 12.0107 40.6394 12.416C40.4047 12.8107 40.0794 13.1253 39.6634 13.36C39.2474 13.5947 38.778 13.76 38.2554 13.856C37.7327 13.952 37.1834 14 36.6074 14L32.7674 14ZM33.9194 12.96L36.5594 12.96C36.9114 12.96 37.2794 12.9387 37.6634 12.896C38.0474 12.8533 38.4047 12.768 38.7354 12.64C39.066 12.5013 39.3327 12.288 39.5354 12C39.738 11.712 39.8394 11.328 39.8394 10.848C39.8394 10.4213 39.7594 10.0747 39.5994 9.808C39.4394 9.54133 39.2207 9.33333 38.9434 9.184C38.6767 9.024 38.3727 8.91733 38.0314 8.864C37.7007 8.8 37.3594 8.768 37.0074 8.768L33.9194 8.768L33.9194 12.96ZM33.9194 7.744L36.2394 7.744C36.634 7.744 37.0127 7.70667 37.3754 7.632C37.7487 7.55733 38.0794 7.43467 38.3674 7.264C38.6554 7.09333 38.8794 6.86933 39.0394 6.592C39.21 6.31467 39.2954 5.968 39.2954 5.552C39.2954 5.01867 39.1727 4.624 38.9274 4.368C38.682 4.112 38.362 3.94133 37.9674 3.856C37.5834 3.77067 37.162 3.728 36.7034 3.728L33.9194 3.728L33.9194 7.744ZM43.2521 14L43.2521 2.688L44.4041 2.688L44.4041 12.352L50.8041 2.688L52.1321 2.688L52.1321 14L50.9641 14L50.9641 4.416L44.5641 14L43.2521 14ZM61.4505 14L61.4505 9.776C61.0772 9.808 60.7572 9.84 60.4905 9.872C60.2238 9.89333 59.9625 9.90933 59.7065 9.92C59.4505 9.93067 59.1412 9.936 58.7785 9.936C57.9145 9.936 57.1678 9.83467 56.5385 9.632C55.9198 9.41867 55.4452 9.05067 55.1145 8.528C54.7838 8.00533 54.6185 7.25867 54.6185 6.288L54.6185 2.688L55.7705 2.688L55.7705 5.968C55.7705 6.74667 55.8772 7.34933 56.0905 7.776C56.3145 8.20267 56.6558 8.496 57.1145 8.656C57.5732 8.816 58.1652 8.896 58.8905 8.896C59.2852 8.896 59.7065 8.88533 60.1545 8.864C60.6132 8.84267 61.0452 8.80533 61.4505 8.752L61.4505 2.688L62.6185 2.688L62.6185 14L61.4505 14ZM65.4709 14L65.4709 2.688L66.6229 2.688L66.6229 7.92L73.0869 7.92L73.0869 2.688L74.2389 2.688L74.2389 14L73.0869 14L73.0869 8.976L66.6229 8.976L66.6229 14L65.4709 14ZM75.8482 14L80.1363 2.688L81.7203 2.688L86.0083 14L84.7443 14L83.8163 11.504L78.0403 11.504L77.1123 14L75.8482 14ZM78.4243 10.464L83.4163 10.464L80.9203 3.76L78.4243 10.464ZM87.2751 14L89.7391 9.456C88.9605 9.28533 88.3258 8.93333 87.8351 8.4C87.3551 7.86667 87.1151 7.136 87.1151 6.208C87.1151 5.568 87.2111 5.02933 87.4031 4.592C87.6058 4.144 87.8885 3.78133 88.2511 3.504C88.6138 3.216 89.0458 3.008 89.5471 2.88C90.0485 2.752 90.6031 2.688 91.2111 2.688L95.3231 2.688L95.3231 14L94.1711 14L94.1711 9.664L90.8911 9.664L88.5711 14L87.2751 14ZM91.4831 8.624L94.1711 8.624L94.1711 3.728L91.2271 3.728C90.6085 3.728 90.0751 3.81333 89.6271 3.984C89.1898 4.144 88.8538 4.4 88.6191 4.752C88.3951 5.104 88.2831 5.57333 88.2831 6.16C88.2831 6.8 88.4325 7.30133 88.7311 7.664C89.0298 8.016 89.4191 8.26667 89.8991 8.416C90.3898 8.55467 90.9178 8.624 91.4831 8.624ZM102.487 14L102.487 2.688L111.303 2.688L111.303 14L110.151 14L110.151 3.728L103.639 3.728L103.639 14L102.487 14ZM114.143 14L114.143 2.688L118.015 2.688C118.836 2.688 119.54 2.82133 120.127 3.088C120.713 3.35467 121.161 3.76533 121.471 4.32C121.791 4.864 121.951 5.55733 121.951 6.4C121.951 7.232 121.764 7.93067 121.391 8.496C121.028 9.06133 120.527 9.48267 119.887 9.76C119.257 10.0373 118.532 10.176 117.711 10.176L115.295 10.176L115.295 14L114.143 14ZM115.295 9.136L117.663 9.136C118.58 9.136 119.327 8.91733 119.903 8.48C120.479 8.04267 120.767 7.328 120.767 6.336C120.767 5.44 120.521 4.784 120.031 4.368C119.551 3.94133 118.852 3.728 117.935 3.728L115.295 3.728L115.295 9.136ZM128.956 14.128C127.782 14.128 126.801 13.8773 126.012 13.376C125.233 12.8747 124.641 12.1867 124.236 11.312C123.841 10.4373 123.644 9.45067 123.644 8.352C123.644 7.24267 123.841 6.25067 124.236 5.376C124.641 4.50133 125.233 3.81333 126.012 3.312C126.801 2.81067 127.782 2.56 128.956 2.56C130.129 2.56 131.105 2.81067 131.884 3.312C132.662 3.81333 133.249 4.50133 133.644 5.376C134.049 6.25067 134.252 7.24267 134.252 8.352C134.252 9.45067 134.049 10.4373 133.644 11.312C133.249 12.1867 132.662 12.8747 131.884 13.376C131.105 13.8773 130.129 14.128 128.956 14.128ZM128.956 13.088C129.894 13.088 130.668 12.8747 131.276 12.448C131.884 12.0213 132.332 11.4507 132.62 10.736C132.918 10.0107 133.068 9.216 133.068 8.352C133.068 7.70133 132.982 7.088 132.812 6.512C132.652 5.936 132.401 5.42933 132.06 4.992C131.718 4.55467 131.286 4.21333 130.764 3.968C130.252 3.72267 129.649 3.6 128.956 3.6C128.028 3.6 127.254 3.81867 126.636 4.256C126.028 4.68267 125.569 5.25867 125.26 5.984C124.961 6.69867 124.812 7.488 124.812 8.352C124.812 9.20533 124.961 9.99467 125.26 10.72C125.558 11.4347 126.017 12.0107 126.636 12.448C127.254 12.8747 128.028 13.088 128.956 13.088ZM136.471 14L136.471 2.688L143.975 2.688L143.975 3.728L137.623 3.728L137.623 7.872L143.335 7.872L143.335 8.928L137.623 8.928L137.623 12.96L143.975 12.96L143.975 14L136.471 14ZM145.165 17.184L145.165 12.96C145.571 12.928 145.88 12.8107 146.093 12.608C146.317 12.4053 146.488 12.16 146.605 11.872C146.712 11.6053 146.797 11.2853 146.861 10.912C146.925 10.5387 146.973 10.144 147.005 9.728C147.048 9.312 147.08 8.90133 147.101 8.496C147.155 7.49333 147.192 6.512 147.213 5.552C147.245 4.592 147.267 3.63733 147.277 2.688L154.397 2.688L154.397 12.96L155.789 12.96L155.789 17.184L154.637 17.184L154.637 14L146.333 14L146.333 17.184L145.165 17.184ZM147.341 12.96L153.245 12.96L153.245 3.728L148.413 3.728L148.253 8.56C148.243 8.816 148.227 9.13067 148.205 9.504C148.195 9.86667 148.157 10.2507 148.093 10.656C148.04 11.0507 147.949 11.4507 147.821 11.856C147.704 12.2507 147.544 12.6187 147.341 12.96ZM157.996 14.016L157.996 12.912C158.487 12.912 158.908 12.8533 159.26 12.736C159.612 12.6187 159.916 12.4373 160.172 12.192C160.428 11.936 160.663 11.6107 160.876 11.216L156.476 2.688L157.836 2.688L161.532 9.984L164.54 2.688L165.788 2.688L163.18 8.816C163.063 9.104 162.913 9.456 162.732 9.872C162.551 10.2773 162.348 10.6987 162.124 11.136C161.9 11.5733 161.66 11.9787 161.404 12.352C161.159 12.7253 160.908 13.024 160.652 13.248C160.3 13.536 159.905 13.7387 159.468 13.856C159.041 13.9627 158.551 14.016 157.996 14.016ZM167.221 14L167.221 2.688L171.093 2.688C171.914 2.688 172.618 2.82133 173.205 3.088C173.792 3.35467 174.24 3.76533 174.549 4.32C174.869 4.864 175.029 5.55733 175.029 6.4C175.029 7.232 174.842 7.93067 174.469 8.496C174.106 9.06133 173.605 9.48267 172.965 9.76C172.336 10.0373 171.61 10.176 170.789 10.176L168.373 10.176L168.373 14L167.221 14ZM168.373 9.136L170.741 9.136C171.658 9.136 172.405 8.91733 172.981 8.48C173.557 8.04267 173.845 7.328 173.845 6.336C173.845 5.44 173.6 4.784 173.109 4.368C172.629 3.94133 171.93 3.728 171.013 3.728L168.373 3.728L168.373 9.136ZM175.004 14L179.293 2.688L180.877 2.688L185.165 14L183.901 14L182.973 11.504L177.197 11.504L176.269 14L175.004 14ZM177.581 10.464L182.573 10.464L180.077 3.76L177.581 10.464Z" fill="#4E4E4E"/>
<path opacity="0.4" d="M0.938 37L0.938 29.622L2.128 29.622L2.128 32.8L3.416 32.8L5.6 29.622L6.958 29.622L4.494 33.136L7.168 37L5.768 37L3.556 33.836L2.128 33.836L2.128 37L0.938 37ZM11.281 37.084C10.5064 37.084 9.85771 36.9253 9.33505 36.608C8.81238 36.2813 8.42038 35.8333 8.15905 35.264C7.90705 34.6947 7.78105 34.046 7.78105 33.318C7.78105 32.5807 7.90705 31.932 8.15905 31.372C8.42038 30.8027 8.81238 30.3547 9.33505 30.028C9.85771 29.7013 10.5157 29.538 11.309 29.538C12.0837 29.538 12.7277 29.7013 13.241 30.028C13.7637 30.3547 14.151 30.8027 14.403 31.372C14.6644 31.932 14.795 32.5807 14.795 33.318C14.795 34.046 14.6644 34.6947 14.403 35.264C14.1417 35.8333 13.7497 36.2813 13.227 36.608C12.7137 36.9253 12.065 37.084 11.281 37.084ZM11.281 36.034C11.8224 36.034 12.261 35.9127 12.597 35.67C12.9424 35.4273 13.1944 35.1007 13.353 34.69C13.521 34.2793 13.605 33.822 13.605 33.318C13.605 32.814 13.521 32.3567 13.353 31.946C13.1944 31.5353 12.9424 31.2087 12.597 30.966C12.261 30.7233 11.8224 30.602 11.281 30.602C10.749 30.602 10.3104 30.7233 9.96505 30.966C9.62905 31.2087 9.37705 31.5353 9.20905 31.946C9.05038 32.3567 8.97105 32.814 8.97105 33.318C8.97105 33.822 9.05038 34.2793 9.20905 34.69C9.37705 35.1007 9.62905 35.4273 9.96505 35.67C10.3104 35.9127 10.749 36.034 11.281 36.034ZM16.3872 37L16.3872 29.622L17.5772 29.622L17.5772 32.856L21.2732 32.856L21.2732 29.622L22.4632 29.622L22.4632 37L21.2732 37L21.2732 33.906L17.5772 33.906L17.5772 37L16.3872 37ZM27.4943 37.084C26.7196 37.084 26.0756 36.9253 25.5623 36.608C25.0583 36.2813 24.6803 35.8333 24.4283 35.264C24.1856 34.6947 24.0643 34.0507 24.0643 33.332C24.0643 32.632 24.1903 31.9973 24.4423 31.428C24.7036 30.8493 25.0956 30.392 25.6183 30.056C26.1503 29.7107 26.8223 29.538 27.6343 29.538C28.1383 29.538 28.5863 29.622 28.9783 29.79C29.3796 29.958 29.7109 30.2053 29.9723 30.532C30.2336 30.8493 30.4156 31.2507 30.5183 31.736L29.3003 31.736C29.1603 31.3253 28.9363 31.036 28.6283 30.868C28.3296 30.6907 27.9749 30.602 27.5643 30.602C27.0043 30.602 26.5563 30.7327 26.2203 30.994C25.8843 31.2553 25.6369 31.596 25.4783 32.016C25.3289 32.4267 25.2542 32.8653 25.2542 33.332C25.2542 33.8173 25.3336 34.2653 25.4923 34.676C25.6509 35.0867 25.8983 35.418 26.2343 35.67C26.5703 35.9127 27.0043 36.034 27.5363 36.034C27.9283 36.034 28.2969 35.95 28.6423 35.782C28.9969 35.614 29.2303 35.3153 29.3423 34.886L30.5743 34.886C30.4809 35.39 30.2803 35.8053 29.9723 36.132C29.6736 36.4587 29.3049 36.7013 28.8663 36.86C28.4369 37.0093 27.9796 37.084 27.4943 37.084ZM32.3205 40.164L32.3205 39.03C32.7779 39.03 33.1419 38.9647 33.4125 38.834C33.6832 38.7127 33.9072 38.5167 34.0845 38.246C34.2712 37.9847 34.4485 37.6487 34.6165 37.238L31.3825 29.622L32.7825 29.622L35.2745 35.838L37.3185 29.622L38.6625 29.622L36.5905 35.432C36.4879 35.7307 36.3712 36.0667 36.2405 36.44C36.1099 36.8133 35.9652 37.1913 35.8065 37.574C35.6479 37.966 35.4705 38.3253 35.2745 38.652C35.0879 38.988 34.8779 39.2587 34.6445 39.464C34.4485 39.6413 34.2572 39.7813 34.0705 39.884C33.8839 39.9867 33.6552 40.0567 33.3845 40.094C33.1232 40.1407 32.7685 40.164 32.3205 40.164ZM39.0941 37.014L39.0941 35.978C39.2808 35.978 39.4488 35.9407 39.5981 35.866C39.7475 35.782 39.8781 35.6607 39.9901 35.502C40.1208 35.3153 40.2235 35.0447 40.2981 34.69C40.3728 34.3353 40.4241 33.9573 40.4521 33.556C40.4895 33.108 40.5175 32.6693 40.5361 32.24C40.5548 31.8013 40.5688 31.3673 40.5781 30.938C40.5968 30.5087 40.6061 30.07 40.6061 29.622L45.7301 29.622L45.7301 37L44.5401 37L44.5401 30.672L41.7681 30.672C41.7588 30.9893 41.7448 31.3113 41.7261 31.638C41.7168 31.9553 41.7028 32.2773 41.6841 32.604C41.6748 32.9213 41.6608 33.2433 41.6421 33.57C41.6328 33.9433 41.5955 34.3633 41.5301 34.83C41.4648 35.2967 41.3248 35.7213 41.1101 36.104C40.9048 36.468 40.6528 36.7107 40.3541 36.832C40.0648 36.9533 39.6448 37.014 39.0941 37.014ZM47.6001 37L47.6001 29.622L48.8181 29.622L48.8181 32.436L50.4421 32.436C50.8808 32.436 51.2728 32.4733 51.6181 32.548C51.9728 32.6133 52.2761 32.73 52.5281 32.898C52.7801 33.066 52.9714 33.2947 53.1021 33.584C53.2421 33.864 53.3121 34.2233 53.3121 34.662C53.3121 35.0633 53.2421 35.4133 53.1021 35.712C52.9621 36.0013 52.7661 36.244 52.5141 36.44C52.2621 36.6267 51.9588 36.7667 51.6041 36.86C51.2588 36.9533 50.8761 37 50.4561 37L47.6001 37ZM48.8181 35.964L49.5181 35.964C49.8448 35.964 50.1574 35.9547 50.4561 35.936C50.7641 35.9173 51.0441 35.8707 51.2961 35.796C51.5481 35.7213 51.7441 35.6 51.8841 35.432C52.0334 35.2547 52.1081 35.012 52.1081 34.704C52.1081 34.4053 52.0474 34.1767 51.9261 34.018C51.8141 33.85 51.6648 33.7287 51.4781 33.654C51.2914 33.57 51.0861 33.5187 50.8621 33.5C50.6474 33.4813 50.4328 33.472 50.2181 33.472L48.8181 33.472L48.8181 35.964ZM56.158 37L56.158 30.672L53.624 30.672L53.624 29.622L59.882 29.622L59.882 30.672L57.348 30.672L57.348 37L56.158 37ZM63.3099 37.084C62.9739 37.084 62.6472 37.042 62.3299 36.958C62.0219 36.8647 61.7419 36.7293 61.4899 36.552C61.2472 36.3653 61.0512 36.1367 60.9019 35.866C60.7619 35.586 60.6919 35.264 60.6919 34.9C60.6919 34.48 60.7665 34.1253 60.9159 33.836C61.0745 33.5467 61.2845 33.318 61.5459 33.15C61.8072 32.982 62.1105 32.8607 62.4559 32.786C62.8012 32.7113 63.1605 32.674 63.5339 32.674L65.7039 32.674C65.7039 32.254 65.6432 31.89 65.5219 31.582C65.4099 31.274 65.2232 31.036 64.9619 30.868C64.7005 30.6907 64.3552 30.602 63.9259 30.602C63.6645 30.602 63.4219 30.63 63.1979 30.686C62.9739 30.742 62.7825 30.8307 62.6239 30.952C62.4652 31.0733 62.3485 31.2367 62.2739 31.442L60.9999 31.442C61.0652 31.106 61.1912 30.8213 61.3779 30.588C61.5739 30.3453 61.8072 30.1493 62.0779 30C62.3579 29.8413 62.6565 29.7247 62.9739 29.65C63.2912 29.5753 63.6085 29.538 63.9259 29.538C64.6352 29.538 65.2045 29.6827 65.6339 29.972C66.0632 30.252 66.3759 30.6533 66.5719 31.176C66.7679 31.6893 66.8659 32.3007 66.8659 33.01L66.8659 37L65.8719 37L65.8019 36.062C65.5965 36.342 65.3492 36.5567 65.0599 36.706C64.7705 36.8553 64.4719 36.9533 64.1639 37C63.8652 37.056 63.5805 37.084 63.3099 37.084ZM63.4219 36.034C63.8885 36.034 64.2899 35.9593 64.6259 35.81C64.9712 35.6513 65.2372 35.4227 65.4239 35.124C65.6105 34.8253 65.7039 34.4613 65.7039 34.032L65.7039 33.668L64.4019 33.668C64.0939 33.668 63.7905 33.6727 63.4919 33.682C63.1932 33.6913 62.9225 33.7287 62.6799 33.794C62.4372 33.8593 62.2412 33.9713 62.0919 34.13C61.9519 34.2887 61.8819 34.5173 61.8819 34.816C61.8819 35.096 61.9519 35.3247 62.0919 35.502C62.2412 35.6793 62.4325 35.8147 62.6659 35.908C62.9085 35.992 63.1605 36.034 63.4219 36.034ZM74.4775 39.268L74.4775 37L68.7095 37L68.7095 29.622L69.8995 29.622L69.8995 35.964L73.4695 35.964L73.4695 29.622L74.6735 29.622L74.6735 35.964L75.6395 35.964L75.6395 39.268L74.4775 39.268ZM76.8853 37L76.8853 29.622L78.0753 29.622L78.0753 35.278C78.1406 35.1473 78.2293 35.0073 78.3413 34.858C78.4533 34.6993 78.5419 34.578 78.6073 34.494L82.1773 29.622L83.3533 29.622L83.3533 37L82.1633 37L82.1633 31.344C82.0886 31.484 82.0046 31.6147 81.9113 31.736C81.8273 31.8573 81.7479 31.9693 81.6733 32.072L78.0473 37L76.8853 37ZM84.7631 37L86.6811 34.088C86.1491 33.9387 85.7291 33.696 85.4211 33.36C85.1131 33.0147 84.9591 32.5573 84.9591 31.988C84.9591 31.54 85.0244 31.1667 85.1551 30.868C85.2858 30.56 85.4771 30.3173 85.7291 30.14C85.9811 29.9533 86.2844 29.8227 86.6391 29.748C86.9938 29.664 87.3998 29.622 87.8571 29.622L90.8251 29.622L90.8251 37L89.6351 37L89.6351 34.27L87.9411 34.27L86.1491 37L84.7631 37ZM88.7531 33.234L89.6351 33.234L89.6351 30.672L88.0531 30.672C87.7731 30.672 87.5164 30.686 87.2831 30.714C87.0498 30.742 86.8491 30.8027 86.6811 30.896C86.5224 30.98 86.3964 31.106 86.3031 31.274C86.2098 31.4327 86.1631 31.652 86.1631 31.932C86.1631 32.24 86.2378 32.4827 86.3871 32.66C86.5458 32.8373 86.7464 32.968 86.9891 33.052C87.2411 33.1267 87.5211 33.178 87.8291 33.206C88.1371 33.2247 88.4451 33.234 88.7531 33.234ZM96.0851 39.352L100.411 25.786L101.671 25.786L97.3451 39.352L96.0851 39.352ZM106.922 37L106.922 29.622L113.04 29.622L113.04 37L111.85 37L111.85 30.672L108.112 30.672L108.112 37L106.922 37ZM118.14 37.084C117.366 37.084 116.717 36.9253 116.194 36.608C115.672 36.2813 115.28 35.8333 115.018 35.264C114.766 34.6947 114.64 34.046 114.64 33.318C114.64 32.5807 114.766 31.932 115.018 31.372C115.28 30.8027 115.672 30.3547 116.194 30.028C116.717 29.7013 117.375 29.538 118.168 29.538C118.943 29.538 119.587 29.7013 120.1 30.028C120.623 30.3547 121.01 30.8027 121.262 31.372C121.524 31.932 121.654 32.5807 121.654 33.318C121.654 34.046 121.524 34.6947 121.262 35.264C121.001 35.8333 120.609 36.2813 120.086 36.608C119.573 36.9253 118.924 37.084 118.14 37.084ZM118.14 36.034C118.682 36.034 119.12 35.9127 119.456 35.67C119.802 35.4273 120.054 35.1007 120.212 34.69C120.38 34.2793 120.464 33.822 120.464 33.318C120.464 32.814 120.38 32.3567 120.212 31.946C120.054 31.5353 119.802 31.2087 119.456 30.966C119.12 30.7233 118.682 30.602 118.14 30.602C117.608 30.602 117.17 30.7233 116.824 30.966C116.488 31.2087 116.236 31.5353 116.068 31.946C115.91 32.3567 115.83 32.814 115.83 33.318C115.83 33.822 115.91 34.2793 116.068 34.69C116.236 35.1007 116.488 35.4273 116.824 35.67C117.17 35.9127 117.608 36.034 118.14 36.034ZM122.453 39.268L122.453 35.964C122.723 35.964 122.938 35.8893 123.097 35.74C123.265 35.5907 123.395 35.3947 123.489 35.152C123.582 34.9093 123.652 34.648 123.699 34.368C123.745 34.0787 123.783 33.8033 123.811 33.542C123.857 33.1127 123.885 32.688 123.895 32.268C123.913 31.8387 123.923 31.498 123.923 31.246C123.932 30.9753 123.937 30.7047 123.937 30.434C123.937 30.1633 123.937 29.8927 123.937 29.622L129.173 29.622L129.173 35.964L130.139 35.964L130.139 39.268L128.991 39.268L128.991 37L123.601 37L123.601 39.268L122.453 39.268ZM124.343 35.964L127.983 35.964L127.983 30.672L125.071 30.672C125.061 31.064 125.052 31.5027 125.043 31.988C125.033 32.4733 125.015 32.926 124.987 33.346C124.977 33.5887 124.954 33.864 124.917 34.172C124.889 34.48 124.833 34.7927 124.749 35.11C124.665 35.418 124.529 35.7027 124.343 35.964ZM134.489 37.084C134.023 37.084 133.607 37.0187 133.243 36.888C132.879 36.748 132.567 36.5567 132.305 36.314C132.044 36.062 131.829 35.768 131.661 35.432C131.493 35.0867 131.367 34.7133 131.283 34.312C131.199 33.9107 131.157 33.486 131.157 33.038C131.157 32.3193 131.171 31.652 131.199 31.036C131.237 30.4107 131.339 29.8553 131.507 29.37C131.675 28.8753 131.96 28.4647 132.361 28.138C132.763 27.8113 133.327 27.5827 134.055 27.452C134.429 27.3867 134.797 27.3307 135.161 27.284C135.525 27.2373 135.894 27.1907 136.267 27.144C136.389 27.1253 136.515 27.1067 136.645 27.088C136.776 27.0693 136.911 27.046 137.051 27.018C137.201 26.99 137.341 26.9667 137.471 26.948L137.471 28.04C137.369 28.0773 137.257 28.11 137.135 28.138C137.023 28.1567 136.902 28.1753 136.771 28.194C136.65 28.2127 136.524 28.2267 136.393 28.236C136.272 28.2453 136.151 28.2593 136.029 28.278C135.908 28.2873 135.791 28.3013 135.679 28.32C135.353 28.3573 135.007 28.3947 134.643 28.432C134.279 28.46 133.934 28.5347 133.607 28.656C133.29 28.768 133.019 28.9873 132.795 29.314C132.683 29.482 132.585 29.6827 132.501 29.916C132.427 30.1493 132.371 30.3873 132.333 30.63C132.305 30.8633 132.287 31.0873 132.277 31.302C132.464 31.0407 132.693 30.8307 132.963 30.672C133.234 30.504 133.523 30.3827 133.831 30.308C134.139 30.224 134.433 30.182 134.713 30.182C135.385 30.182 135.955 30.322 136.421 30.602C136.888 30.8727 137.243 31.26 137.485 31.764C137.728 32.268 137.849 32.856 137.849 33.528C137.849 34.2 137.719 34.8067 137.457 35.348C137.196 35.88 136.813 36.3047 136.309 36.622C135.815 36.93 135.208 37.084 134.489 37.084ZM134.517 36.034C134.984 36.034 135.376 35.922 135.693 35.698C136.011 35.474 136.249 35.1753 136.407 34.802C136.575 34.4287 136.659 34.018 136.659 33.57C136.659 33.1313 136.575 32.7393 136.407 32.394C136.249 32.0393 136.011 31.7593 135.693 31.554C135.385 31.3487 135.003 31.246 134.545 31.246C134.097 31.246 133.71 31.3533 133.383 31.568C133.066 31.7827 132.819 32.072 132.641 32.436C132.473 32.7907 132.389 33.178 132.389 33.598C132.389 34.0273 132.469 34.4287 132.627 34.802C132.786 35.1753 133.019 35.474 133.327 35.698C133.645 35.922 134.041 36.034 134.517 36.034ZM142.668 37.084C141.893 37.084 141.244 36.9253 140.722 36.608C140.199 36.2813 139.807 35.8333 139.546 35.264C139.294 34.6947 139.168 34.046 139.168 33.318C139.168 32.5807 139.294 31.932 139.546 31.372C139.807 30.8027 140.199 30.3547 140.722 30.028C141.244 29.7013 141.902 29.538 142.696 29.538C143.47 29.538 144.114 29.7013 144.628 30.028C145.15 30.3547 145.538 30.8027 145.79 31.372C146.051 31.932 146.182 32.5807 146.182 33.318C146.182 34.046 146.051 34.6947 145.79 35.264C145.528 35.8333 145.136 36.2813 144.614 36.608C144.1 36.9253 143.452 37.084 142.668 37.084ZM142.668 36.034C143.209 36.034 143.648 35.9127 143.984 35.67C144.329 35.4273 144.581 35.1007 144.74 34.69C144.908 34.2793 144.992 33.822 144.992 33.318C144.992 32.814 144.908 32.3567 144.74 31.946C144.581 31.5353 144.329 31.2087 143.984 30.966C143.648 30.7233 143.209 30.602 142.668 30.602C142.136 30.602 141.697 30.7233 141.352 30.966C141.016 31.2087 140.764 31.5353 140.596 31.946C140.437 32.3567 140.358 32.814 140.358 33.318C140.358 33.822 140.437 34.2793 140.596 34.69C140.764 35.1007 141.016 35.4273 141.352 35.67C141.697 35.9127 142.136 36.034 142.668 36.034ZM147.774 39.66L147.774 29.622L148.908 29.622L148.964 30.756C149.216 30.3547 149.557 30.0513 149.986 29.846C150.425 29.6407 150.896 29.538 151.4 29.538C152.147 29.538 152.758 29.706 153.234 30.042C153.71 30.3687 154.06 30.8167 154.284 31.386C154.517 31.9553 154.634 32.5993 154.634 33.318C154.634 34.0367 154.517 34.6807 154.284 35.25C154.051 35.8193 153.691 36.2673 153.206 36.594C152.721 36.9207 152.1 37.084 151.344 37.084C150.971 37.084 150.635 37.0467 150.336 36.972C150.037 36.888 149.776 36.7713 149.552 36.622C149.328 36.4727 149.132 36.3047 148.964 36.118L148.964 39.66L147.774 39.66ZM151.246 36.034C151.787 36.034 152.217 35.9127 152.534 35.67C152.851 35.418 153.08 35.0867 153.22 34.676C153.369 34.2653 153.444 33.8127 153.444 33.318C153.444 32.814 153.369 32.3567 153.22 31.946C153.08 31.5353 152.847 31.2087 152.52 30.966C152.193 30.7233 151.759 30.602 151.218 30.602C150.733 30.602 150.317 30.728 149.972 30.98C149.636 31.2227 149.379 31.554 149.202 31.974C149.025 32.3847 148.936 32.8373 148.936 33.332C148.936 33.8453 149.02 34.3073 149.188 34.718C149.356 35.1287 149.613 35.4507 149.958 35.684C150.303 35.9173 150.733 36.034 151.246 36.034ZM165.71 39.268L165.71 37L159.942 37L159.942 29.622L161.132 29.622L161.132 35.964L164.702 35.964L164.702 29.622L165.906 29.622L165.906 35.964L166.872 35.964L166.872 39.268L165.71 39.268ZM168.118 37L168.118 29.622L170.974 29.622C171.3 29.622 171.622 29.6453 171.94 29.692C172.266 29.7293 172.56 29.8133 172.822 29.944C173.092 30.0653 173.307 30.2473 173.466 30.49C173.634 30.7327 173.718 31.0547 173.718 31.456C173.718 31.6987 173.68 31.9227 173.606 32.128C173.531 32.324 173.419 32.4967 173.27 32.646C173.13 32.7953 172.948 32.926 172.724 33.038C173.228 33.15 173.592 33.3693 173.816 33.696C174.04 34.0227 174.152 34.396 174.152 34.816C174.152 35.1893 174.082 35.516 173.942 35.796C173.811 36.0667 173.624 36.2907 173.382 36.468C173.148 36.6453 172.873 36.7807 172.556 36.874C172.248 36.958 171.916 37 171.562 37L168.118 37ZM169.336 35.964L171.282 35.964C171.571 35.964 171.842 35.936 172.094 35.88C172.346 35.824 172.551 35.7213 172.71 35.572C172.868 35.4133 172.948 35.1893 172.948 34.9C172.948 34.6013 172.878 34.3773 172.738 34.228C172.607 34.0693 172.434 33.962 172.22 33.906C172.014 33.8407 171.79 33.8033 171.548 33.794C171.305 33.7847 171.076 33.78 170.862 33.78L169.336 33.78L169.336 35.964ZM169.336 32.772L170.358 32.772C170.544 32.772 170.759 32.7627 171.002 32.744C171.254 32.7253 171.496 32.6833 171.73 32.618C171.972 32.5433 172.168 32.4313 172.318 32.282C172.476 32.1327 172.556 31.9273 172.556 31.666C172.556 31.3207 172.458 31.0827 172.262 30.952C172.075 30.812 171.851 30.7327 171.59 30.714C171.328 30.686 171.086 30.672 170.862 30.672L169.336 30.672L169.336 32.772ZM178.966 37.084C178.182 37.084 177.533 36.9253 177.02 36.608C176.507 36.2813 176.124 35.8333 175.872 35.264C175.62 34.6947 175.494 34.046 175.494 33.318C175.494 32.5807 175.625 31.932 175.886 31.372C176.157 30.8027 176.549 30.3547 177.062 30.028C177.575 29.7013 178.205 29.538 178.952 29.538C179.503 29.538 179.983 29.6453 180.394 29.86C180.814 30.0653 181.159 30.3453 181.43 30.7C181.71 31.0547 181.911 31.4513 182.032 31.89C182.163 32.3287 182.219 32.7813 182.2 33.248C182.191 33.332 182.186 33.416 182.186 33.5C182.186 33.584 182.181 33.668 182.172 33.752L176.698 33.752C176.735 34.1813 176.843 34.5687 177.02 34.914C177.197 35.2593 177.449 35.5347 177.776 35.74C178.103 35.936 178.509 36.034 178.994 36.034C179.237 36.034 179.479 36.006 179.722 35.95C179.974 35.8847 180.198 35.7773 180.394 35.628C180.599 35.4787 180.744 35.278 180.828 35.026L182.046 35.026C181.934 35.502 181.724 35.894 181.416 36.202C181.108 36.5007 180.739 36.7247 180.31 36.874C179.881 37.014 179.433 37.084 178.966 37.084ZM176.726 32.716L180.996 32.716C180.987 32.296 180.893 31.9273 180.716 31.61C180.539 31.2927 180.296 31.0453 179.988 30.868C179.689 30.6907 179.33 30.602 178.91 30.602C178.453 30.602 178.065 30.7 177.748 30.896C177.44 31.092 177.202 31.3487 177.034 31.666C176.866 31.9833 176.763 32.3333 176.726 32.716ZM185.521 37L185.521 30.672L182.987 30.672L182.987 29.622L189.245 29.622L189.245 30.672L186.711 30.672L186.711 37L185.521 37ZM192.673 37.084C192.337 37.084 192.01 37.042 191.693 36.958C191.385 36.8647 191.105 36.7293 190.853 36.552C190.61 36.3653 190.414 36.1367 190.265 35.866C190.125 35.586 190.055 35.264 190.055 34.9C190.055 34.48 190.13 34.1253 190.279 33.836C190.438 33.5467 190.648 33.318 190.909 33.15C191.17 32.982 191.474 32.8607 191.819 32.786C192.164 32.7113 192.524 32.674 192.897 32.674L195.067 32.674C195.067 32.254 195.006 31.89 194.885 31.582C194.773 31.274 194.586 31.036 194.325 30.868C194.064 30.6907 193.718 30.602 193.289 30.602C193.028 30.602 192.785 30.63 192.561 30.686C192.337 30.742 192.146 30.8307 191.987 30.952C191.828 31.0733 191.712 31.2367 191.637 31.442L190.363 31.442C190.428 31.106 190.554 30.8213 190.741 30.588C190.937 30.3453 191.17 30.1493 191.441 30C191.721 29.8413 192.02 29.7247 192.337 29.65C192.654 29.5753 192.972 29.538 193.289 29.538C193.998 29.538 194.568 29.6827 194.997 29.972C195.426 30.252 195.739 30.6533 195.935 31.176C196.131 31.6893 196.229 32.3007 196.229 33.01L196.229 37L195.235 37L195.165 36.062C194.96 36.342 194.712 36.5567 194.423 36.706C194.134 36.8553 193.835 36.9533 193.527 37C193.228 37.056 192.944 37.084 192.673 37.084ZM192.785 36.034C193.252 36.034 193.653 35.9593 193.989 35.81C194.334 35.6513 194.6 35.4227 194.787 35.124C194.974 34.8253 195.067 34.4613 195.067 34.032L195.067 33.668L193.765 33.668C193.457 33.668 193.154 33.6727 192.855 33.682C192.556 33.6913 192.286 33.7287 192.043 33.794C191.8 33.8593 191.604 33.9713 191.455 34.13C191.315 34.2887 191.245 34.5173 191.245 34.816C191.245 35.096 191.315 35.3247 191.455 35.502C191.604 35.6793 191.796 35.8147 192.029 35.908C192.272 35.992 192.524 36.034 192.785 36.034ZM201.846 37L201.846 29.622L203.036 29.622L203.036 35.278C203.102 35.1473 203.19 35.0073 203.302 34.858C203.414 34.6993 203.503 34.578 203.568 34.494L207.138 29.622L208.314 29.622L208.314 37L207.124 37L207.124 31.344C207.05 31.484 206.966 31.6147 206.872 31.736C206.788 31.8573 206.709 31.9693 206.634 32.072L203.008 37L201.846 37ZM217.473 39.52L217.473 37.084C216.904 37.0653 216.381 36.9813 215.905 36.832C215.439 36.6733 215.033 36.4447 214.687 36.146C214.351 35.838 214.09 35.4553 213.903 34.998C213.717 34.5407 213.623 33.9993 213.623 33.374C213.623 32.534 213.777 31.834 214.085 31.274C214.393 30.714 214.832 30.2893 215.401 30C215.98 29.7107 216.671 29.5613 217.473 29.552L217.473 27.284L218.663 27.284L218.663 29.552C219.466 29.5613 220.157 29.7153 220.735 30.014C221.314 30.3033 221.757 30.728 222.065 31.288C222.373 31.848 222.527 32.5433 222.527 33.374C222.527 34.2047 222.364 34.8907 222.037 35.432C221.711 35.9733 221.258 36.3793 220.679 36.65C220.101 36.9113 219.429 37.056 218.663 37.084L218.663 39.52L217.473 39.52ZM217.473 36.09L217.473 30.574C216.596 30.574 215.933 30.8073 215.485 31.274C215.037 31.7407 214.813 32.4267 214.813 33.332C214.813 33.9293 214.911 34.4333 215.107 34.844C215.303 35.2547 215.597 35.5627 215.989 35.768C216.381 35.9733 216.876 36.0807 217.473 36.09ZM218.663 36.09C219.27 36.0807 219.769 35.9733 220.161 35.768C220.553 35.5627 220.847 35.2547 221.043 34.844C221.239 34.4333 221.337 33.9293 221.337 33.332C221.337 32.4267 221.109 31.7407 220.651 31.274C220.203 30.8073 219.541 30.574 218.663 30.574L218.663 36.09ZM227.283 37.084C226.508 37.084 225.86 36.9253 225.337 36.608C224.814 36.2813 224.422 35.8333 224.161 35.264C223.909 34.6947 223.783 34.046 223.783 33.318C223.783 32.5807 223.909 31.932 224.161 31.372C224.422 30.8027 224.814 30.3547 225.337 30.028C225.86 29.7013 226.518 29.538 227.311 29.538C228.086 29.538 228.73 29.7013 229.243 30.028C229.766 30.3547 230.153 30.8027 230.405 31.372C230.666 31.932 230.797 32.5807 230.797 33.318C230.797 34.046 230.666 34.6947 230.405 35.264C230.144 35.8333 229.752 36.2813 229.229 36.608C228.716 36.9253 228.067 37.084 227.283 37.084ZM227.283 36.034C227.824 36.034 228.263 35.9127 228.599 35.67C228.944 35.4273 229.196 35.1007 229.355 34.69C229.523 34.2793 229.607 33.822 229.607 33.318C229.607 32.814 229.523 32.3567 229.355 31.946C229.196 31.5353 228.944 31.2087 228.599 30.966C228.263 30.7233 227.824 30.602 227.283 30.602C226.751 30.602 226.312 30.7233 225.967 30.966C225.631 31.2087 225.379 31.5353 225.211 31.946C225.052 32.3567 224.973 32.814 224.973 33.318C224.973 33.822 225.052 34.2793 225.211 34.69C225.379 35.1007 225.631 35.4273 225.967 35.67C226.312 35.9127 226.751 36.034 227.283 36.034ZM232.389 39.66L232.389 29.622L233.523 29.622L233.579 30.756C233.831 30.3547 234.172 30.0513 234.601 29.846C235.04 29.6407 235.511 29.538 236.015 29.538C236.762 29.538 237.373 29.706 237.849 30.042C238.325 30.3687 238.675 30.8167 238.899 31.386C239.133 31.9553 239.249 32.5993 239.249 33.318C239.249 34.0367 239.133 34.6807 238.899 35.25C238.666 35.8193 238.307 36.2673 237.821 36.594C237.336 36.9207 236.715 37.084 235.959 37.084C235.586 37.084 235.25 37.0467 234.951 36.972C234.653 36.888 234.391 36.7713 234.167 36.622C233.943 36.4727 233.747 36.3047 233.579 36.118L233.579 39.66L232.389 39.66ZM235.861 36.034C236.403 36.034 236.832 35.9127 237.149 35.67C237.467 35.418 237.695 35.0867 237.835 34.676C237.985 34.2653 238.059 33.8127 238.059 33.318C238.059 32.814 237.985 32.3567 237.835 31.946C237.695 31.5353 237.462 31.2087 237.135 30.966C236.809 30.7233 236.375 30.602 235.833 30.602C235.348 30.602 234.933 30.728 234.587 30.98C234.251 31.2227 233.995 31.554 233.817 31.974C233.64 32.3847 233.551 32.8373 233.551 33.332C233.551 33.8453 233.635 34.3073 233.803 34.718C233.971 35.1287 234.228 35.4507 234.573 35.684C234.919 35.9173 235.348 36.034 235.861 36.034ZM240.784 37L240.784 29.622L242.38 29.622L244.774 33.318L247.126 29.622L248.694 29.622L248.694 37L247.518 37L247.518 30.938L244.914 35.11L244.578 35.11L241.96 30.938L241.96 37L240.784 37ZM250.573 37L250.573 29.622L251.791 29.622L251.791 32.436L253.121 32.436C253.559 32.436 253.956 32.4733 254.311 32.548C254.665 32.6227 254.969 32.744 255.221 32.912C255.473 33.08 255.664 33.3087 255.795 33.598C255.925 33.878 255.991 34.2327 255.991 34.662C255.991 35.0727 255.921 35.4273 255.781 35.726C255.641 36.0247 255.44 36.2673 255.179 36.454C254.927 36.6407 254.623 36.7807 254.269 36.874C253.923 36.958 253.545 37 253.135 37L250.573 37ZM251.791 35.964L252.183 35.964C252.509 35.964 252.827 35.9593 253.135 35.95C253.443 35.9313 253.718 35.8847 253.961 35.81C254.213 35.7353 254.413 35.614 254.563 35.446C254.712 35.2687 254.787 35.0213 254.787 34.704C254.787 34.4053 254.726 34.1767 254.605 34.018C254.493 33.85 254.343 33.7287 254.157 33.654C253.97 33.57 253.765 33.5187 253.541 33.5C253.326 33.4813 253.111 33.472 252.897 33.472L251.791 33.472L251.791 35.964ZM257.013 37L257.013 29.622L258.203 29.622L258.203 37L257.013 37Z" fill="black"/>
</svg>
