<svg width="123" height="42" viewBox="0 0 123 42" fill="none" xmlns="http://www.w3.org/2000/svg">
<path d="M1.424 14L1.424 2.688L2.576 2.688L2.576 8.016L4.464 8.016L8.24 2.688L9.568 2.688L5.52 8.304L9.6 14L8.24 14L4.608 9.056L2.576 9.056L2.576 14L1.424 14ZM15.487 14.128C14.3137 14.128 13.3323 13.8773 12.543 13.376C11.7643 12.8747 11.1723 12.1867 10.767 11.312C10.3723 10.4373 10.175 9.45067 10.175 8.352C10.175 7.24267 10.3723 6.25067 10.767 5.376C11.1723 4.50133 11.7643 3.81333 12.543 3.312C13.3323 2.81067 14.3137 2.56 15.487 2.56C16.6603 2.56 17.6363 2.81067 18.415 3.312C19.1937 3.81333 19.7803 4.50133 20.175 5.376C20.5803 6.25067 20.783 7.24267 20.783 8.352C20.783 9.45067 20.5803 10.4373 20.175 11.312C19.7803 12.1867 19.1937 12.8747 18.415 13.376C17.6363 13.8773 16.6603 14.128 15.487 14.128ZM15.487 13.088C16.4257 13.088 17.199 12.8747 17.807 12.448C18.415 12.0213 18.863 11.4507 19.151 10.736C19.4497 10.0107 19.599 9.216 19.599 8.352C19.599 7.70133 19.5137 7.088 19.343 6.512C19.183 5.936 18.9323 5.42933 18.591 4.992C18.2497 4.55467 17.8177 4.21333 17.295 3.968C16.783 3.72267 16.1803 3.6 15.487 3.6C14.559 3.6 13.7857 3.81867 13.167 4.256C12.559 4.68267 12.1003 5.25867 11.791 5.984C11.4923 6.69867 11.343 7.488 11.343 8.352C11.343 9.20533 11.4923 9.99467 11.791 10.72C12.0897 11.4347 12.5483 12.0107 13.167 12.448C13.7857 12.8747 14.559 13.088 15.487 13.088ZM23.0021 14L23.0021 2.688L26.8741 2.688C27.6955 2.688 28.3995 2.82133 28.9861 3.088C29.5728 3.35467 30.0208 3.76533 30.3301 4.32C30.6501 4.864 30.8101 5.55733 30.8101 6.4C30.8101 7.232 30.6235 7.93067 30.2501 8.496C29.8875 9.06133 29.3861 9.48267 28.7461 9.76C28.1168 10.0373 27.3915 10.176 26.5701 10.176L24.1541 10.176L24.1541 14L23.0021 14ZM24.1541 9.136L26.5221 9.136C27.4395 9.136 28.1861 8.91733 28.7621 8.48C29.3381 8.04267 29.6261 7.328 29.6261 6.336C29.6261 5.44 29.3808 4.784 28.8901 4.368C28.4101 3.94133 27.7115 3.728 26.7941 3.728L24.1541 3.728L24.1541 9.136ZM32.9709 14L32.9709 2.688L36.8429 2.688C37.6642 2.688 38.3682 2.82133 38.9549 3.088C39.5415 3.35467 39.9895 3.76533 40.2989 4.32C40.6189 4.864 40.7789 5.55733 40.7789 6.4C40.7789 7.232 40.5922 7.93067 40.2189 8.496C39.8562 9.06133 39.3549 9.48267 38.7149 9.76C38.0855 10.0373 37.3602 10.176 36.5389 10.176L34.1229 10.176L34.1229 14L32.9709 14ZM34.1229 9.136L36.4909 9.136C37.4082 9.136 38.1549 8.91733 38.7309 8.48C39.3069 8.04267 39.5949 7.328 39.5949 6.336C39.5949 5.44 39.3495 4.784 38.8589 4.368C38.3789 3.94133 37.6802 3.728 36.7629 3.728L34.1229 3.728L34.1229 9.136ZM42.9396 14L42.9396 2.688L50.4436 2.688L50.4436 3.728L44.0916 3.728L44.0916 7.872L49.8036 7.872L49.8036 8.928L44.0916 8.928L44.0916 12.96L50.4436 12.96L50.4436 14L42.9396 14ZM52.674 14L52.674 2.688L53.826 2.688L53.826 8.016L55.714 8.016L59.49 2.688L60.818 2.688L56.77 8.304L60.85 14L59.49 14L55.858 9.056L53.826 9.056L53.826 14L52.674 14ZM71.2214 17.184L71.2214 14L62.5334 14L62.5334 2.688L63.6854 2.688L63.6854 12.96L69.8294 12.96L69.8294 2.688L70.9814 2.688L70.9814 12.96L72.3734 12.96L72.3734 17.184L71.2214 17.184ZM74.1271 14L74.1271 2.688L75.2791 2.688L75.2791 12.352L81.6791 2.688L83.0071 2.688L83.0071 14L81.8391 14L81.8391 4.416L75.4391 14L74.1271 14ZM85.5095 14L87.9735 9.456C87.1948 9.28533 86.5602 8.93333 86.0695 8.4C85.5895 7.86667 85.3495 7.136 85.3495 6.208C85.3495 5.568 85.4455 5.02933 85.6375 4.592C85.8402 4.144 86.1228 3.78133 86.4855 3.504C86.8482 3.216 87.2802 3.008 87.7815 2.88C88.2828 2.752 88.8375 2.688 89.4455 2.688L93.5575 2.688L93.5575 14L92.4055 14L92.4055 9.664L89.1255 9.664L86.8055 14L85.5095 14ZM89.7175 8.624L92.4055 8.624L92.4055 3.728L89.4615 3.728C88.8428 3.728 88.3095 3.81333 87.8615 3.984C87.4242 4.144 87.0882 4.4 86.8535 4.752C86.6295 5.104 86.5175 5.57333 86.5175 6.16C86.5175 6.8 86.6668 7.30133 86.9655 7.664C87.2642 8.016 87.6535 8.26667 88.1335 8.416C88.6242 8.55467 89.1522 8.624 89.7175 8.624Z" fill="#4E4E4E"/>
<path opacity="0.4" d="M5.278 37L5.278 34.158C4.92333 34.2233 4.578 34.27 4.242 34.298C3.91533 34.3167 3.62133 34.326 3.36 34.326C2.66933 34.326 2.12333 34.2187 1.722 34.004C1.32067 33.7893 1.036 33.4627 0.868 33.024C0.7 32.576 0.616 32.0207 0.616 31.358L0.616 29.622L1.806 29.622L1.806 31.274C1.806 31.7033 1.848 32.0673 1.932 32.366C2.016 32.6647 2.17933 32.8933 2.422 33.052C2.66467 33.2013 3.02867 33.276 3.514 33.276C3.794 33.276 4.088 33.262 4.396 33.234C4.71333 33.206 5.00733 33.164 5.278 33.108L5.278 29.622L6.468 29.622L6.468 37L5.278 37ZM11.5402 37.084C10.7562 37.084 10.1075 36.9253 9.59416 36.608C9.08082 36.2813 8.69816 35.8333 8.44616 35.264C8.19416 34.6947 8.06816 34.046 8.06816 33.318C8.06816 32.5807 8.19882 31.932 8.46016 31.372C8.73082 30.8027 9.12282 30.3547 9.63616 30.028C10.1495 29.7013 10.7795 29.538 11.5262 29.538C12.0768 29.538 12.5575 29.6453 12.9682 29.86C13.3882 30.0653 13.7335 30.3453 14.0042 30.7C14.2842 31.0547 14.4848 31.4513 14.6062 31.89C14.7368 32.3287 14.7928 32.7813 14.7742 33.248C14.7648 33.332 14.7602 33.416 14.7602 33.5C14.7602 33.584 14.7555 33.668 14.7462 33.752L9.27216 33.752C9.30949 34.1813 9.41682 34.5687 9.59416 34.914C9.77149 35.2593 10.0235 35.5347 10.3502 35.74C10.6768 35.936 11.0828 36.034 11.5682 36.034C11.8108 36.034 12.0535 36.006 12.2962 35.95C12.5482 35.8847 12.7722 35.7773 12.9682 35.628C13.1735 35.4787 13.3182 35.278 13.4022 35.026L14.6202 35.026C14.5082 35.502 14.2982 35.894 13.9902 36.202C13.6822 36.5007 13.3135 36.7247 12.8842 36.874C12.4548 37.014 12.0068 37.084 11.5402 37.084ZM9.30016 32.716L13.5702 32.716C13.5608 32.296 13.4675 31.9273 13.2902 31.61C13.1128 31.2927 12.8702 31.0453 12.5622 30.868C12.2635 30.6907 11.9042 30.602 11.4842 30.602C11.0268 30.602 10.6395 30.7 10.3222 30.896C10.0142 31.092 9.77616 31.3487 9.60816 31.666C9.44016 31.9833 9.33749 32.3333 9.30016 32.716ZM16.3735 39.66L16.3735 29.622L17.5075 29.622L17.5635 30.756C17.8155 30.3547 18.1562 30.0513 18.5855 29.846C19.0242 29.6407 19.4955 29.538 19.9995 29.538C20.7462 29.538 21.3575 29.706 21.8335 30.042C22.3095 30.3687 22.6595 30.8167 22.8835 31.386C23.1169 31.9553 23.2335 32.5993 23.2335 33.318C23.2335 34.0367 23.1169 34.6807 22.8835 35.25C22.6502 35.8193 22.2909 36.2673 21.8055 36.594C21.3202 36.9207 20.6995 37.084 19.9435 37.084C19.5702 37.084 19.2342 37.0467 18.9355 36.972C18.6369 36.888 18.3755 36.7713 18.1515 36.622C17.9275 36.4727 17.7315 36.3047 17.5635 36.118L17.5635 39.66L16.3735 39.66ZM19.8455 36.034C20.3869 36.034 20.8162 35.9127 21.1335 35.67C21.4509 35.418 21.6795 35.0867 21.8195 34.676C21.9689 34.2653 22.0435 33.8127 22.0435 33.318C22.0435 32.814 21.9689 32.3567 21.8195 31.946C21.6795 31.5353 21.4462 31.2087 21.1195 30.966C20.7929 30.7233 20.3589 30.602 19.8175 30.602C19.3322 30.602 18.9169 30.728 18.5715 30.98C18.2355 31.2227 17.9789 31.554 17.8015 31.974C17.6242 32.3847 17.5355 32.8373 17.5355 33.332C17.5355 33.8453 17.6195 34.3073 17.7875 34.718C17.9555 35.1287 18.2122 35.4507 18.5575 35.684C18.9029 35.9173 19.3322 36.034 19.8455 36.034ZM27.9601 37.084C27.1761 37.084 26.5274 36.9253 26.0141 36.608C25.5007 36.2813 25.1181 35.8333 24.8661 35.264C24.6141 34.6947 24.4881 34.046 24.4881 33.318C24.4881 32.5807 24.6187 31.932 24.8801 31.372C25.1507 30.8027 25.5427 30.3547 26.0561 30.028C26.5694 29.7013 27.1994 29.538 27.9461 29.538C28.4967 29.538 28.9774 29.6453 29.3881 29.86C29.8081 30.0653 30.1534 30.3453 30.4241 30.7C30.7041 31.0547 30.9047 31.4513 31.0261 31.89C31.1567 32.3287 31.2127 32.7813 31.1941 33.248C31.1847 33.332 31.1801 33.416 31.1801 33.5C31.1801 33.584 31.1754 33.668 31.1661 33.752L25.6921 33.752C25.7294 34.1813 25.8367 34.5687 26.0141 34.914C26.1914 35.2593 26.4434 35.5347 26.7701 35.74C27.0967 35.936 27.5027 36.034 27.9881 36.034C28.2307 36.034 28.4734 36.006 28.7161 35.95C28.9681 35.8847 29.1921 35.7773 29.3881 35.628C29.5934 35.4787 29.7381 35.278 29.8221 35.026L31.0401 35.026C30.9281 35.502 30.7181 35.894 30.4101 36.202C30.1021 36.5007 29.7334 36.7247 29.3041 36.874C28.8747 37.014 28.4267 37.084 27.9601 37.084ZM25.7201 32.716L29.9901 32.716C29.9807 32.296 29.8874 31.9273 29.7101 31.61C29.5327 31.2927 29.2901 31.0453 28.9821 30.868C28.6834 30.6907 28.3241 30.602 27.9041 30.602C27.4467 30.602 27.0594 30.7 26.7421 30.896C26.4341 31.092 26.1961 31.3487 26.0281 31.666C25.8601 31.9833 25.7574 32.3333 25.7201 32.716ZM35.4675 37.084C35.1128 37.084 34.7581 37.0513 34.4035 36.986C34.0488 36.9207 33.7175 36.8133 33.4095 36.664C33.1108 36.5053 32.8681 36.2953 32.6815 36.034C32.4948 35.7633 32.3921 35.4273 32.3735 35.026L33.5355 35.026C33.5821 35.278 33.7175 35.4787 33.9415 35.628C34.1655 35.7773 34.4175 35.8847 34.6975 35.95C34.9868 36.006 35.2435 36.034 35.4675 36.034C35.7288 36.034 35.9948 36.006 36.2655 35.95C36.5455 35.894 36.7788 35.782 36.9655 35.614C37.1615 35.446 37.2595 35.1987 37.2595 34.872C37.2595 34.5547 37.1801 34.3213 37.0215 34.172C36.8721 34.0227 36.6715 33.9247 36.4195 33.878C36.1768 33.8313 35.9108 33.808 35.6215 33.808L34.3055 33.808L34.3055 32.758L35.3835 32.758C35.5608 32.758 35.7428 32.744 35.9295 32.716C36.1161 32.6787 36.2888 32.6227 36.4475 32.548C36.6061 32.464 36.7321 32.3473 36.8255 32.198C36.9281 32.0487 36.9795 31.8573 36.9795 31.624C36.9795 31.3627 36.9048 31.1573 36.7555 31.008C36.6061 30.8587 36.4148 30.756 36.1815 30.7C35.9481 30.6347 35.7101 30.602 35.4675 30.602C35.2435 30.602 35.0055 30.6253 34.7535 30.672C34.5108 30.7187 34.3008 30.812 34.1235 30.952C33.9461 31.0827 33.8388 31.2787 33.8015 31.54L32.6255 31.54C32.6441 31.036 32.7981 30.6393 33.0875 30.35C33.3768 30.0607 33.7361 29.8553 34.1655 29.734C34.5948 29.6033 35.0241 29.538 35.4535 29.538C35.7801 29.538 36.1021 29.5707 36.4195 29.636C36.7368 29.7013 37.0261 29.8133 37.2875 29.972C37.5488 30.1213 37.7541 30.322 37.9035 30.574C38.0621 30.826 38.1415 31.1387 38.1415 31.512C38.1415 31.848 38.0621 32.1467 37.9035 32.408C37.7448 32.6693 37.5021 32.8793 37.1755 33.038C37.6515 33.1873 37.9828 33.4207 38.1695 33.738C38.3561 34.0553 38.4495 34.4333 38.4495 34.872C38.4495 35.264 38.3655 35.6 38.1975 35.88C38.0295 36.1507 37.8008 36.3793 37.5115 36.566C37.2315 36.7433 36.9141 36.874 36.5595 36.958C36.2048 37.042 35.8408 37.084 35.4675 37.084ZM45.1863 37L45.1863 29.062L43.1703 29.062L43.1703 28.236C43.5436 28.208 43.875 28.166 44.1643 28.11C44.4536 28.0447 44.7103 27.9373 44.9343 27.788C45.1676 27.6293 45.373 27.4007 45.5503 27.102L46.4043 27.102L46.4043 37L45.1863 37ZM48.9423 32.814L48.9423 31.722L53.2823 31.722L53.2823 32.814L48.9423 32.814ZM54.7384 37L54.7384 35.978L57.5384 33.556C57.7904 33.3413 58.0657 33.108 58.3644 32.856C58.6724 32.5947 58.9617 32.3147 59.2324 32.016C59.5124 31.7173 59.741 31.4 59.9184 31.064C60.105 30.7187 60.1984 30.3547 60.1984 29.972C60.1984 29.3747 60.021 28.9173 59.6664 28.6C59.3117 28.2733 58.8357 28.11 58.2384 28.11C57.7624 28.11 57.347 28.208 56.9924 28.404C56.6377 28.6 56.4044 28.8847 56.2924 29.258L54.9904 29.258C55.0837 28.7447 55.2937 28.3247 55.6204 27.998C55.9564 27.662 56.3577 27.41 56.8244 27.242C57.3004 27.074 57.7904 26.99 58.2944 26.99C58.9104 26.99 59.4517 27.102 59.9184 27.326C60.3944 27.55 60.763 27.8767 61.0244 28.306C61.295 28.726 61.4304 29.244 61.4304 29.86C61.4304 30.4667 61.3137 30.9987 61.0804 31.456C60.8564 31.9133 60.5577 32.3287 60.1844 32.702C59.8204 33.066 59.4284 33.4253 59.0084 33.78L56.5024 35.894L61.5424 35.894L61.5424 37L54.7384 37ZM66.9595 37L66.9595 29.622L68.5555 29.622L70.9495 33.318L73.3015 29.622L74.8695 29.622L74.8695 37L73.6935 37L73.6935 30.938L71.0895 35.11L70.7535 35.11L68.1355 30.938L68.1355 37L66.9595 37ZM79.9405 37.084C79.1565 37.084 78.5079 36.9253 77.9945 36.608C77.4812 36.2813 77.0985 35.8333 76.8465 35.264C76.5945 34.6947 76.4685 34.046 76.4685 33.318C76.4685 32.5807 76.5992 31.932 76.8605 31.372C77.1312 30.8027 77.5232 30.3547 78.0365 30.028C78.5499 29.7013 79.1799 29.538 79.9265 29.538C80.4772 29.538 80.9579 29.6453 81.3685 29.86C81.7885 30.0653 82.1339 30.3453 82.4045 30.7C82.6845 31.0547 82.8852 31.4513 83.0065 31.89C83.1372 32.3287 83.1932 32.7813 83.1745 33.248C83.1652 33.332 83.1605 33.416 83.1605 33.5C83.1605 33.584 83.1559 33.668 83.1465 33.752L77.6725 33.752C77.7099 34.1813 77.8172 34.5687 77.9945 34.914C78.1719 35.2593 78.4239 35.5347 78.7505 35.74C79.0772 35.936 79.4832 36.034 79.9685 36.034C80.2112 36.034 80.4539 36.006 80.6965 35.95C80.9485 35.8847 81.1725 35.7773 81.3685 35.628C81.5739 35.4787 81.7185 35.278 81.8025 35.026L83.0205 35.026C82.9085 35.502 82.6985 35.894 82.3905 36.202C82.0825 36.5007 81.7139 36.7247 81.2845 36.874C80.8552 37.014 80.4072 37.084 79.9405 37.084ZM77.7005 32.716L81.9705 32.716C81.9612 32.296 81.8679 31.9273 81.6905 31.61C81.5132 31.2927 81.2705 31.0453 80.9625 30.868C80.6639 30.6907 80.3045 30.602 79.8845 30.602C79.4272 30.602 79.0399 30.7 78.7225 30.896C78.4145 31.092 78.1765 31.3487 78.0085 31.666C77.8405 31.9833 77.7379 32.3333 77.7005 32.716ZM87.9239 37.084C87.1493 37.084 86.5053 36.9253 85.9919 36.608C85.4879 36.2813 85.1099 35.8333 84.8579 35.264C84.6153 34.6947 84.4939 34.0507 84.4939 33.332C84.4939 32.632 84.6199 31.9973 84.8719 31.428C85.1333 30.8493 85.5253 30.392 86.0479 30.056C86.5799 29.7107 87.2519 29.538 88.0639 29.538C88.5679 29.538 89.0159 29.622 89.4079 29.79C89.8093 29.958 90.1406 30.2053 90.4019 30.532C90.6633 30.8493 90.8453 31.2507 90.9479 31.736L89.7299 31.736C89.5899 31.3253 89.3659 31.036 89.0579 30.868C88.7593 30.6907 88.4046 30.602 87.9939 30.602C87.4339 30.602 86.9859 30.7327 86.6499 30.994C86.3139 31.2553 86.0666 31.596 85.9079 32.016C85.7586 32.4267 85.6839 32.8653 85.6839 33.332C85.6839 33.8173 85.7633 34.2653 85.9219 34.676C86.0806 35.0867 86.3279 35.418 86.6639 35.67C86.9999 35.9127 87.4339 36.034 87.9659 36.034C88.3579 36.034 88.7266 35.95 89.0719 35.782C89.4266 35.614 89.6599 35.3153 89.7719 34.886L91.0039 34.886C90.9106 35.39 90.7099 35.8053 90.4019 36.132C90.1033 36.4587 89.7346 36.7013 89.2959 36.86C88.8666 37.0093 88.4093 37.084 87.9239 37.084ZM92.0502 37L93.9682 34.088C93.4362 33.9387 93.0162 33.696 92.7082 33.36C92.4002 33.0147 92.2462 32.5573 92.2462 31.988C92.2462 31.54 92.3116 31.1667 92.4422 30.868C92.5729 30.56 92.7642 30.3173 93.0162 30.14C93.2682 29.9533 93.5716 29.8227 93.9262 29.748C94.2809 29.664 94.6869 29.622 95.1442 29.622L98.1122 29.622L98.1122 37L96.9222 37L96.9222 34.27L95.2282 34.27L93.4362 37L92.0502 37ZM96.0402 33.234L96.9222 33.234L96.9222 30.672L95.3402 30.672C95.0602 30.672 94.8036 30.686 94.5702 30.714C94.3369 30.742 94.1362 30.8027 93.9682 30.896C93.8096 30.98 93.6836 31.106 93.5902 31.274C93.4969 31.4327 93.4502 31.652 93.4502 31.932C93.4502 32.24 93.5249 32.4827 93.6742 32.66C93.8329 32.8373 94.0336 32.968 94.2762 33.052C94.5282 33.1267 94.8082 33.178 95.1162 33.206C95.4242 33.2247 95.7322 33.234 96.0402 33.234ZM105.759 39.268L105.759 37L99.9907 37L99.9907 29.622L101.181 29.622L101.181 35.964L104.751 35.964L104.751 29.622L105.955 29.622L105.955 35.964L106.921 35.964L106.921 39.268L105.759 39.268ZM111.359 37.084C110.575 37.084 109.926 36.9253 109.413 36.608C108.899 36.2813 108.517 35.8333 108.265 35.264C108.013 34.6947 107.887 34.046 107.887 33.318C107.887 32.5807 108.017 31.932 108.279 31.372C108.549 30.8027 108.941 30.3547 109.455 30.028C109.968 29.7013 110.598 29.538 111.345 29.538C111.895 29.538 112.376 29.6453 112.787 29.86C113.207 30.0653 113.552 30.3453 113.823 30.7C114.103 31.0547 114.303 31.4513 114.425 31.89C114.555 32.3287 114.611 32.7813 114.593 33.248C114.583 33.332 114.579 33.416 114.579 33.5C114.579 33.584 114.574 33.668 114.565 33.752L109.091 33.752C109.128 34.1813 109.235 34.5687 109.413 34.914C109.59 35.2593 109.842 35.5347 110.169 35.74C110.495 35.936 110.901 36.034 111.387 36.034C111.629 36.034 111.872 36.006 112.115 35.95C112.367 35.8847 112.591 35.7773 112.787 35.628C112.992 35.4787 113.137 35.278 113.221 35.026L114.439 35.026C114.327 35.502 114.117 35.894 113.809 36.202C113.501 36.5007 113.132 36.7247 112.703 36.874C112.273 37.014 111.825 37.084 111.359 37.084ZM109.119 32.716L113.389 32.716C113.379 32.296 113.286 31.9273 113.109 31.61C112.931 31.2927 112.689 31.0453 112.381 30.868C112.082 30.6907 111.723 30.602 111.303 30.602C110.845 30.602 110.458 30.7 110.141 30.896C109.833 31.092 109.595 31.3487 109.427 31.666C109.259 31.9833 109.156 32.3333 109.119 32.716ZM116.192 37L116.192 29.622L119.048 29.622C119.375 29.622 119.697 29.6453 120.014 29.692C120.341 29.7293 120.635 29.8133 120.896 29.944C121.167 30.0653 121.381 30.2473 121.54 30.49C121.708 30.7327 121.792 31.0547 121.792 31.456C121.792 31.6987 121.755 31.9227 121.68 32.128C121.605 32.324 121.493 32.4967 121.344 32.646C121.204 32.7953 121.022 32.926 120.798 33.038C121.302 33.15 121.666 33.3693 121.89 33.696C122.114 34.0227 122.226 34.396 122.226 34.816C122.226 35.1893 122.156 35.516 122.016 35.796C121.885 36.0667 121.699 36.2907 121.456 36.468C121.223 36.6453 120.947 36.7807 120.63 36.874C120.322 36.958 119.991 37 119.636 37L116.192 37ZM117.41 35.964L119.356 35.964C119.645 35.964 119.916 35.936 120.168 35.88C120.42 35.824 120.625 35.7213 120.784 35.572C120.943 35.4133 121.022 35.1893 121.022 34.9C121.022 34.6013 120.952 34.3773 120.812 34.228C120.681 34.0693 120.509 33.962 120.294 33.906C120.089 33.8407 119.865 33.8033 119.622 33.794C119.379 33.7847 119.151 33.78 118.936 33.78L117.41 33.78L117.41 35.964ZM117.41 32.772L118.432 32.772C118.619 32.772 118.833 32.7627 119.076 32.744C119.328 32.7253 119.571 32.6833 119.804 32.618C120.047 32.5433 120.243 32.4313 120.392 32.282C120.551 32.1327 120.63 31.9273 120.63 31.666C120.63 31.3207 120.532 31.0827 120.336 30.952C120.149 30.812 119.925 30.7327 119.664 30.714C119.403 30.686 119.16 30.672 118.936 30.672L117.41 30.672L117.41 32.772Z" fill="black"/>
</svg>
