<svg width="164" height="43" viewBox="0 0 164 43" fill="none" xmlns="http://www.w3.org/2000/svg">
<path opacity="0.4" d="M3.416 40.72C2.856 40.0573 2.38933 39.3153 2.016 38.494C1.652 37.682 1.37667 36.8466 1.19 35.988C1.00333 35.12 0.91 34.2986 0.91 33.524C0.91 32.74 1.00333 31.9186 1.19 31.06C1.386 30.2013 1.67067 29.3613 2.044 28.54C2.41733 27.7093 2.884 26.9626 3.444 26.3L4.732 26.3C4.07867 27.1586 3.556 27.9846 3.164 28.778C2.78133 29.5713 2.506 30.36 2.338 31.144C2.17933 31.9186 2.1 32.712 2.1 33.524C2.1 34.3453 2.184 35.1433 2.352 35.918C2.52933 36.6926 2.80933 37.472 3.192 38.256C3.57467 39.04 4.07867 39.8613 4.704 40.72L3.416 40.72ZM9.01808 37.752L9.01808 30.374L11.8741 30.374C12.2007 30.374 12.5227 30.3973 12.8401 30.444C13.1667 30.4813 13.4607 30.5653 13.7221 30.696C13.9927 30.8173 14.2074 30.9993 14.3661 31.242C14.5341 31.4846 14.6181 31.8066 14.6181 32.208C14.6181 32.4506 14.5807 32.6746 14.5061 32.88C14.4314 33.076 14.3194 33.2486 14.1701 33.398C14.0301 33.5473 13.8481 33.678 13.6241 33.79C14.1281 33.902 14.4921 34.1213 14.7161 34.448C14.9401 34.7746 15.0521 35.148 15.0521 35.568C15.0521 35.9413 14.9821 36.268 14.8421 36.548C14.7114 36.8186 14.5247 37.0426 14.2821 37.22C14.0487 37.3973 13.7734 37.5326 13.4561 37.626C13.1481 37.71 12.8167 37.752 12.4621 37.752L9.01808 37.752ZM10.2361 36.716L12.1821 36.716C12.4714 36.716 12.7421 36.688 12.9941 36.632C13.2461 36.576 13.4514 36.4733 13.6101 36.324C13.7687 36.1653 13.8481 35.9413 13.8481 35.652C13.8481 35.3533 13.7781 35.1293 13.6381 34.98C13.5074 34.8213 13.3347 34.714 13.1201 34.658C12.9147 34.5926 12.6907 34.5553 12.4481 34.546C12.2054 34.5366 11.9767 34.532 11.7621 34.532L10.2361 34.532L10.2361 36.716ZM10.2361 33.524L11.2581 33.524C11.4447 33.524 11.6594 33.5146 11.9021 33.496C12.1541 33.4773 12.3967 33.4353 12.6301 33.37C12.8727 33.2953 13.0687 33.1833 13.2181 33.034C13.3767 32.8846 13.4561 32.6793 13.4561 32.418C13.4561 32.0726 13.3581 31.8346 13.1621 31.704C12.9754 31.564 12.7514 31.4846 12.4901 31.466C12.2287 31.438 11.9861 31.424 11.7621 31.424L10.2361 31.424L10.2361 33.524ZM19.8943 37.836C19.1197 37.836 18.471 37.6773 17.9483 37.36C17.4257 37.0333 17.0337 36.5853 16.7723 36.016C16.5203 35.4466 16.3943 34.798 16.3943 34.07C16.3943 33.3326 16.5203 32.684 16.7723 32.124C17.0337 31.5546 17.4257 31.1066 17.9483 30.78C18.471 30.4533 19.129 30.29 19.9223 30.29C20.697 30.29 21.341 30.4533 21.8543 30.78C22.377 31.1066 22.7643 31.5546 23.0163 32.124C23.2777 32.684 23.4083 33.3326 23.4083 34.07C23.4083 34.798 23.2777 35.4466 23.0163 36.016C22.755 36.5853 22.363 37.0333 21.8403 37.36C21.327 37.6773 20.6783 37.836 19.8943 37.836ZM19.8943 36.786C20.4357 36.786 20.8743 36.6646 21.2103 36.422C21.5557 36.1793 21.8077 35.8526 21.9663 35.442C22.1343 35.0313 22.2183 34.574 22.2183 34.07C22.2183 33.566 22.1343 33.1086 21.9663 32.698C21.8077 32.2873 21.5557 31.9606 21.2103 31.718C20.8743 31.4753 20.4357 31.354 19.8943 31.354C19.3623 31.354 18.9237 31.4753 18.5783 31.718C18.2423 31.9606 17.9903 32.2873 17.8223 32.698C17.6637 33.1086 17.5843 33.566 17.5843 34.07C17.5843 34.574 17.6637 35.0313 17.8223 35.442C17.9903 35.8526 18.2423 36.1793 18.5783 36.422C18.9237 36.6646 19.3623 36.786 19.8943 36.786ZM28.1505 37.836C27.3758 37.836 26.7318 37.6773 26.2185 37.36C25.7145 37.0333 25.3365 36.5853 25.0845 36.016C24.8418 35.4466 24.7205 34.8026 24.7205 34.084C24.7205 33.384 24.8465 32.7493 25.0985 32.18C25.3598 31.6013 25.7518 31.144 26.2745 30.808C26.8065 30.4626 27.4785 30.29 28.2905 30.29C28.7945 30.29 29.2425 30.374 29.6345 30.542C30.0358 30.71 30.3672 30.9573 30.6285 31.284C30.8898 31.6013 31.0718 32.0026 31.1745 32.488L29.9565 32.488C29.8165 32.0773 29.5925 31.788 29.2845 31.62C28.9858 31.4426 28.6312 31.354 28.2205 31.354C27.6605 31.354 27.2125 31.4846 26.8765 31.746C26.5405 32.0073 26.2932 32.348 26.1345 32.768C25.9852 33.1786 25.9105 33.6173 25.9105 34.084C25.9105 34.5693 25.9898 35.0173 26.1485 35.428C26.3072 35.8386 26.5545 36.17 26.8905 36.422C27.2265 36.6646 27.6605 36.786 28.1925 36.786C28.5845 36.786 28.9532 36.702 29.2985 36.534C29.6532 36.366 29.8865 36.0673 29.9985 35.638L31.2305 35.638C31.1372 36.142 30.9365 36.5573 30.6285 36.884C30.3298 37.2106 29.9612 37.4533 29.5225 37.612C29.0932 37.7613 28.6358 37.836 28.1505 37.836ZM32.7388 37.752L32.7388 30.374L33.9288 30.374L33.9288 33.552L35.2168 33.552L37.4008 30.374L38.7588 30.374L36.2948 33.888L38.9688 37.752L37.5688 37.752L35.3568 34.588L33.9288 34.588L33.9288 37.752L32.7388 37.752ZM39.6065 40.104L43.9325 26.538L45.1925 26.538L40.8665 40.104L39.6065 40.104ZM46.6704 37.752L46.6704 30.374L52.7884 30.374L52.7884 37.752L51.5984 37.752L51.5984 31.424L47.8604 31.424L47.8604 37.752L46.6704 37.752ZM54.6685 37.752L54.6685 30.374L55.8585 30.374L55.8585 36.03C55.9238 35.8993 56.0125 35.7593 56.1245 35.61C56.2365 35.4513 56.3251 35.33 56.3905 35.246L59.9605 30.374L61.1365 30.374L61.1365 37.752L59.9465 37.752L59.9465 32.096C59.8718 32.236 59.7878 32.3666 59.6945 32.488C59.6105 32.6093 59.5311 32.7213 59.4565 32.824L55.8305 37.752L54.6685 37.752ZM63.0083 37.752L63.0083 30.374L64.1983 30.374L64.1983 33.608L67.8943 33.608L67.8943 30.374L69.0843 30.374L69.0843 37.752L67.8943 37.752L67.8943 34.658L64.1983 34.658L64.1983 37.752L63.0083 37.752ZM76.7333 40.02L76.7333 37.752L70.9653 37.752L70.9653 30.374L72.1553 30.374L72.1553 36.716L75.7253 36.716L75.7253 30.374L76.9293 30.374L76.9293 36.716L77.8953 36.716L77.8953 40.02L76.7333 40.02ZM82.3331 37.836C81.5491 37.836 80.9005 37.6773 80.3871 37.36C79.8738 37.0333 79.4911 36.5853 79.2391 36.016C78.9871 35.4466 78.8611 34.798 78.8611 34.07C78.8611 33.3326 78.9918 32.684 79.2531 32.124C79.5238 31.5546 79.9158 31.1066 80.4291 30.78C80.9425 30.4533 81.5725 30.29 82.3191 30.29C82.8698 30.29 83.3505 30.3973 83.7611 30.612C84.1811 30.8173 84.5265 31.0973 84.7971 31.452C85.0771 31.8066 85.2778 32.2033 85.3991 32.642C85.5298 33.0806 85.5858 33.5333 85.5671 34C85.5578 34.084 85.5531 34.168 85.5531 34.252C85.5531 34.336 85.5485 34.42 85.5391 34.504L80.0651 34.504C80.1025 34.9333 80.2098 35.3206 80.3871 35.666C80.5645 36.0113 80.8165 36.2866 81.1431 36.492C81.4698 36.688 81.8758 36.786 82.3611 36.786C82.6038 36.786 82.8465 36.758 83.0891 36.702C83.3411 36.6366 83.5651 36.5293 83.7611 36.38C83.9665 36.2306 84.1111 36.03 84.1951 35.778L85.4131 35.778C85.3011 36.254 85.0911 36.646 84.7831 36.954C84.4751 37.2526 84.1065 37.4766 83.6771 37.626C83.2478 37.766 82.7998 37.836 82.3331 37.836ZM80.0931 33.468L84.3631 33.468C84.3538 33.048 84.2605 32.6793 84.0831 32.362C83.9058 32.0446 83.6631 31.7973 83.3551 31.62C83.0565 31.4426 82.6971 31.354 82.2771 31.354C81.8198 31.354 81.4325 31.452 81.1151 31.648C80.8071 31.844 80.5691 32.1006 80.4011 32.418C80.2331 32.7353 80.1305 33.0853 80.0931 33.468ZM88.8885 37.752L88.8885 31.424L86.3545 31.424L86.3545 30.374L92.6125 30.374L92.6125 31.424L90.0785 31.424L90.0785 37.752L88.8885 37.752ZM93.6323 40.72L92.3443 40.72C92.9697 39.8613 93.4737 39.04 93.8563 38.256C94.239 37.472 94.5143 36.6926 94.6823 35.918C94.8597 35.1433 94.9483 34.3453 94.9483 33.524C94.9483 32.712 94.8643 31.9186 94.6963 31.144C94.5377 30.36 94.267 29.5713 93.8843 28.778C93.5017 27.9846 92.979 27.1586 92.3163 26.3L93.6043 26.3C94.1643 26.9626 94.631 27.7093 95.0043 28.54C95.387 29.3613 95.6717 30.2013 95.8583 31.06C96.045 31.9186 96.1383 32.74 96.1383 33.524C96.1383 34.2986 96.045 35.12 95.8583 35.988C95.681 36.8466 95.4057 37.682 95.0323 38.494C94.659 39.3153 94.1923 40.0573 93.6323 40.72Z" fill="black"/>
<path d="M1.424 14.752L1.424 3.43995L2.576 3.43995L2.576 8.76795L4.464 8.76795L8.24 3.43995L9.568 3.43995L5.52 9.05595L9.6 14.752L8.24 14.752L4.608 9.80795L2.576 9.80795L2.576 14.752L1.424 14.752ZM15.487 14.88C14.3137 14.88 13.3323 14.6293 12.543 14.128C11.7643 13.6266 11.1723 12.9386 10.767 12.064C10.3723 11.1893 10.175 10.2026 10.175 9.10395C10.175 7.99462 10.3723 7.00262 10.767 6.12795C11.1723 5.25329 11.7643 4.56529 12.543 4.06395C13.3323 3.56262 14.3137 3.31195 15.487 3.31195C16.6603 3.31195 17.6363 3.56262 18.415 4.06395C19.1937 4.56529 19.7803 5.25329 20.175 6.12795C20.5803 7.00262 20.783 7.99462 20.783 9.10395C20.783 10.2026 20.5803 11.1893 20.175 12.064C19.7803 12.9386 19.1937 13.6266 18.415 14.128C17.6363 14.6293 16.6603 14.88 15.487 14.88ZM15.487 13.84C16.4257 13.84 17.199 13.6266 17.807 13.2C18.415 12.7733 18.863 12.2026 19.151 11.488C19.4497 10.7626 19.599 9.96795 19.599 9.10395C19.599 8.45329 19.5137 7.83995 19.343 7.26395C19.183 6.68795 18.9323 6.18129 18.591 5.74395C18.2497 5.30662 17.8177 4.96529 17.295 4.71995C16.783 4.47462 16.1803 4.35195 15.487 4.35195C14.559 4.35195 13.7857 4.57062 13.167 5.00795C12.559 5.43462 12.1003 6.01062 11.791 6.73595C11.4923 7.45062 11.343 8.23995 11.343 9.10395C11.343 9.95729 11.4923 10.7466 11.791 11.472C12.0897 12.1866 12.5483 12.7626 13.167 13.2C13.7857 13.6266 14.559 13.84 15.487 13.84ZM23.0021 14.752L23.0021 3.43995L26.8741 3.43995C27.6955 3.43995 28.3995 3.57329 28.9861 3.83995C29.5728 4.10662 30.0208 4.51729 30.3301 5.07195C30.6501 5.61595 30.8101 6.30929 30.8101 7.15195C30.8101 7.98395 30.6235 8.68262 30.2501 9.24795C29.8875 9.81329 29.3861 10.2346 28.7461 10.512C28.1168 10.7893 27.3915 10.928 26.5701 10.928L24.1541 10.928L24.1541 14.752L23.0021 14.752ZM24.1541 9.88795L26.5221 9.88795C27.4395 9.88795 28.1861 9.66929 28.7621 9.23195C29.3381 8.79462 29.6261 8.07995 29.6261 7.08795C29.6261 6.19195 29.3808 5.53595 28.8901 5.11995C28.4101 4.69329 27.7115 4.47995 26.7941 4.47995L24.1541 4.47995L24.1541 9.88795ZM32.9709 14.752L32.9709 3.43995L36.8429 3.43995C37.6642 3.43995 38.3682 3.57329 38.9549 3.83995C39.5415 4.10662 39.9895 4.51729 40.2989 5.07195C40.6189 5.61595 40.7789 6.30929 40.7789 7.15195C40.7789 7.98395 40.5922 8.68262 40.2189 9.24795C39.8562 9.81329 39.3549 10.2346 38.7149 10.512C38.0855 10.7893 37.3602 10.928 36.5389 10.928L34.1229 10.928L34.1229 14.752L32.9709 14.752ZM34.1229 9.88795L36.4909 9.88795C37.4082 9.88795 38.1549 9.66929 38.7309 9.23195C39.3069 8.79462 39.5949 8.07995 39.5949 7.08795C39.5949 6.19195 39.3495 5.53595 38.8589 5.11995C38.3789 4.69329 37.6802 4.47995 36.7629 4.47995L34.1229 4.47995L34.1229 9.88795ZM42.9396 14.752L42.9396 3.43995L50.4436 3.43995L50.4436 4.47995L44.0916 4.47995L44.0916 8.62395L49.8036 8.62395L49.8036 9.67995L44.0916 9.67995L44.0916 13.712L50.4436 13.712L50.4436 14.752L42.9396 14.752ZM52.674 14.752L52.674 3.43995L53.826 3.43995L53.826 8.76795L55.714 8.76795L59.49 3.43995L60.818 3.43995L56.77 9.05595L60.85 14.752L59.49 14.752L55.858 9.80795L53.826 9.80795L53.826 14.752L52.674 14.752ZM71.2214 17.936L71.2214 14.752L62.5334 14.752L62.5334 3.43995L63.6854 3.43995L63.6854 13.712L69.8294 13.712L69.8294 3.43995L70.9814 3.43995L70.9814 13.712L72.3734 13.712L72.3734 17.936L71.2214 17.936ZM74.1271 14.752L74.1271 3.43995L75.2791 3.43995L75.2791 13.104L81.6791 3.43995L83.0071 3.43995L83.0071 14.752L81.8391 14.752L81.8391 5.16795L75.4391 14.752L74.1271 14.752ZM85.5095 14.752L87.9735 10.208C87.1948 10.0373 86.5602 9.68529 86.0695 9.15195C85.5895 8.61862 85.3495 7.88795 85.3495 6.95995C85.3495 6.31995 85.4455 5.78129 85.6375 5.34395C85.8402 4.89595 86.1228 4.53329 86.4855 4.25595C86.8482 3.96795 87.2802 3.75995 87.7815 3.63195C88.2828 3.50395 88.8375 3.43995 89.4455 3.43995L93.5575 3.43995L93.5575 14.752L92.4055 14.752L92.4055 10.416L89.1255 10.416L86.8055 14.752L85.5095 14.752ZM89.7175 9.37595L92.4055 9.37595L92.4055 4.47995L89.4615 4.47995C88.8428 4.47995 88.3095 4.56529 87.8615 4.73595C87.4242 4.89595 87.0882 5.15195 86.8535 5.50395C86.6295 5.85595 86.5175 6.32529 86.5175 6.91195C86.5175 7.55195 86.6668 8.05329 86.9655 8.41595C87.2642 8.76795 87.6535 9.01862 88.1335 9.16795C88.6242 9.30662 89.1522 9.37595 89.7175 9.37595ZM100.721 14.752L100.721 3.43995L108.321 3.43995L108.321 4.47995L101.873 4.47995L101.873 8.20795L104.657 8.20795C105.19 8.20795 105.702 8.25062 106.193 8.33595C106.694 8.42129 107.142 8.57595 107.537 8.79995C107.932 9.01329 108.241 9.32262 108.465 9.72795C108.7 10.1333 108.817 10.6666 108.817 11.328C108.817 11.968 108.71 12.512 108.497 12.96C108.284 13.3973 107.985 13.7493 107.601 14.016C107.217 14.272 106.764 14.4586 106.241 14.576C105.729 14.6933 105.174 14.752 104.577 14.752L100.721 14.752ZM101.873 13.712L104.401 13.712C104.806 13.712 105.206 13.68 105.601 13.616C105.996 13.552 106.342 13.4453 106.641 13.296C106.95 13.136 107.196 12.9013 107.377 12.592C107.558 12.2826 107.649 11.888 107.649 11.408C107.649 10.9066 107.558 10.512 107.377 10.224C107.196 9.93595 106.95 9.72262 106.641 9.58395C106.342 9.44529 106.001 9.35995 105.617 9.32795C105.244 9.28529 104.86 9.26395 104.465 9.26395L101.873 9.26395L101.873 13.712ZM111.158 14.752L111.158 3.43995L115.03 3.43995C115.852 3.43995 116.556 3.57329 117.142 3.83995C117.729 4.10662 118.177 4.51729 118.486 5.07195C118.806 5.61595 118.966 6.30929 118.966 7.15195C118.966 7.98395 118.78 8.68262 118.406 9.24795C118.044 9.81329 117.542 10.2346 116.902 10.512C116.273 10.7893 115.548 10.928 114.726 10.928L112.31 10.928L112.31 14.752L111.158 14.752ZM112.31 9.88795L114.678 9.88795C115.596 9.88795 116.342 9.66929 116.918 9.23195C117.494 8.79462 117.782 8.07995 117.782 7.08795C117.782 6.19195 117.537 5.53595 117.046 5.11995C116.566 4.69329 115.868 4.47995 114.95 4.47995L112.31 4.47995L112.31 9.88795ZM125.971 14.88C124.798 14.88 123.817 14.6293 123.027 14.128C122.249 13.6266 121.657 12.9386 121.251 12.064C120.857 11.1893 120.659 10.2026 120.659 9.10395C120.659 7.99462 120.857 7.00262 121.251 6.12795C121.657 5.25329 122.249 4.56529 123.027 4.06395C123.817 3.56262 124.798 3.31195 125.971 3.31195C127.145 3.31195 128.121 3.56262 128.899 4.06395C129.678 4.56529 130.265 5.25329 130.659 6.12795C131.065 7.00262 131.267 7.99462 131.267 9.10395C131.267 10.2026 131.065 11.1893 130.659 12.064C130.265 12.9386 129.678 13.6266 128.899 14.128C128.121 14.6293 127.145 14.88 125.971 14.88ZM125.971 13.84C126.91 13.84 127.683 13.6266 128.291 13.2C128.899 12.7733 129.347 12.2026 129.635 11.488C129.934 10.7626 130.083 9.96795 130.083 9.10395C130.083 8.45329 129.998 7.83995 129.827 7.26395C129.667 6.68795 129.417 6.18129 129.075 5.74395C128.734 5.30662 128.302 4.96529 127.779 4.71995C127.267 4.47462 126.665 4.35195 125.971 4.35195C125.043 4.35195 124.27 4.57062 123.651 5.00795C123.043 5.43462 122.585 6.01062 122.275 6.73595C121.977 7.45062 121.827 8.23995 121.827 9.10395C121.827 9.95729 121.977 10.7466 122.275 11.472C122.574 12.1866 123.033 12.7626 123.651 13.2C124.27 13.6266 125.043 13.84 125.971 13.84ZM133.471 14.752L133.471 3.43995L137.391 3.43995C137.924 3.43995 138.415 3.48262 138.863 3.56795C139.311 3.65329 139.705 3.79729 140.047 3.99995C140.388 4.20262 140.649 4.48529 140.831 4.84795C141.023 5.21062 141.119 5.66929 141.119 6.22395C141.119 6.85329 140.959 7.39195 140.639 7.83995C140.329 8.28795 139.887 8.61329 139.311 8.81595C140.068 8.92262 140.655 9.22662 141.071 9.72795C141.497 10.2186 141.711 10.8586 141.711 11.648C141.711 12.256 141.588 12.7626 141.343 13.168C141.108 13.5626 140.783 13.8773 140.367 14.112C139.951 14.3466 139.481 14.512 138.959 14.608C138.436 14.704 137.887 14.752 137.311 14.752L133.471 14.752ZM134.623 13.712L137.263 13.712C137.615 13.712 137.983 13.6906 138.367 13.648C138.751 13.6053 139.108 13.52 139.439 13.392C139.769 13.2533 140.036 13.04 140.239 12.752C140.441 12.464 140.543 12.08 140.543 11.6C140.543 11.1733 140.463 10.8266 140.303 10.56C140.143 10.2933 139.924 10.0853 139.647 9.93595C139.38 9.77595 139.076 9.66929 138.735 9.61595C138.404 9.55195 138.063 9.51995 137.711 9.51995L134.623 9.51995L134.623 13.712ZM134.623 8.49595L136.943 8.49595C137.337 8.49595 137.716 8.45862 138.079 8.38395C138.452 8.30929 138.783 8.18662 139.071 8.01595C139.359 7.84529 139.583 7.62129 139.743 7.34395C139.913 7.06662 139.999 6.71995 139.999 6.30395C139.999 5.77062 139.876 5.37595 139.631 5.11995C139.385 4.86395 139.065 4.69329 138.671 4.60795C138.287 4.52262 137.865 4.47995 137.407 4.47995L134.623 4.47995L134.623 8.49595ZM143.955 14.752L143.955 3.43995L151.459 3.43995L151.459 4.47995L145.107 4.47995L145.107 8.62395L150.819 8.62395L150.819 9.67995L145.107 9.67995L145.107 13.712L151.459 13.712L151.459 14.752L143.955 14.752ZM153.69 14.752L153.69 3.43995L154.842 3.43995L154.842 13.104L161.242 3.43995L162.57 3.43995L162.57 14.752L161.402 14.752L161.402 5.16795L155.002 14.752L153.69 14.752ZM158.138 2.20795C157.583 2.20795 157.092 2.12795 156.666 1.96795C156.25 1.79729 155.919 1.54662 155.674 1.21595C155.439 0.885286 155.3 0.479953 155.258 -4.75394e-05L156.346 -4.75384e-05C156.41 0.426619 156.602 0.746619 156.922 0.959953C157.252 1.16262 157.658 1.26395 158.138 1.26395C158.618 1.26395 159.018 1.16262 159.338 0.959953C159.668 0.746619 159.86 0.426619 159.914 -4.75351e-05L161.002 -4.75341e-05C160.97 0.479953 160.831 0.885286 160.586 1.21595C160.34 1.53595 160.01 1.78129 159.594 1.95195C159.178 2.12262 158.692 2.20795 158.138 2.20795Z" fill="#4E4E4E"/>
</svg>
