<svg width="350" height="55" viewBox="0 0 350 55" fill="none" xmlns="http://www.w3.org/2000/svg">
<rect width="350" height="55" rx="20" fill="black"/>
<rect width="350" height="55" rx="20" fill="url(#paint0_linear_170_71)"/>
<path d="M128.996 31V22.516H135.8V31H134.528V23.668H130.268V31H128.996ZM140.377 31.072C139.721 31.072 139.165 30.94 138.709 30.676C138.253 30.404 137.905 30.024 137.665 29.536C137.433 29.048 137.317 28.484 137.317 27.844C137.317 27.196 137.433 26.632 137.665 26.152C137.905 25.664 138.253 25.284 138.709 25.012C139.165 24.732 139.725 24.592 140.389 24.592C141.045 24.592 141.601 24.732 142.057 25.012C142.513 25.284 142.857 25.664 143.089 26.152C143.321 26.64 143.437 27.208 143.437 27.856C143.437 28.488 143.317 29.048 143.077 29.536C142.845 30.024 142.501 30.404 142.045 30.676C141.597 30.94 141.041 31.072 140.377 31.072ZM140.377 29.968C140.809 29.968 141.157 29.872 141.421 29.68C141.693 29.488 141.893 29.232 142.021 28.912C142.149 28.592 142.213 28.24 142.213 27.856C142.213 27.472 142.149 27.12 142.021 26.8C141.893 26.472 141.693 26.212 141.421 26.02C141.157 25.82 140.809 25.72 140.377 25.72C139.953 25.72 139.605 25.82 139.333 26.02C139.061 26.212 138.861 26.468 138.733 26.788C138.613 27.108 138.553 27.464 138.553 27.856C138.553 28.24 138.613 28.592 138.733 28.912C138.861 29.232 139.061 29.488 139.333 29.68C139.605 29.872 139.953 29.968 140.377 29.968ZM147.453 31.072C146.789 31.072 146.233 30.936 145.785 30.664C145.345 30.392 145.013 30.016 144.789 29.536C144.573 29.048 144.465 28.488 144.465 27.856C144.465 27.232 144.577 26.676 144.801 26.188C145.033 25.692 145.377 25.304 145.833 25.024C146.297 24.736 146.869 24.592 147.549 24.592C148.013 24.592 148.425 24.672 148.785 24.832C149.145 24.984 149.437 25.212 149.661 25.516C149.893 25.812 150.045 26.184 150.117 26.632H148.881C148.777 26.304 148.601 26.068 148.353 25.924C148.113 25.78 147.829 25.708 147.501 25.708C147.061 25.708 146.709 25.812 146.445 26.02C146.181 26.228 145.989 26.496 145.869 26.824C145.757 27.152 145.701 27.496 145.701 27.856C145.701 28.232 145.761 28.58 145.881 28.9C146.009 29.22 146.201 29.48 146.457 29.68C146.721 29.872 147.065 29.968 147.489 29.968C147.809 29.968 148.105 29.9 148.377 29.764C148.649 29.62 148.825 29.38 148.905 29.044H150.177C150.105 29.508 149.937 29.892 149.673 30.196C149.409 30.492 149.081 30.712 148.689 30.856C148.305 31 147.893 31.072 147.453 31.072ZM151.373 31V24.676H152.957L154.901 27.7L156.809 24.676H158.369V31H157.133V26.176L155.057 29.488H154.697L152.609 26.164V31H151.373ZM162.701 31.072C162.045 31.072 161.489 30.94 161.033 30.676C160.577 30.404 160.229 30.024 159.989 29.536C159.757 29.048 159.641 28.484 159.641 27.844C159.641 27.196 159.757 26.632 159.989 26.152C160.229 25.664 160.577 25.284 161.033 25.012C161.489 24.732 162.049 24.592 162.713 24.592C163.369 24.592 163.925 24.732 164.381 25.012C164.837 25.284 165.181 25.664 165.413 26.152C165.645 26.64 165.761 27.208 165.761 27.856C165.761 28.488 165.641 29.048 165.401 29.536C165.169 30.024 164.825 30.404 164.369 30.676C163.921 30.94 163.365 31.072 162.701 31.072ZM162.701 29.968C163.133 29.968 163.481 29.872 163.745 29.68C164.017 29.488 164.217 29.232 164.345 28.912C164.473 28.592 164.537 28.24 164.537 27.856C164.537 27.472 164.473 27.12 164.345 26.8C164.217 26.472 164.017 26.212 163.745 26.02C163.481 25.82 163.133 25.72 162.701 25.72C162.277 25.72 161.929 25.82 161.657 26.02C161.385 26.212 161.185 26.468 161.057 26.788C160.937 27.108 160.877 27.464 160.877 27.856C160.877 28.24 160.937 28.592 161.057 28.912C161.185 29.232 161.385 29.488 161.657 29.68C161.929 29.872 162.277 29.968 162.701 29.968ZM168.517 31V25.78H166.381V24.676H171.889V25.78H169.753V31H168.517ZM172.748 33.304V24.676H173.924L173.984 25.588C174.208 25.252 174.504 25.004 174.872 24.844C175.24 24.676 175.632 24.592 176.048 24.592C176.672 24.592 177.188 24.736 177.596 25.024C178.004 25.312 178.308 25.7 178.508 26.188C178.708 26.676 178.808 27.228 178.808 27.844C178.808 28.46 178.704 29.012 178.496 29.5C178.296 29.988 177.984 30.372 177.56 30.652C177.144 30.932 176.612 31.072 175.964 31.072C175.652 31.072 175.372 31.04 175.124 30.976C174.876 30.912 174.66 30.82 174.476 30.7C174.292 30.572 174.128 30.436 173.984 30.292V33.304H172.748ZM175.82 29.968C176.252 29.968 176.596 29.872 176.852 29.68C177.108 29.48 177.292 29.22 177.404 28.9C177.516 28.58 177.572 28.232 177.572 27.856C177.572 27.464 177.512 27.108 177.392 26.788C177.28 26.46 177.092 26.2 176.828 26.008C176.572 25.808 176.228 25.708 175.796 25.708C175.404 25.708 175.072 25.808 174.8 26.008C174.528 26.2 174.32 26.46 174.176 26.788C174.04 27.116 173.972 27.472 173.972 27.856C173.972 28.248 174.036 28.608 174.164 28.936C174.3 29.256 174.504 29.508 174.776 29.692C175.056 29.876 175.404 29.968 175.82 29.968ZM182.821 31.072C182.157 31.072 181.601 30.936 181.153 30.664C180.705 30.392 180.365 30.016 180.133 29.536C179.909 29.048 179.797 28.488 179.797 27.856C179.797 27.216 179.913 26.652 180.145 26.164C180.385 25.676 180.729 25.292 181.177 25.012C181.633 24.732 182.181 24.592 182.821 24.592C183.293 24.592 183.705 24.68 184.057 24.856C184.417 25.024 184.717 25.26 184.957 25.564C185.205 25.86 185.385 26.196 185.497 26.572C185.609 26.948 185.661 27.344 185.653 27.76C185.645 27.848 185.637 27.932 185.629 28.012C185.629 28.092 185.625 28.176 185.617 28.264H181.045C181.069 28.584 181.149 28.876 181.285 29.14C181.429 29.404 181.629 29.616 181.885 29.776C182.141 29.928 182.457 30.004 182.833 30.004C183.041 30.004 183.241 29.98 183.433 29.932C183.633 29.876 183.809 29.792 183.961 29.68C184.121 29.56 184.233 29.408 184.297 29.224H185.545C185.441 29.648 185.253 30 184.981 30.28C184.717 30.552 184.393 30.752 184.009 30.88C183.633 31.008 183.237 31.072 182.821 31.072ZM181.069 27.28H184.429C184.421 26.968 184.349 26.692 184.213 26.452C184.077 26.204 183.889 26.012 183.649 25.876C183.409 25.732 183.121 25.66 182.785 25.66C182.417 25.66 182.109 25.736 181.861 25.888C181.621 26.04 181.433 26.24 181.297 26.488C181.169 26.728 181.093 26.992 181.069 27.28ZM188.416 31V25.78H186.28V24.676H191.788V25.78H189.652V31H188.416ZM192.647 31V24.676H193.907V26.956H195.263C195.639 26.956 195.975 26.988 196.271 27.052C196.575 27.116 196.835 27.224 197.051 27.376C197.275 27.52 197.447 27.72 197.567 27.976C197.687 28.224 197.747 28.54 197.747 28.924C197.747 29.284 197.683 29.596 197.555 29.86C197.427 30.124 197.247 30.34 197.015 30.508C196.791 30.676 196.523 30.8 196.211 30.88C195.907 30.96 195.575 31 195.215 31H192.647ZM193.907 29.92H194.591C194.839 29.92 195.075 29.912 195.299 29.896C195.523 29.88 195.727 29.844 195.911 29.788C196.095 29.724 196.239 29.628 196.343 29.5C196.455 29.364 196.511 29.184 196.511 28.96C196.511 28.736 196.467 28.564 196.379 28.444C196.291 28.324 196.175 28.232 196.031 28.168C195.895 28.104 195.743 28.064 195.575 28.048C195.415 28.032 195.247 28.024 195.071 28.024H193.907V29.92ZM202.279 31V24.676H204.943C205.215 24.676 205.487 24.696 205.759 24.736C206.039 24.768 206.291 24.84 206.515 24.952C206.747 25.064 206.931 25.228 207.067 25.444C207.211 25.652 207.283 25.928 207.283 26.272C207.283 26.48 207.251 26.668 207.187 26.836C207.123 27.004 207.031 27.152 206.911 27.28C206.799 27.4 206.655 27.504 206.479 27.592C206.879 27.696 207.167 27.884 207.343 28.156C207.527 28.42 207.619 28.736 207.619 29.104C207.619 29.44 207.555 29.728 207.427 29.968C207.299 30.208 207.127 30.404 206.911 30.556C206.695 30.708 206.451 30.82 206.179 30.892C205.907 30.964 205.627 31 205.339 31H202.279ZM203.539 29.92H205.123C205.347 29.92 205.551 29.9 205.735 29.86C205.927 29.812 206.079 29.728 206.191 29.608C206.311 29.488 206.371 29.324 206.371 29.116C206.371 28.9 206.323 28.736 206.227 28.624C206.131 28.504 206.007 28.42 205.855 28.372C205.703 28.324 205.539 28.296 205.363 28.288C205.187 28.272 205.015 28.264 204.847 28.264H203.539V29.92ZM203.539 27.328H204.475C204.619 27.328 204.783 27.32 204.967 27.304C205.151 27.28 205.327 27.24 205.495 27.184C205.671 27.128 205.811 27.048 205.915 26.944C206.027 26.832 206.083 26.68 206.083 26.488C206.083 26.232 206.011 26.056 205.867 25.96C205.731 25.856 205.567 25.796 205.375 25.78C205.183 25.756 204.995 25.744 204.811 25.744H203.539V27.328ZM211.66 31.072C210.996 31.072 210.44 30.936 209.992 30.664C209.552 30.392 209.22 30.016 208.996 29.536C208.78 29.048 208.672 28.488 208.672 27.856C208.672 27.232 208.784 26.676 209.008 26.188C209.24 25.692 209.584 25.304 210.04 25.024C210.504 24.736 211.076 24.592 211.756 24.592C212.22 24.592 212.632 24.672 212.992 24.832C213.352 24.984 213.644 25.212 213.868 25.516C214.1 25.812 214.252 26.184 214.324 26.632H213.088C212.984 26.304 212.808 26.068 212.56 25.924C212.32 25.78 212.036 25.708 211.708 25.708C211.268 25.708 210.916 25.812 210.652 26.02C210.388 26.228 210.196 26.496 210.076 26.824C209.964 27.152 209.908 27.496 209.908 27.856C209.908 28.232 209.968 28.58 210.088 28.9C210.216 29.22 210.408 29.48 210.664 29.68C210.928 29.872 211.272 29.968 211.696 29.968C212.016 29.968 212.312 29.9 212.584 29.764C212.856 29.62 213.032 29.38 213.112 29.044H214.384C214.312 29.508 214.144 29.892 213.88 30.196C213.616 30.492 213.288 30.712 212.896 30.856C212.512 31 212.1 31.072 211.66 31.072ZM218.364 31.072C217.7 31.072 217.144 30.936 216.696 30.664C216.248 30.392 215.908 30.016 215.676 29.536C215.452 29.048 215.34 28.488 215.34 27.856C215.34 27.216 215.456 26.652 215.688 26.164C215.928 25.676 216.272 25.292 216.72 25.012C217.176 24.732 217.724 24.592 218.364 24.592C218.836 24.592 219.248 24.68 219.6 24.856C219.96 25.024 220.26 25.26 220.5 25.564C220.748 25.86 220.928 26.196 221.04 26.572C221.152 26.948 221.204 27.344 221.196 27.76C221.188 27.848 221.18 27.932 221.172 28.012C221.172 28.092 221.168 28.176 221.16 28.264H216.588C216.612 28.584 216.692 28.876 216.828 29.14C216.972 29.404 217.172 29.616 217.428 29.776C217.684 29.928 218 30.004 218.376 30.004C218.584 30.004 218.784 29.98 218.976 29.932C219.176 29.876 219.352 29.792 219.504 29.68C219.664 29.56 219.776 29.408 219.84 29.224H221.088C220.984 29.648 220.796 30 220.524 30.28C220.26 30.552 219.936 30.752 219.552 30.88C219.176 31.008 218.78 31.072 218.364 31.072ZM216.612 27.28H219.972C219.964 26.968 219.892 26.692 219.756 26.452C219.62 26.204 219.432 26.012 219.192 25.876C218.952 25.732 218.664 25.66 218.328 25.66C217.96 25.66 217.652 25.736 217.404 25.888C217.164 26.04 216.976 26.24 216.84 26.488C216.712 26.728 216.636 26.992 216.612 27.28Z" fill="white"/>
<defs>
<linearGradient id="paint0_linear_170_71" x1="9" y1="52.5" x2="344.5" y2="5.5" gradientUnits="userSpaceOnUse">
<stop stop-color="#333333"/>
<stop offset="0.5" stop-color="#8F8F8F"/>
<stop offset="1" stop-color="#333333"/>
</linearGradient>
</defs>
</svg>
