<svg width="350" height="55" viewBox="0 0 350 55" fill="none" xmlns="http://www.w3.org/2000/svg">
<rect width="350" height="55" rx="20" fill="url(#paint0_linear_737_77)"/>
<path d="M114.84 31.096C114.416 31.096 114.004 31.052 113.604 30.964C113.212 30.868 112.86 30.724 112.548 30.532C112.236 30.34 111.984 30.092 111.792 29.788C111.6 29.476 111.496 29.1 111.48 28.66H112.728C112.752 28.892 112.828 29.088 112.956 29.248C113.084 29.408 113.248 29.54 113.448 29.644C113.648 29.74 113.868 29.812 114.108 29.86C114.348 29.908 114.592 29.932 114.84 29.932C115.032 29.932 115.24 29.916 115.464 29.884C115.696 29.852 115.912 29.788 116.112 29.692C116.312 29.596 116.476 29.456 116.604 29.272C116.732 29.088 116.796 28.848 116.796 28.552C116.796 28.272 116.748 28.048 116.652 27.88C116.556 27.704 116.42 27.572 116.244 27.484C116.068 27.388 115.86 27.324 115.62 27.292C115.388 27.26 115.132 27.244 114.852 27.244H113.76V26.14H114.468C114.732 26.14 114.984 26.116 115.224 26.068C115.472 26.02 115.688 25.948 115.872 25.852C116.056 25.748 116.204 25.612 116.316 25.444C116.428 25.276 116.484 25.076 116.484 24.844C116.484 24.492 116.396 24.228 116.22 24.052C116.044 23.876 115.824 23.752 115.56 23.68C115.296 23.608 115.032 23.572 114.768 23.572C114.456 23.572 114.16 23.616 113.88 23.704C113.608 23.792 113.384 23.928 113.208 24.112C113.04 24.288 112.956 24.512 112.956 24.784H111.696C111.704 24.4 111.78 24.072 111.924 23.8C112.068 23.528 112.256 23.304 112.488 23.128C112.728 22.944 112.988 22.8 113.268 22.696C113.548 22.592 113.828 22.52 114.108 22.48C114.388 22.44 114.644 22.42 114.876 22.42C115.236 22.42 115.584 22.46 115.92 22.54C116.256 22.612 116.56 22.736 116.832 22.912C117.112 23.088 117.332 23.32 117.492 23.608C117.652 23.896 117.732 24.244 117.732 24.652C117.732 24.852 117.704 25.064 117.648 25.288C117.592 25.504 117.48 25.716 117.312 25.924C117.152 26.124 116.908 26.312 116.58 26.488C117.068 26.6 117.44 26.848 117.696 27.232C117.96 27.616 118.092 28.06 118.092 28.564C118.084 29.02 117.988 29.408 117.804 29.728C117.62 30.048 117.376 30.308 117.072 30.508C116.768 30.708 116.424 30.856 116.04 30.952C115.664 31.048 115.264 31.096 114.84 31.096ZM121.377 31.072C121.097 31.072 120.825 31.036 120.561 30.964C120.297 30.884 120.061 30.768 119.853 30.616C119.645 30.456 119.477 30.26 119.349 30.028C119.229 29.788 119.169 29.508 119.169 29.188C119.169 28.804 119.241 28.488 119.385 28.24C119.537 27.984 119.737 27.788 119.985 27.652C120.233 27.508 120.517 27.408 120.837 27.352C121.165 27.288 121.505 27.256 121.857 27.256H123.405C123.405 26.944 123.357 26.672 123.261 26.44C123.165 26.2 123.013 26.016 122.805 25.888C122.605 25.752 122.337 25.684 122.001 25.684C121.801 25.684 121.609 25.708 121.425 25.756C121.249 25.796 121.097 25.864 120.969 25.96C120.841 26.056 120.753 26.184 120.705 26.344H119.409C119.457 26.04 119.565 25.78 119.733 25.564C119.901 25.34 120.109 25.156 120.357 25.012C120.605 24.868 120.869 24.764 121.149 24.7C121.437 24.628 121.729 24.592 122.025 24.592C122.633 24.592 123.125 24.712 123.501 24.952C123.885 25.192 124.165 25.536 124.341 25.984C124.517 26.432 124.605 26.964 124.605 27.58V31H123.537L123.489 30.22C123.305 30.452 123.093 30.632 122.853 30.76C122.621 30.88 122.377 30.96 122.121 31C121.865 31.048 121.617 31.072 121.377 31.072ZM121.593 30.028C121.961 30.028 122.281 29.968 122.553 29.848C122.825 29.72 123.033 29.54 123.177 29.308C123.329 29.068 123.405 28.784 123.405 28.456V28.204H122.277C122.045 28.204 121.817 28.212 121.593 28.228C121.369 28.236 121.165 28.268 120.981 28.324C120.805 28.372 120.665 28.456 120.561 28.576C120.457 28.696 120.405 28.868 120.405 29.092C120.405 29.308 120.461 29.484 120.573 29.62C120.685 29.756 120.833 29.86 121.017 29.932C121.201 29.996 121.393 30.028 121.593 30.028ZM128.884 31.072C128.468 31.072 128.096 31.012 127.768 30.892C127.44 30.772 127.16 30.604 126.928 30.388C126.696 30.164 126.504 29.904 126.352 29.608C126.2 29.304 126.084 28.976 126.004 28.624C125.932 28.264 125.896 27.884 125.896 27.484C125.896 26.876 125.916 26.312 125.956 25.792C125.996 25.272 126.092 24.808 126.244 24.4C126.396 23.992 126.636 23.652 126.964 23.38C127.292 23.108 127.74 22.908 128.308 22.78C128.628 22.708 128.948 22.648 129.268 22.6C129.596 22.552 129.932 22.508 130.276 22.468C130.468 22.436 130.636 22.412 130.78 22.396C130.924 22.372 131.056 22.352 131.176 22.336C131.304 22.312 131.42 22.292 131.524 22.276V23.464C131.444 23.496 131.352 23.52 131.248 23.536C131.152 23.552 131.052 23.568 130.948 23.584C130.844 23.6 130.74 23.612 130.636 23.62C130.532 23.628 130.428 23.64 130.324 23.656C130.22 23.664 130.12 23.676 130.024 23.692C129.72 23.716 129.404 23.744 129.076 23.776C128.756 23.808 128.452 23.876 128.164 23.98C127.884 24.076 127.652 24.26 127.468 24.532C127.38 24.66 127.304 24.812 127.24 24.988C127.176 25.164 127.128 25.348 127.096 25.54C127.072 25.732 127.056 25.916 127.048 26.092C127.216 25.852 127.416 25.66 127.648 25.516C127.888 25.372 128.14 25.268 128.404 25.204C128.668 25.14 128.92 25.108 129.16 25.108C129.736 25.108 130.224 25.232 130.624 25.48C131.024 25.72 131.328 26.06 131.536 26.5C131.744 26.932 131.848 27.432 131.848 28C131.848 28.592 131.728 29.12 131.488 29.584C131.256 30.048 130.916 30.412 130.468 30.676C130.028 30.94 129.5 31.072 128.884 31.072ZM128.896 29.98C129.272 29.98 129.584 29.892 129.832 29.716C130.088 29.54 130.28 29.304 130.408 29.008C130.544 28.712 130.612 28.392 130.612 28.048C130.612 27.712 130.544 27.408 130.408 27.136C130.28 26.856 130.092 26.636 129.844 26.476C129.596 26.316 129.288 26.236 128.92 26.236C128.56 26.236 128.248 26.32 127.984 26.488C127.728 26.656 127.532 26.88 127.396 27.16C127.26 27.44 127.192 27.744 127.192 28.072C127.192 28.4 127.256 28.712 127.384 29.008C127.512 29.304 127.7 29.54 127.948 29.716C128.196 29.892 128.512 29.98 128.896 29.98ZM133.119 33.304V24.676H134.295L134.355 25.588C134.579 25.252 134.875 25.004 135.243 24.844C135.611 24.676 136.003 24.592 136.419 24.592C137.043 24.592 137.559 24.736 137.967 25.024C138.375 25.312 138.679 25.7 138.879 26.188C139.079 26.676 139.179 27.228 139.179 27.844C139.179 28.46 139.075 29.012 138.867 29.5C138.667 29.988 138.355 30.372 137.931 30.652C137.515 30.932 136.983 31.072 136.335 31.072C136.023 31.072 135.743 31.04 135.495 30.976C135.247 30.912 135.031 30.82 134.847 30.7C134.663 30.572 134.499 30.436 134.355 30.292V33.304H133.119ZM136.191 29.968C136.623 29.968 136.967 29.872 137.223 29.68C137.479 29.48 137.663 29.22 137.775 28.9C137.887 28.58 137.943 28.232 137.943 27.856C137.943 27.464 137.883 27.108 137.763 26.788C137.651 26.46 137.463 26.2 137.199 26.008C136.943 25.808 136.599 25.708 136.167 25.708C135.775 25.708 135.443 25.808 135.171 26.008C134.899 26.2 134.691 26.46 134.547 26.788C134.411 27.116 134.343 27.472 134.343 27.856C134.343 28.248 134.407 28.608 134.535 28.936C134.671 29.256 134.875 29.508 135.147 29.692C135.427 29.876 135.775 29.968 136.191 29.968ZM143.228 31.072C142.572 31.072 142.016 30.94 141.56 30.676C141.104 30.404 140.756 30.024 140.516 29.536C140.284 29.048 140.168 28.484 140.168 27.844C140.168 27.196 140.284 26.632 140.516 26.152C140.756 25.664 141.104 25.284 141.56 25.012C142.016 24.732 142.576 24.592 143.24 24.592C143.896 24.592 144.452 24.732 144.908 25.012C145.364 25.284 145.708 25.664 145.94 26.152C146.172 26.64 146.288 27.208 146.288 27.856C146.288 28.488 146.168 29.048 145.928 29.536C145.696 30.024 145.352 30.404 144.896 30.676C144.448 30.94 143.892 31.072 143.228 31.072ZM143.228 29.968C143.66 29.968 144.008 29.872 144.272 29.68C144.544 29.488 144.744 29.232 144.872 28.912C145 28.592 145.064 28.24 145.064 27.856C145.064 27.472 145 27.12 144.872 26.8C144.744 26.472 144.544 26.212 144.272 26.02C144.008 25.82 143.66 25.72 143.228 25.72C142.804 25.72 142.456 25.82 142.184 26.02C141.912 26.212 141.712 26.468 141.584 26.788C141.464 27.108 141.404 27.464 141.404 27.856C141.404 28.24 141.464 28.592 141.584 28.912C141.712 29.232 141.912 29.488 142.184 29.68C142.456 29.872 142.804 29.968 143.228 29.968ZM147.557 31V24.676H148.793V27.34H151.709V24.676H152.945V31H151.709V28.432H148.793V31H147.557ZM154.459 31V24.676H155.695V29.152C155.751 29.056 155.823 28.952 155.911 28.84C155.999 28.72 156.067 28.624 156.115 28.552L159.007 24.676H160.159V31H158.923V26.548C158.859 26.652 158.791 26.756 158.719 26.86C158.647 26.956 158.579 27.044 158.515 27.124L155.623 31H154.459ZM161.666 33.304V24.676H162.842L162.902 25.588C163.126 25.252 163.422 25.004 163.79 24.844C164.158 24.676 164.55 24.592 164.966 24.592C165.59 24.592 166.106 24.736 166.514 25.024C166.922 25.312 167.226 25.7 167.426 26.188C167.626 26.676 167.726 27.228 167.726 27.844C167.726 28.46 167.622 29.012 167.414 29.5C167.214 29.988 166.902 30.372 166.478 30.652C166.062 30.932 165.53 31.072 164.882 31.072C164.57 31.072 164.29 31.04 164.042 30.976C163.794 30.912 163.578 30.82 163.394 30.7C163.21 30.572 163.046 30.436 162.902 30.292V33.304H161.666ZM164.738 29.968C165.17 29.968 165.514 29.872 165.77 29.68C166.026 29.48 166.21 29.22 166.322 28.9C166.434 28.58 166.49 28.232 166.49 27.856C166.49 27.464 166.43 27.108 166.31 26.788C166.198 26.46 166.01 26.2 165.746 26.008C165.49 25.808 165.146 25.708 164.714 25.708C164.322 25.708 163.99 25.808 163.718 26.008C163.446 26.2 163.238 26.46 163.094 26.788C162.958 27.116 162.89 27.472 162.89 27.856C162.89 28.248 162.954 28.608 163.082 28.936C163.218 29.256 163.422 29.508 163.694 29.692C163.974 29.876 164.322 29.968 164.738 29.968ZM171.775 31.072C171.119 31.072 170.563 30.94 170.107 30.676C169.651 30.404 169.303 30.024 169.063 29.536C168.831 29.048 168.715 28.484 168.715 27.844C168.715 27.196 168.831 26.632 169.063 26.152C169.303 25.664 169.651 25.284 170.107 25.012C170.563 24.732 171.123 24.592 171.787 24.592C172.443 24.592 172.999 24.732 173.455 25.012C173.911 25.284 174.255 25.664 174.487 26.152C174.719 26.64 174.835 27.208 174.835 27.856C174.835 28.488 174.715 29.048 174.475 29.536C174.243 30.024 173.899 30.404 173.443 30.676C172.995 30.94 172.439 31.072 171.775 31.072ZM171.775 29.968C172.207 29.968 172.555 29.872 172.819 29.68C173.091 29.488 173.291 29.232 173.419 28.912C173.547 28.592 173.611 28.24 173.611 27.856C173.611 27.472 173.547 27.12 173.419 26.8C173.291 26.472 173.091 26.212 172.819 26.02C172.555 25.82 172.207 25.72 171.775 25.72C171.351 25.72 171.003 25.82 170.731 26.02C170.459 26.212 170.259 26.468 170.131 26.788C170.011 27.108 169.951 27.464 169.951 27.856C169.951 28.24 170.011 28.592 170.131 28.912C170.259 29.232 170.459 29.488 170.731 29.68C171.003 29.872 171.351 29.968 171.775 29.968ZM176.104 31V24.676H178.768C179.04 24.676 179.312 24.696 179.584 24.736C179.864 24.768 180.116 24.84 180.34 24.952C180.572 25.064 180.756 25.228 180.892 25.444C181.036 25.652 181.108 25.928 181.108 26.272C181.108 26.48 181.076 26.668 181.012 26.836C180.948 27.004 180.856 27.152 180.736 27.28C180.624 27.4 180.48 27.504 180.304 27.592C180.704 27.696 180.992 27.884 181.168 28.156C181.352 28.42 181.444 28.736 181.444 29.104C181.444 29.44 181.38 29.728 181.252 29.968C181.124 30.208 180.952 30.404 180.736 30.556C180.52 30.708 180.276 30.82 180.004 30.892C179.732 30.964 179.452 31 179.164 31H176.104ZM177.364 29.92H178.948C179.172 29.92 179.376 29.9 179.56 29.86C179.752 29.812 179.904 29.728 180.016 29.608C180.136 29.488 180.196 29.324 180.196 29.116C180.196 28.9 180.148 28.736 180.052 28.624C179.956 28.504 179.832 28.42 179.68 28.372C179.528 28.324 179.364 28.296 179.188 28.288C179.012 28.272 178.84 28.264 178.672 28.264H177.364V29.92ZM177.364 27.328H178.3C178.444 27.328 178.608 27.32 178.792 27.304C178.976 27.28 179.152 27.24 179.32 27.184C179.496 27.128 179.636 27.048 179.74 26.944C179.852 26.832 179.908 26.68 179.908 26.488C179.908 26.232 179.836 26.056 179.692 25.96C179.556 25.856 179.392 25.796 179.2 25.78C179.008 25.756 178.82 25.744 178.636 25.744H177.364V27.328ZM184.728 31.072C184.448 31.072 184.176 31.036 183.912 30.964C183.648 30.884 183.412 30.768 183.204 30.616C182.996 30.456 182.828 30.26 182.7 30.028C182.58 29.788 182.52 29.508 182.52 29.188C182.52 28.804 182.592 28.488 182.736 28.24C182.888 27.984 183.088 27.788 183.336 27.652C183.584 27.508 183.868 27.408 184.188 27.352C184.516 27.288 184.856 27.256 185.208 27.256H186.756C186.756 26.944 186.708 26.672 186.612 26.44C186.516 26.2 186.364 26.016 186.156 25.888C185.956 25.752 185.688 25.684 185.352 25.684C185.152 25.684 184.96 25.708 184.776 25.756C184.6 25.796 184.448 25.864 184.32 25.96C184.192 26.056 184.104 26.184 184.056 26.344H182.76C182.808 26.04 182.916 25.78 183.084 25.564C183.252 25.34 183.46 25.156 183.708 25.012C183.956 24.868 184.22 24.764 184.5 24.7C184.788 24.628 185.08 24.592 185.376 24.592C185.984 24.592 186.476 24.712 186.852 24.952C187.236 25.192 187.516 25.536 187.692 25.984C187.868 26.432 187.956 26.964 187.956 27.58V31H186.888L186.84 30.22C186.656 30.452 186.444 30.632 186.204 30.76C185.972 30.88 185.728 30.96 185.472 31C185.216 31.048 184.968 31.072 184.728 31.072ZM184.944 30.028C185.312 30.028 185.632 29.968 185.904 29.848C186.176 29.72 186.384 29.54 186.528 29.308C186.68 29.068 186.756 28.784 186.756 28.456V28.204H185.628C185.396 28.204 185.168 28.212 184.944 28.228C184.72 28.236 184.516 28.268 184.332 28.324C184.156 28.372 184.016 28.456 183.912 28.576C183.808 28.696 183.756 28.868 183.756 29.092C183.756 29.308 183.812 29.484 183.924 29.62C184.036 29.756 184.184 29.86 184.368 29.932C184.552 29.996 184.744 30.028 184.944 30.028ZM190.928 31V25.78H188.792V24.676H194.3V25.78H192.164V31H190.928ZM195.158 31V24.676H196.418V26.956H197.774C198.15 26.956 198.486 26.988 198.782 27.052C199.086 27.116 199.346 27.224 199.562 27.376C199.786 27.52 199.958 27.72 200.078 27.976C200.198 28.224 200.258 28.54 200.258 28.924C200.258 29.284 200.194 29.596 200.066 29.86C199.938 30.124 199.758 30.34 199.526 30.508C199.302 30.676 199.034 30.8 198.722 30.88C198.418 30.96 198.086 31 197.726 31H195.158ZM196.418 29.92H197.102C197.35 29.92 197.586 29.912 197.81 29.896C198.034 29.88 198.238 29.844 198.422 29.788C198.606 29.724 198.75 29.628 198.854 29.5C198.966 29.364 199.022 29.184 199.022 28.96C199.022 28.736 198.978 28.564 198.89 28.444C198.802 28.324 198.686 28.232 198.542 28.168C198.406 28.104 198.254 28.064 198.086 28.048C197.926 28.032 197.758 28.024 197.582 28.024H196.418V29.92ZM204.791 31V24.676H206.375L208.319 27.7L210.227 24.676H211.787V31H210.551V26.176L208.475 29.488H208.115L206.027 26.164V31H204.791ZM216.083 31.072C215.419 31.072 214.863 30.936 214.415 30.664C213.967 30.392 213.627 30.016 213.395 29.536C213.171 29.048 213.059 28.488 213.059 27.856C213.059 27.216 213.175 26.652 213.407 26.164C213.647 25.676 213.991 25.292 214.439 25.012C214.895 24.732 215.443 24.592 216.083 24.592C216.555 24.592 216.967 24.68 217.319 24.856C217.679 25.024 217.979 25.26 218.219 25.564C218.467 25.86 218.647 26.196 218.759 26.572C218.871 26.948 218.923 27.344 218.915 27.76C218.907 27.848 218.899 27.932 218.891 28.012C218.891 28.092 218.887 28.176 218.879 28.264H214.307C214.331 28.584 214.411 28.876 214.547 29.14C214.691 29.404 214.891 29.616 215.147 29.776C215.403 29.928 215.719 30.004 216.095 30.004C216.303 30.004 216.503 29.98 216.695 29.932C216.895 29.876 217.071 29.792 217.223 29.68C217.383 29.56 217.495 29.408 217.559 29.224H218.807C218.703 29.648 218.515 30 218.243 30.28C217.979 30.552 217.655 30.752 217.271 30.88C216.895 31.008 216.499 31.072 216.083 31.072ZM214.331 27.28H217.691C217.683 26.968 217.611 26.692 217.475 26.452C217.339 26.204 217.151 26.012 216.911 25.876C216.671 25.732 216.383 25.66 216.047 25.66C215.679 25.66 215.371 25.736 215.123 25.888C214.883 26.04 214.695 26.24 214.559 26.488C214.431 26.728 214.355 26.992 214.331 27.28ZM222.938 31.072C222.274 31.072 221.718 30.936 221.27 30.664C220.83 30.392 220.498 30.016 220.274 29.536C220.058 29.048 219.95 28.488 219.95 27.856C219.95 27.232 220.062 26.676 220.286 26.188C220.518 25.692 220.862 25.304 221.318 25.024C221.782 24.736 222.354 24.592 223.034 24.592C223.498 24.592 223.91 24.672 224.27 24.832C224.63 24.984 224.922 25.212 225.146 25.516C225.378 25.812 225.53 26.184 225.602 26.632H224.366C224.262 26.304 224.086 26.068 223.838 25.924C223.598 25.78 223.314 25.708 222.986 25.708C222.546 25.708 222.194 25.812 221.93 26.02C221.666 26.228 221.474 26.496 221.354 26.824C221.242 27.152 221.186 27.496 221.186 27.856C221.186 28.232 221.246 28.58 221.366 28.9C221.494 29.22 221.686 29.48 221.942 29.68C222.206 29.872 222.55 29.968 222.974 29.968C223.294 29.968 223.59 29.9 223.862 29.764C224.134 29.62 224.31 29.38 224.39 29.044H225.662C225.59 29.508 225.422 29.892 225.158 30.196C224.894 30.492 224.566 30.712 224.174 30.856C223.79 31 223.378 31.072 222.938 31.072ZM228.346 31V25.78H226.21V24.676H231.718V25.78H229.582V31H228.346ZM235.396 31.072C234.74 31.072 234.184 30.94 233.728 30.676C233.272 30.404 232.924 30.024 232.684 29.536C232.452 29.048 232.336 28.484 232.336 27.844C232.336 27.196 232.452 26.632 232.684 26.152C232.924 25.664 233.272 25.284 233.728 25.012C234.184 24.732 234.744 24.592 235.408 24.592C236.064 24.592 236.62 24.732 237.076 25.012C237.532 25.284 237.876 25.664 238.108 26.152C238.34 26.64 238.456 27.208 238.456 27.856C238.456 28.488 238.336 29.048 238.096 29.536C237.864 30.024 237.52 30.404 237.064 30.676C236.616 30.94 236.06 31.072 235.396 31.072ZM235.396 29.968C235.828 29.968 236.176 29.872 236.44 29.68C236.712 29.488 236.912 29.232 237.04 28.912C237.168 28.592 237.232 28.24 237.232 27.856C237.232 27.472 237.168 27.12 237.04 26.8C236.912 26.472 236.712 26.212 236.44 26.02C236.176 25.82 235.828 25.72 235.396 25.72C234.972 25.72 234.624 25.82 234.352 26.02C234.08 26.212 233.88 26.468 233.752 26.788C233.632 27.108 233.572 27.464 233.572 27.856C233.572 28.24 233.632 28.592 233.752 28.912C233.88 29.232 234.08 29.488 234.352 29.68C234.624 29.872 234.972 29.968 235.396 29.968Z" fill="white"/>
<defs>
<linearGradient id="paint0_linear_737_77" x1="9" y1="52.5" x2="344.5" y2="5.5" gradientUnits="userSpaceOnUse">
<stop stop-color="#333333"/>
<stop offset="0.5" stop-color="#8F8F8F"/>
<stop offset="1" stop-color="#333333"/>
</linearGradient>
</defs>
</svg>
