<svg width="350" height="55" viewBox="0 0 350 55" fill="none" xmlns="http://www.w3.org/2000/svg">
<rect width="350" height="55" rx="20" fill="url(#paint0_linear_515_53)"/>
<path d="M157.496 31V22.516H163.424V23.68H158.768V25.948H160.664C161.08 25.948 161.476 25.98 161.852 26.044C162.236 26.108 162.576 26.224 162.872 26.392C163.168 26.56 163.4 26.8 163.568 27.112C163.744 27.424 163.832 27.828 163.832 28.324C163.832 28.836 163.744 29.264 163.568 29.608C163.4 29.952 163.164 30.228 162.86 30.436C162.564 30.636 162.216 30.78 161.816 30.868C161.416 30.956 160.988 31 160.532 31H157.496ZM158.768 29.836H160.46C160.716 29.836 160.968 29.82 161.216 29.788C161.472 29.748 161.7 29.68 161.9 29.584C162.1 29.488 162.256 29.348 162.368 29.164C162.488 28.972 162.548 28.72 162.548 28.408C162.548 28.104 162.492 27.864 162.38 27.688C162.276 27.504 162.124 27.372 161.924 27.292C161.732 27.204 161.516 27.148 161.276 27.124C161.036 27.092 160.784 27.076 160.52 27.076H158.768V29.836ZM165.201 33.304V24.676H166.377L166.437 25.588C166.661 25.252 166.957 25.004 167.325 24.844C167.693 24.676 168.085 24.592 168.501 24.592C169.125 24.592 169.641 24.736 170.049 25.024C170.457 25.312 170.761 25.7 170.961 26.188C171.161 26.676 171.261 27.228 171.261 27.844C171.261 28.46 171.157 29.012 170.949 29.5C170.749 29.988 170.437 30.372 170.013 30.652C169.597 30.932 169.065 31.072 168.417 31.072C168.105 31.072 167.825 31.04 167.577 30.976C167.329 30.912 167.113 30.82 166.929 30.7C166.745 30.572 166.581 30.436 166.437 30.292V33.304H165.201ZM168.273 29.968C168.705 29.968 169.049 29.872 169.305 29.68C169.561 29.48 169.745 29.22 169.857 28.9C169.969 28.58 170.025 28.232 170.025 27.856C170.025 27.464 169.965 27.108 169.845 26.788C169.733 26.46 169.545 26.2 169.281 26.008C169.025 25.808 168.681 25.708 168.249 25.708C167.857 25.708 167.525 25.808 167.253 26.008C166.981 26.2 166.773 26.46 166.629 26.788C166.493 27.116 166.425 27.472 166.425 27.856C166.425 28.248 166.489 28.608 166.617 28.936C166.753 29.256 166.957 29.508 167.229 29.692C167.509 29.876 167.857 29.968 168.273 29.968ZM175.31 31.072C174.654 31.072 174.098 30.94 173.642 30.676C173.186 30.404 172.838 30.024 172.598 29.536C172.366 29.048 172.25 28.484 172.25 27.844C172.25 27.196 172.366 26.632 172.598 26.152C172.838 25.664 173.186 25.284 173.642 25.012C174.098 24.732 174.658 24.592 175.322 24.592C175.978 24.592 176.534 24.732 176.99 25.012C177.446 25.284 177.79 25.664 178.022 26.152C178.254 26.64 178.37 27.208 178.37 27.856C178.37 28.488 178.25 29.048 178.01 29.536C177.778 30.024 177.434 30.404 176.978 30.676C176.53 30.94 175.974 31.072 175.31 31.072ZM175.31 29.968C175.742 29.968 176.09 29.872 176.354 29.68C176.626 29.488 176.826 29.232 176.954 28.912C177.082 28.592 177.146 28.24 177.146 27.856C177.146 27.472 177.082 27.12 176.954 26.8C176.826 26.472 176.626 26.212 176.354 26.02C176.09 25.82 175.742 25.72 175.31 25.72C174.886 25.72 174.538 25.82 174.266 26.02C173.994 26.212 173.794 26.468 173.666 26.788C173.546 27.108 173.486 27.464 173.486 27.856C173.486 28.24 173.546 28.592 173.666 28.912C173.794 29.232 173.994 29.488 174.266 29.68C174.538 29.872 174.886 29.968 175.31 29.968ZM179.639 31V24.676H182.303C182.575 24.676 182.847 24.696 183.119 24.736C183.399 24.768 183.651 24.84 183.875 24.952C184.107 25.064 184.291 25.228 184.427 25.444C184.571 25.652 184.643 25.928 184.643 26.272C184.643 26.48 184.611 26.668 184.547 26.836C184.483 27.004 184.391 27.152 184.271 27.28C184.159 27.4 184.015 27.504 183.839 27.592C184.239 27.696 184.527 27.884 184.703 28.156C184.887 28.42 184.979 28.736 184.979 29.104C184.979 29.44 184.915 29.728 184.787 29.968C184.659 30.208 184.487 30.404 184.271 30.556C184.055 30.708 183.811 30.82 183.539 30.892C183.267 30.964 182.987 31 182.699 31H179.639ZM180.899 29.92H182.483C182.707 29.92 182.911 29.9 183.095 29.86C183.287 29.812 183.439 29.728 183.551 29.608C183.671 29.488 183.731 29.324 183.731 29.116C183.731 28.9 183.683 28.736 183.587 28.624C183.491 28.504 183.367 28.42 183.215 28.372C183.063 28.324 182.899 28.296 182.723 28.288C182.547 28.272 182.375 28.264 182.207 28.264H180.899V29.92ZM180.899 27.328H181.835C181.979 27.328 182.143 27.32 182.327 27.304C182.511 27.28 182.687 27.24 182.855 27.184C183.031 27.128 183.171 27.048 183.275 26.944C183.387 26.832 183.443 26.68 183.443 26.488C183.443 26.232 183.371 26.056 183.227 25.96C183.091 25.856 182.927 25.796 182.735 25.78C182.543 25.756 182.355 25.744 182.171 25.744H180.899V27.328ZM186.272 31V24.676H187.508V29.152C187.564 29.056 187.636 28.952 187.724 28.84C187.812 28.72 187.88 28.624 187.928 28.552L190.82 24.676H191.972V31H190.736V26.548C190.672 26.652 190.604 26.756 190.532 26.86C190.46 26.956 190.392 27.044 190.328 27.124L187.436 31H186.272Z" fill="white"/>
<defs>
<linearGradient id="paint0_linear_515_53" x1="9" y1="52.5" x2="344.5" y2="5.5" gradientUnits="userSpaceOnUse">
<stop stop-color="#333333"/>
<stop offset="0.5" stop-color="#8F8F8F"/>
<stop offset="1" stop-color="#333333"/>
</linearGradient>
</defs>
</svg>
