<svg width="350" height="55" viewBox="0 0 350 55" fill="none" xmlns="http://www.w3.org/2000/svg">
<rect width="350" height="55" rx="20" fill="url(#paint0_linear_422_332)"/>
<path d="M150.584 31.096C149.712 31.096 148.972 30.912 148.364 30.544C147.764 30.168 147.308 29.652 146.996 28.996C146.684 28.34 146.528 27.596 146.528 26.764C146.528 25.924 146.684 25.176 146.996 24.52C147.308 23.864 147.768 23.352 148.376 22.984C148.984 22.608 149.724 22.42 150.596 22.42C151.476 22.42 152.216 22.604 152.816 22.972C153.416 23.34 153.872 23.852 154.184 24.508C154.496 25.164 154.652 25.912 154.652 26.752C154.652 27.584 154.496 28.328 154.184 28.984C153.872 29.64 153.412 30.156 152.804 30.532C152.204 30.908 151.464 31.096 150.584 31.096ZM150.596 29.932C151.236 29.932 151.76 29.784 152.168 29.488C152.576 29.192 152.876 28.804 153.068 28.324C153.26 27.844 153.356 27.324 153.356 26.764C153.356 26.34 153.3 25.936 153.188 25.552C153.084 25.168 152.92 24.828 152.696 24.532C152.472 24.236 152.184 24.004 151.832 23.836C151.48 23.668 151.068 23.584 150.596 23.584C149.964 23.584 149.44 23.732 149.024 24.028C148.616 24.324 148.312 24.712 148.112 25.192C147.912 25.672 147.812 26.196 147.812 26.764C147.812 27.324 147.908 27.844 148.1 28.324C148.3 28.804 148.604 29.192 149.012 29.488C149.428 29.784 149.956 29.932 150.596 29.932ZM158.845 31.072C158.429 31.072 158.057 31.012 157.729 30.892C157.401 30.772 157.121 30.604 156.889 30.388C156.657 30.164 156.465 29.904 156.313 29.608C156.161 29.304 156.045 28.976 155.965 28.624C155.893 28.264 155.857 27.884 155.857 27.484C155.857 26.876 155.877 26.312 155.917 25.792C155.957 25.272 156.053 24.808 156.205 24.4C156.357 23.992 156.597 23.652 156.925 23.38C157.253 23.108 157.701 22.908 158.269 22.78C158.589 22.708 158.909 22.648 159.229 22.6C159.557 22.552 159.893 22.508 160.237 22.468C160.429 22.436 160.597 22.412 160.741 22.396C160.885 22.372 161.017 22.352 161.137 22.336C161.265 22.312 161.381 22.292 161.485 22.276V23.464C161.405 23.496 161.313 23.52 161.209 23.536C161.113 23.552 161.013 23.568 160.909 23.584C160.805 23.6 160.701 23.612 160.597 23.62C160.493 23.628 160.389 23.64 160.285 23.656C160.181 23.664 160.081 23.676 159.985 23.692C159.681 23.716 159.365 23.744 159.037 23.776C158.717 23.808 158.413 23.876 158.125 23.98C157.845 24.076 157.613 24.26 157.429 24.532C157.341 24.66 157.265 24.812 157.201 24.988C157.137 25.164 157.089 25.348 157.057 25.54C157.033 25.732 157.017 25.916 157.009 26.092C157.177 25.852 157.377 25.66 157.609 25.516C157.849 25.372 158.101 25.268 158.365 25.204C158.629 25.14 158.881 25.108 159.121 25.108C159.697 25.108 160.185 25.232 160.585 25.48C160.985 25.72 161.289 26.06 161.497 26.5C161.705 26.932 161.809 27.432 161.809 28C161.809 28.592 161.689 29.12 161.449 29.584C161.217 30.048 160.877 30.412 160.429 30.676C159.989 30.94 159.461 31.072 158.845 31.072ZM158.857 29.98C159.233 29.98 159.545 29.892 159.793 29.716C160.049 29.54 160.241 29.304 160.369 29.008C160.505 28.712 160.573 28.392 160.573 28.048C160.573 27.712 160.505 27.408 160.369 27.136C160.241 26.856 160.053 26.636 159.805 26.476C159.557 26.316 159.249 26.236 158.881 26.236C158.521 26.236 158.209 26.32 157.945 26.488C157.689 26.656 157.493 26.88 157.357 27.16C157.221 27.44 157.153 27.744 157.153 28.072C157.153 28.4 157.217 28.712 157.345 29.008C157.473 29.304 157.661 29.54 157.909 29.716C158.157 29.892 158.473 29.98 158.857 29.98ZM163.32 33.772V32.548C163.688 32.548 163.984 32.504 164.208 32.416C164.44 32.328 164.632 32.184 164.784 31.984C164.936 31.792 165.084 31.54 165.228 31.228L162.492 24.676H163.944L165.924 29.8L167.52 24.676H168.9L167.16 29.812C167.072 30.084 166.968 30.38 166.848 30.7C166.736 31.02 166.608 31.34 166.464 31.66C166.328 31.98 166.172 32.276 165.996 32.548C165.82 32.82 165.624 33.04 165.408 33.208C165.232 33.352 165.056 33.464 164.88 33.544C164.704 33.632 164.496 33.692 164.256 33.724C164.016 33.756 163.704 33.772 163.32 33.772ZM173.408 31V28.672C173.104 28.72 172.824 28.752 172.568 28.768C172.32 28.784 172.096 28.792 171.896 28.792C171.296 28.792 170.816 28.7 170.456 28.516C170.104 28.324 169.852 28.036 169.7 27.652C169.548 27.268 169.472 26.788 169.472 26.212V24.676H170.708V26.14C170.708 26.468 170.74 26.748 170.804 26.98C170.868 27.204 170.996 27.38 171.188 27.508C171.38 27.628 171.672 27.688 172.064 27.688C172.272 27.688 172.496 27.676 172.736 27.652C172.976 27.628 173.2 27.596 173.408 27.556V24.676H174.656V31H173.408ZM178.954 31.072C178.29 31.072 177.734 30.936 177.286 30.664C176.838 30.392 176.498 30.016 176.266 29.536C176.042 29.048 175.93 28.488 175.93 27.856C175.93 27.216 176.046 26.652 176.278 26.164C176.518 25.676 176.862 25.292 177.31 25.012C177.766 24.732 178.314 24.592 178.954 24.592C179.426 24.592 179.838 24.68 180.19 24.856C180.55 25.024 180.85 25.26 181.09 25.564C181.338 25.86 181.518 26.196 181.63 26.572C181.742 26.948 181.794 27.344 181.786 27.76C181.778 27.848 181.77 27.932 181.762 28.012C181.762 28.092 181.758 28.176 181.75 28.264H177.178C177.202 28.584 177.282 28.876 177.418 29.14C177.562 29.404 177.762 29.616 178.018 29.776C178.274 29.928 178.59 30.004 178.966 30.004C179.174 30.004 179.374 29.98 179.566 29.932C179.766 29.876 179.942 29.792 180.094 29.68C180.254 29.56 180.366 29.408 180.43 29.224H181.678C181.574 29.648 181.386 30 181.114 30.28C180.85 30.552 180.526 30.752 180.142 30.88C179.766 31.008 179.37 31.072 178.954 31.072ZM177.202 27.28H180.562C180.554 26.968 180.482 26.692 180.346 26.452C180.21 26.204 180.022 26.012 179.782 25.876C179.542 25.732 179.254 25.66 178.918 25.66C178.55 25.66 178.242 25.736 177.994 25.888C177.754 26.04 177.566 26.24 177.43 26.488C177.302 26.728 177.226 26.992 177.202 27.28ZM183.061 31V24.676H184.297V27.34H187.213V24.676H188.449V31H187.213V28.432H184.297V31H183.061ZM189.963 31V24.676H191.199V29.152C191.255 29.056 191.327 28.952 191.415 28.84C191.503 28.72 191.571 28.624 191.619 28.552L194.511 24.676H195.663V31H194.427V26.548C194.363 26.652 194.295 26.756 194.223 26.86C194.151 26.956 194.083 27.044 194.019 27.124L191.127 31H189.963ZM199.954 31.072C199.29 31.072 198.734 30.936 198.286 30.664C197.838 30.392 197.498 30.016 197.266 29.536C197.042 29.048 196.93 28.488 196.93 27.856C196.93 27.216 197.046 26.652 197.278 26.164C197.518 25.676 197.862 25.292 198.31 25.012C198.766 24.732 199.314 24.592 199.954 24.592C200.426 24.592 200.838 24.68 201.19 24.856C201.55 25.024 201.85 25.26 202.09 25.564C202.338 25.86 202.518 26.196 202.63 26.572C202.742 26.948 202.794 27.344 202.786 27.76C202.778 27.848 202.77 27.932 202.762 28.012C202.762 28.092 202.758 28.176 202.75 28.264H198.178C198.202 28.584 198.282 28.876 198.418 29.14C198.562 29.404 198.762 29.616 199.018 29.776C199.274 29.928 199.59 30.004 199.966 30.004C200.174 30.004 200.374 29.98 200.566 29.932C200.766 29.876 200.942 29.792 201.094 29.68C201.254 29.56 201.366 29.408 201.43 29.224H202.678C202.574 29.648 202.386 30 202.114 30.28C201.85 30.552 201.526 30.752 201.142 30.88C200.766 31.008 200.37 31.072 199.954 31.072ZM198.202 27.28H201.562C201.554 26.968 201.482 26.692 201.346 26.452C201.21 26.204 201.022 26.012 200.782 25.876C200.542 25.732 200.254 25.66 199.918 25.66C199.55 25.66 199.242 25.736 198.994 25.888C198.754 26.04 198.566 26.24 198.43 26.488C198.302 26.728 198.226 26.992 198.202 27.28Z" fill="white"/>
<defs>
<linearGradient id="paint0_linear_422_332" x1="9" y1="52.5" x2="344.5" y2="5.5" gradientUnits="userSpaceOnUse">
<stop stop-color="#333333"/>
<stop offset="0.5" stop-color="#8F8F8F"/>
<stop offset="1" stop-color="#333333"/>
</linearGradient>
</defs>
</svg>
