<svg width="350" height="55" viewBox="0 0 350 55" fill="none" xmlns="http://www.w3.org/2000/svg">
<rect width="350" height="55" rx="20" fill="url(#paint0_linear_170_58)"/>
<path d="M144.84 31.096C144.416 31.096 144.004 31.052 143.604 30.964C143.212 30.868 142.86 30.724 142.548 30.532C142.236 30.34 141.984 30.092 141.792 29.788C141.6 29.476 141.496 29.1 141.48 28.66H142.728C142.752 28.892 142.828 29.088 142.956 29.248C143.084 29.408 143.248 29.54 143.448 29.644C143.648 29.74 143.868 29.812 144.108 29.86C144.348 29.908 144.592 29.932 144.84 29.932C145.032 29.932 145.24 29.916 145.464 29.884C145.696 29.852 145.912 29.788 146.112 29.692C146.312 29.596 146.476 29.456 146.604 29.272C146.732 29.088 146.796 28.848 146.796 28.552C146.796 28.272 146.748 28.048 146.652 27.88C146.556 27.704 146.42 27.572 146.244 27.484C146.068 27.388 145.86 27.324 145.62 27.292C145.388 27.26 145.132 27.244 144.852 27.244H143.76V26.14H144.468C144.732 26.14 144.984 26.116 145.224 26.068C145.472 26.02 145.688 25.948 145.872 25.852C146.056 25.748 146.204 25.612 146.316 25.444C146.428 25.276 146.484 25.076 146.484 24.844C146.484 24.492 146.396 24.228 146.22 24.052C146.044 23.876 145.824 23.752 145.56 23.68C145.296 23.608 145.032 23.572 144.768 23.572C144.456 23.572 144.16 23.616 143.88 23.704C143.608 23.792 143.384 23.928 143.208 24.112C143.04 24.288 142.956 24.512 142.956 24.784H141.696C141.704 24.4 141.78 24.072 141.924 23.8C142.068 23.528 142.256 23.304 142.488 23.128C142.728 22.944 142.988 22.8 143.268 22.696C143.548 22.592 143.828 22.52 144.108 22.48C144.388 22.44 144.644 22.42 144.876 22.42C145.236 22.42 145.584 22.46 145.92 22.54C146.256 22.612 146.56 22.736 146.832 22.912C147.112 23.088 147.332 23.32 147.492 23.608C147.652 23.896 147.732 24.244 147.732 24.652C147.732 24.852 147.704 25.064 147.648 25.288C147.592 25.504 147.48 25.716 147.312 25.924C147.152 26.124 146.908 26.312 146.58 26.488C147.068 26.6 147.44 26.848 147.696 27.232C147.96 27.616 148.092 28.06 148.092 28.564C148.084 29.02 147.988 29.408 147.804 29.728C147.62 30.048 147.376 30.308 147.072 30.508C146.768 30.708 146.424 30.856 146.04 30.952C145.664 31.048 145.264 31.096 144.84 31.096ZM151.377 31.072C151.097 31.072 150.825 31.036 150.561 30.964C150.297 30.884 150.061 30.768 149.853 30.616C149.645 30.456 149.477 30.26 149.349 30.028C149.229 29.788 149.169 29.508 149.169 29.188C149.169 28.804 149.241 28.488 149.385 28.24C149.537 27.984 149.737 27.788 149.985 27.652C150.233 27.508 150.517 27.408 150.837 27.352C151.165 27.288 151.505 27.256 151.857 27.256H153.405C153.405 26.944 153.357 26.672 153.261 26.44C153.165 26.2 153.013 26.016 152.805 25.888C152.605 25.752 152.337 25.684 152.001 25.684C151.801 25.684 151.609 25.708 151.425 25.756C151.249 25.796 151.097 25.864 150.969 25.96C150.841 26.056 150.753 26.184 150.705 26.344H149.409C149.457 26.04 149.565 25.78 149.733 25.564C149.901 25.34 150.109 25.156 150.357 25.012C150.605 24.868 150.869 24.764 151.149 24.7C151.437 24.628 151.729 24.592 152.025 24.592C152.633 24.592 153.125 24.712 153.501 24.952C153.885 25.192 154.165 25.536 154.341 25.984C154.517 26.432 154.605 26.964 154.605 27.58V31H153.537L153.489 30.22C153.305 30.452 153.093 30.632 152.853 30.76C152.621 30.88 152.377 30.96 152.121 31C151.865 31.048 151.617 31.072 151.377 31.072ZM151.593 30.028C151.961 30.028 152.281 29.968 152.553 29.848C152.825 29.72 153.033 29.54 153.177 29.308C153.329 29.068 153.405 28.784 153.405 28.456V28.204H152.277C152.045 28.204 151.817 28.212 151.593 28.228C151.369 28.236 151.165 28.268 150.981 28.324C150.805 28.372 150.665 28.456 150.561 28.576C150.457 28.696 150.405 28.868 150.405 29.092C150.405 29.308 150.461 29.484 150.573 29.62C150.685 29.756 150.833 29.86 151.017 29.932C151.201 29.996 151.393 30.028 151.593 30.028ZM156.088 31V24.676H161.5V31H160.264V25.78H157.324V31H156.088ZM163.014 31V24.676H164.25V29.152C164.306 29.056 164.378 28.952 164.466 28.84C164.554 28.72 164.622 28.624 164.67 28.552L167.562 24.676H168.714V31H167.478V26.548C167.414 26.652 167.346 26.756 167.274 26.86C167.202 26.956 167.134 27.044 167.07 27.124L164.178 31H163.014ZM172.969 31.072C172.305 31.072 171.749 30.936 171.301 30.664C170.861 30.392 170.529 30.016 170.305 29.536C170.089 29.048 169.981 28.488 169.981 27.856C169.981 27.232 170.093 26.676 170.317 26.188C170.549 25.692 170.893 25.304 171.349 25.024C171.813 24.736 172.385 24.592 173.065 24.592C173.529 24.592 173.941 24.672 174.301 24.832C174.661 24.984 174.953 25.212 175.177 25.516C175.409 25.812 175.561 26.184 175.633 26.632H174.397C174.293 26.304 174.117 26.068 173.869 25.924C173.629 25.78 173.345 25.708 173.017 25.708C172.577 25.708 172.225 25.812 171.961 26.02C171.697 26.228 171.505 26.496 171.385 26.824C171.273 27.152 171.217 27.496 171.217 27.856C171.217 28.232 171.277 28.58 171.397 28.9C171.525 29.22 171.717 29.48 171.973 29.68C172.237 29.872 172.581 29.968 173.005 29.968C173.325 29.968 173.621 29.9 173.893 29.764C174.165 29.62 174.341 29.38 174.421 29.044H175.693C175.621 29.508 175.453 29.892 175.189 30.196C174.925 30.492 174.597 30.712 174.205 30.856C173.821 31 173.409 31.072 172.969 31.072ZM178.881 31.072C178.601 31.072 178.329 31.036 178.065 30.964C177.801 30.884 177.565 30.768 177.357 30.616C177.149 30.456 176.981 30.26 176.853 30.028C176.733 29.788 176.673 29.508 176.673 29.188C176.673 28.804 176.745 28.488 176.889 28.24C177.041 27.984 177.241 27.788 177.489 27.652C177.737 27.508 178.021 27.408 178.341 27.352C178.669 27.288 179.009 27.256 179.361 27.256H180.909C180.909 26.944 180.861 26.672 180.765 26.44C180.669 26.2 180.517 26.016 180.309 25.888C180.109 25.752 179.841 25.684 179.505 25.684C179.305 25.684 179.113 25.708 178.929 25.756C178.753 25.796 178.601 25.864 178.473 25.96C178.345 26.056 178.257 26.184 178.209 26.344H176.913C176.961 26.04 177.069 25.78 177.237 25.564C177.405 25.34 177.613 25.156 177.861 25.012C178.109 24.868 178.373 24.764 178.653 24.7C178.941 24.628 179.233 24.592 179.529 24.592C180.137 24.592 180.629 24.712 181.005 24.952C181.389 25.192 181.669 25.536 181.845 25.984C182.021 26.432 182.109 26.964 182.109 27.58V31H181.041L180.993 30.22C180.809 30.452 180.597 30.632 180.357 30.76C180.125 30.88 179.881 30.96 179.625 31C179.369 31.048 179.121 31.072 178.881 31.072ZM179.097 30.028C179.465 30.028 179.785 29.968 180.057 29.848C180.329 29.72 180.537 29.54 180.681 29.308C180.833 29.068 180.909 28.784 180.909 28.456V28.204H179.781C179.549 28.204 179.321 28.212 179.097 28.228C178.873 28.236 178.669 28.268 178.485 28.324C178.309 28.372 178.169 28.456 178.065 28.576C177.961 28.696 177.909 28.868 177.909 29.092C177.909 29.308 177.965 29.484 178.077 29.62C178.189 29.756 178.337 29.86 178.521 29.932C178.705 29.996 178.897 30.028 179.097 30.028ZM185.08 31V25.78H182.944V24.676H188.452V25.78H186.316V31H185.08ZM189.311 31V24.676H190.571V26.956H191.927C192.303 26.956 192.639 26.988 192.935 27.052C193.239 27.116 193.499 27.224 193.715 27.376C193.939 27.52 194.111 27.72 194.231 27.976C194.351 28.224 194.411 28.54 194.411 28.924C194.411 29.284 194.347 29.596 194.219 29.86C194.091 30.124 193.911 30.34 193.679 30.508C193.455 30.676 193.187 30.8 192.875 30.88C192.571 30.96 192.239 31 191.879 31H189.311ZM190.571 29.92H191.255C191.503 29.92 191.739 29.912 191.963 29.896C192.187 29.88 192.391 29.844 192.575 29.788C192.759 29.724 192.903 29.628 193.007 29.5C193.119 29.364 193.175 29.184 193.175 28.96C193.175 28.736 193.131 28.564 193.043 28.444C192.955 28.324 192.839 28.232 192.695 28.168C192.559 28.104 192.407 28.064 192.239 28.048C192.079 28.032 191.911 28.024 191.735 28.024H190.571V29.92ZM198.399 31.072C197.735 31.072 197.179 30.936 196.731 30.664C196.291 30.392 195.959 30.016 195.735 29.536C195.519 29.048 195.411 28.488 195.411 27.856C195.411 27.232 195.523 26.676 195.747 26.188C195.979 25.692 196.323 25.304 196.779 25.024C197.243 24.736 197.815 24.592 198.495 24.592C198.959 24.592 199.371 24.672 199.731 24.832C200.091 24.984 200.383 25.212 200.607 25.516C200.839 25.812 200.991 26.184 201.063 26.632H199.827C199.723 26.304 199.547 26.068 199.299 25.924C199.059 25.78 198.775 25.708 198.447 25.708C198.007 25.708 197.655 25.812 197.391 26.02C197.127 26.228 196.935 26.496 196.815 26.824C196.703 27.152 196.647 27.496 196.647 27.856C196.647 28.232 196.707 28.58 196.827 28.9C196.955 29.22 197.147 29.48 197.403 29.68C197.667 29.872 198.011 29.968 198.435 29.968C198.755 29.968 199.051 29.9 199.323 29.764C199.595 29.62 199.771 29.38 199.851 29.044H201.123C201.051 29.508 200.883 29.892 200.619 30.196C200.355 30.492 200.027 30.712 199.635 30.856C199.251 31 198.839 31.072 198.399 31.072ZM201.923 31L203.591 28.552C203.151 28.424 202.799 28.208 202.535 27.904C202.279 27.6 202.151 27.212 202.151 26.74C202.151 26.34 202.211 26.008 202.331 25.744C202.451 25.48 202.623 25.272 202.847 25.12C203.071 24.96 203.335 24.848 203.639 24.784C203.951 24.712 204.295 24.676 204.671 24.676H207.359V31H206.123V28.756H204.839L203.375 31H201.923ZM205.319 27.712H206.123V25.756H204.815C204.599 25.756 204.403 25.768 204.227 25.792C204.059 25.816 203.911 25.864 203.783 25.936C203.663 26 203.567 26.096 203.495 26.224C203.431 26.344 203.399 26.508 203.399 26.716C203.399 26.948 203.455 27.132 203.567 27.268C203.687 27.396 203.839 27.492 204.023 27.556C204.207 27.62 204.411 27.664 204.635 27.688C204.867 27.704 205.095 27.712 205.319 27.712Z" fill="white"/>
<defs>
<linearGradient id="paint0_linear_170_58" x1="9" y1="52.5" x2="344.5" y2="5.5" gradientUnits="userSpaceOnUse">
<stop stop-color="#333333"/>
<stop offset="0.5" stop-color="#8F8F8F"/>
<stop offset="1" stop-color="#333333"/>
</linearGradient>
</defs>
</svg>
