<svg width="350" height="55" viewBox="0 0 350 55" fill="none" xmlns="http://www.w3.org/2000/svg">
<rect width="350" height="55" rx="20" fill="url(#paint0_linear_515_58)"/>
<path d="M150.496 31V22.516H153.556C154.188 22.516 154.732 22.616 155.188 22.816C155.652 23.016 156.008 23.328 156.256 23.752C156.504 24.168 156.628 24.708 156.628 25.372C156.628 26.012 156.484 26.548 156.196 26.98C155.916 27.412 155.532 27.74 155.044 27.964C154.556 28.18 154 28.288 153.376 28.288H151.768V31H150.496ZM151.768 27.136H153.328C153.936 27.136 154.424 26.996 154.792 26.716C155.16 26.428 155.344 25.968 155.344 25.336C155.344 24.784 155.192 24.372 154.888 24.1C154.584 23.82 154.124 23.68 153.508 23.68H151.768V27.136ZM160.528 31.072C159.864 31.072 159.308 30.936 158.86 30.664C158.412 30.392 158.072 30.016 157.84 29.536C157.616 29.048 157.504 28.488 157.504 27.856C157.504 27.216 157.62 26.652 157.852 26.164C158.092 25.676 158.436 25.292 158.884 25.012C159.34 24.732 159.888 24.592 160.528 24.592C161 24.592 161.412 24.68 161.764 24.856C162.124 25.024 162.424 25.26 162.664 25.564C162.912 25.86 163.092 26.196 163.204 26.572C163.316 26.948 163.368 27.344 163.36 27.76C163.352 27.848 163.344 27.932 163.336 28.012C163.336 28.092 163.332 28.176 163.324 28.264H158.752C158.776 28.584 158.856 28.876 158.992 29.14C159.136 29.404 159.336 29.616 159.592 29.776C159.848 29.928 160.164 30.004 160.54 30.004C160.748 30.004 160.948 29.98 161.14 29.932C161.34 29.876 161.516 29.792 161.668 29.68C161.828 29.56 161.94 29.408 162.004 29.224H163.252C163.148 29.648 162.96 30 162.688 30.28C162.424 30.552 162.1 30.752 161.716 30.88C161.34 31.008 160.944 31.072 160.528 31.072ZM158.776 27.28H162.136C162.128 26.968 162.056 26.692 161.92 26.452C161.784 26.204 161.596 26.012 161.356 25.876C161.116 25.732 160.828 25.66 160.492 25.66C160.124 25.66 159.816 25.736 159.568 25.888C159.328 26.04 159.14 26.24 159.004 26.488C158.876 26.728 158.8 26.992 158.776 27.28ZM167.383 31.072C166.719 31.072 166.163 30.936 165.715 30.664C165.275 30.392 164.943 30.016 164.719 29.536C164.503 29.048 164.395 28.488 164.395 27.856C164.395 27.232 164.507 26.676 164.731 26.188C164.963 25.692 165.307 25.304 165.763 25.024C166.227 24.736 166.799 24.592 167.479 24.592C167.943 24.592 168.355 24.672 168.715 24.832C169.075 24.984 169.367 25.212 169.591 25.516C169.823 25.812 169.975 26.184 170.047 26.632H168.811C168.707 26.304 168.531 26.068 168.283 25.924C168.043 25.78 167.759 25.708 167.431 25.708C166.991 25.708 166.639 25.812 166.375 26.02C166.111 26.228 165.919 26.496 165.799 26.824C165.687 27.152 165.631 27.496 165.631 27.856C165.631 28.232 165.691 28.58 165.811 28.9C165.939 29.22 166.131 29.48 166.387 29.68C166.651 29.872 166.995 29.968 167.419 29.968C167.739 29.968 168.035 29.9 168.307 29.764C168.579 29.62 168.755 29.38 168.835 29.044H170.107C170.035 29.508 169.867 29.892 169.603 30.196C169.339 30.492 169.011 30.712 168.619 30.856C168.235 31 167.823 31.072 167.383 31.072ZM171.303 31V24.676H172.539V27.34H175.455V24.676H176.691V31H175.455V28.432H172.539V31H171.303ZM178.205 31V24.676H179.441V29.152C179.497 29.056 179.569 28.952 179.657 28.84C179.745 28.72 179.813 28.624 179.861 28.552L182.753 24.676H183.905V31H182.669V26.548C182.605 26.652 182.537 26.756 182.465 26.86C182.393 26.956 182.325 27.044 182.261 27.124L179.369 31H178.205ZM190.32 32.884V31H185.412V24.676H186.648V29.908H189.468V24.676H190.728V29.908H191.544V32.884H190.32ZM192.526 31V24.676H193.786V26.956H194.854C195.23 26.956 195.57 26.988 195.874 27.052C196.178 27.116 196.438 27.224 196.654 27.376C196.878 27.52 197.05 27.72 197.17 27.976C197.29 28.224 197.35 28.54 197.35 28.924C197.35 29.292 197.282 29.612 197.146 29.884C197.018 30.148 196.838 30.364 196.606 30.532C196.374 30.692 196.102 30.812 195.79 30.892C195.486 30.964 195.158 31 194.806 31H192.526ZM193.786 29.92H194.17C194.426 29.92 194.666 29.912 194.89 29.896C195.122 29.88 195.326 29.844 195.502 29.788C195.686 29.732 195.83 29.64 195.934 29.512C196.046 29.376 196.102 29.192 196.102 28.96C196.102 28.744 196.058 28.576 195.97 28.456C195.89 28.328 195.778 28.232 195.634 28.168C195.498 28.104 195.346 28.064 195.178 28.048C195.01 28.032 194.842 28.024 194.674 28.024H193.786V29.92ZM198.19 31V24.676H199.426V31H198.19Z" fill="white"/>
<defs>
<linearGradient id="paint0_linear_515_58" x1="9" y1="52.5" x2="344.5" y2="5.5" gradientUnits="userSpaceOnUse">
<stop stop-color="#333333"/>
<stop offset="0.5" stop-color="#8F8F8F"/>
<stop offset="1" stop-color="#333333"/>
</linearGradient>
</defs>
</svg>
