<svg width="280" height="24" viewBox="0 0 280 24" fill="none" xmlns="http://www.w3.org/2000/svg">
<path d="M10.5919 23.1681C8.24527 23.1681 6.2826 22.6668 4.70394 21.6641C3.1466 20.6614 1.97327 19.2961 1.18394 17.5681C0.394604 15.8188 -6.24657e-05 13.8348 -6.24657e-05 11.6161C-6.24657e-05 9.39744 0.394604 7.41344 1.18394 5.66411C1.9946 3.91477 3.1786 2.53877 4.73594 1.53611C6.3146 0.533442 8.2666 0.0321083 10.5919 0.0321083C12.9173 0.0321083 14.8586 0.544108 16.4159 1.56811C17.9946 2.57078 19.1786 3.94678 19.9679 5.69611C20.7573 7.42411 21.1519 9.39744 21.1519 11.6161C21.1519 13.8134 20.7466 15.7868 19.9359 17.5361C19.1466 19.2854 17.9733 20.6614 16.4159 21.6641C14.8586 22.6668 12.9173 23.1681 10.5919 23.1681ZM10.5919 21.5681C12.5546 21.5681 14.1759 21.1201 15.4559 20.2241C16.7359 19.3281 17.6853 18.1228 18.3039 16.6081C18.9226 15.0934 19.2319 13.4294 19.2319 11.6161C19.2319 10.2508 19.0506 8.97078 18.6879 7.77611C18.3466 6.56011 17.8239 5.49344 17.1199 4.57611C16.4159 3.65877 15.5199 2.94411 14.4319 2.43211C13.3439 1.89878 12.0639 1.63211 10.5919 1.63211C8.62927 1.63211 6.99727 2.09078 5.69594 3.00811C4.41594 3.92544 3.45594 5.14144 2.81594 6.65611C2.19727 8.14944 1.88794 9.80278 1.88794 11.6161C1.88794 13.4081 2.20794 15.0614 2.84794 16.5761C3.48794 18.0908 4.44794 19.3068 5.72794 20.2241C7.02927 21.1201 8.6506 21.5681 10.5919 21.5681ZM25.7167 22.9121V0.288109H40.6927V1.95211H27.5407V10.0481H33.4927C34.5167 10.0481 35.5194 10.1228 36.5007 10.2721C37.482 10.4214 38.3674 10.7094 39.1567 11.1361C39.946 11.5628 40.5754 12.1814 41.0447 12.9921C41.514 13.8028 41.7487 14.8588 41.7487 16.1601C41.7487 17.4401 41.5247 18.5174 41.0767 19.3921C40.65 20.2454 40.0527 20.9388 39.2847 21.4721C38.5167 21.9841 37.6207 22.3574 36.5967 22.5921C35.594 22.8054 34.506 22.9121 33.3327 22.9121H25.7167ZM27.5407 21.2481H32.9487C33.8447 21.2481 34.698 21.1841 35.5087 21.0561C36.3407 20.9281 37.0767 20.6934 37.7167 20.3521C38.378 19.9894 38.9007 19.4881 39.2847 18.8481C39.6687 18.1868 39.8607 17.3334 39.8607 16.2881C39.8607 15.2214 39.6687 14.3788 39.2847 13.7601C38.9007 13.1414 38.378 12.6934 37.7167 12.4161C37.0767 12.1174 36.3514 11.9254 35.5407 11.8401C34.73 11.7334 33.898 11.6801 33.0447 11.6801H27.5407V21.2481ZM46.5604 22.9121V0.288109H54.1764C55.8191 0.288109 57.2164 0.554775 58.3684 1.08811C59.5418 1.60011 60.4378 2.40011 61.0564 3.48811C61.6751 4.57611 61.9844 5.96277 61.9844 7.64811C61.9844 9.31211 61.6111 10.6988 60.8644 11.8081C60.1391 12.8961 59.1364 13.7174 57.8564 14.2721C56.5978 14.8268 55.1684 15.1041 53.5684 15.1041H48.3844V22.9121H46.5604ZM48.3844 13.4721H53.4724C55.4564 13.4721 57.0564 13.0028 58.2724 12.0641C59.4884 11.1041 60.0964 9.58944 60.0964 7.52011C60.0964 5.55744 59.5631 4.13878 58.4964 3.26411C57.4298 2.38944 55.9364 1.95211 54.0164 1.95211H48.3844V13.4721ZM62.0652 22.9121L70.8012 0.288109H73.1372L81.9372 22.9121H79.8892L77.9052 17.8241H66.0332L64.0812 22.9121H62.0652ZM66.6412 16.1921H77.2972L71.9852 2.17611L66.6412 16.1921ZM88.9647 22.9121V1.95211H81.3807V0.288109H98.3727V1.95211H90.7887V22.9121H88.9647ZM101.873 22.9121V0.288109H103.697V11.0081H117.457V0.288109H119.281V22.9121H117.457V12.6401H103.697V22.9121H101.873ZM122.628 22.9121L131.364 0.288109H133.7L142.5 22.9121H140.452L138.468 17.8241H126.596L124.644 22.9121H122.628ZM127.204 16.1921H137.86L132.548 2.17611L127.204 16.1921ZM145.329 22.9121L150.321 13.7281C148.614 13.3654 147.27 12.6508 146.289 11.5841C145.329 10.4961 144.849 9.04544 144.849 7.23211C144.849 5.97344 145.052 4.90678 145.457 4.03211C145.862 3.15744 146.428 2.44278 147.153 1.88811C147.878 1.33344 148.742 0.928108 149.745 0.672108C150.748 0.416108 151.846 0.288109 153.041 0.288109H161.105V22.9121H159.281V14.0161H152.145L147.409 22.9121H145.329ZM153.329 12.3841H159.281V1.95211H153.137C151.857 1.95211 150.726 2.11211 149.745 2.43211C148.785 2.75211 148.028 3.29611 147.473 4.06411C146.94 4.81078 146.673 5.83478 146.673 7.13611C146.673 8.48011 146.982 9.53611 147.601 10.3041C148.22 11.0721 149.03 11.6161 150.033 11.9361C151.057 12.2348 152.156 12.3841 153.329 12.3841Z" fill="#4E4E4E"/>
<path d="M184.68 23.1681C182.334 23.1681 180.36 22.6881 178.76 21.7281C177.16 20.7468 175.955 19.3921 175.144 17.6641C174.334 15.9361 173.928 13.9308 173.928 11.6481C173.928 9.36544 174.344 7.34944 175.176 5.60011C176.008 3.85078 177.224 2.48544 178.824 1.50411C180.424 0.501442 182.376 0.000108719 184.68 0.000108719C186.387 0.000108719 187.891 0.288109 189.192 0.864109C190.494 1.44011 191.55 2.26144 192.36 3.32811C193.192 4.37344 193.726 5.66411 193.96 7.20011H190.088C189.79 6.11211 189.182 5.25877 188.264 4.64011C187.347 4.02144 186.152 3.71211 184.68 3.71211C183.08 3.71211 181.79 4.08544 180.808 4.83211C179.827 5.57878 179.112 6.53878 178.664 7.71211C178.238 8.88544 178.024 10.1441 178.024 11.4881C178.024 12.8748 178.248 14.1761 178.696 15.3921C179.166 16.6081 179.902 17.5894 180.904 18.3361C181.907 19.0828 183.198 19.4561 184.776 19.4561C185.758 19.4561 186.611 19.3174 187.336 19.0401C188.083 18.7628 188.702 18.3681 189.192 17.8561C189.704 17.3228 190.056 16.7041 190.248 16.0001H194.312C194.056 17.5148 193.48 18.8054 192.584 19.8721C191.71 20.9388 190.59 21.7601 189.224 22.3361C187.88 22.8908 186.366 23.1681 184.68 23.1681ZM198.082 22.9121V0.288109H207.362C208.407 0.288109 209.367 0.384109 210.242 0.576109C211.138 0.746775 211.906 1.05611 212.546 1.50411C213.207 1.95211 213.719 2.54944 214.082 3.29611C214.445 4.04278 214.626 4.97078 214.626 6.08011C214.626 7.10411 214.391 8.04278 213.922 8.89611C213.453 9.72811 212.759 10.3574 211.842 10.7841C213.079 11.1041 214.029 11.7334 214.69 12.6721C215.351 13.5894 215.682 14.7841 215.682 16.2561C215.682 17.5574 215.437 18.6454 214.946 19.5201C214.477 20.3734 213.815 21.0561 212.962 21.5681C212.13 22.0588 211.17 22.4108 210.082 22.6241C208.994 22.8161 207.842 22.9121 206.626 22.9121H198.082ZM202.082 19.2641H206.85C207.447 19.2641 208.034 19.2214 208.61 19.1361C209.186 19.0508 209.709 18.9014 210.178 18.6881C210.647 18.4748 211.01 18.1654 211.266 17.7601C211.543 17.3334 211.682 16.7894 211.682 16.1281C211.682 15.5308 211.575 15.0401 211.362 14.6561C211.149 14.2721 210.85 13.9734 210.466 13.7601C210.103 13.5254 209.666 13.3654 209.154 13.2801C208.642 13.1734 208.109 13.1201 207.554 13.1201H202.082V19.2641ZM202.082 9.76011H206.306C206.967 9.76011 207.565 9.69611 208.098 9.56811C208.631 9.44011 209.09 9.24811 209.474 8.99211C209.858 8.73611 210.157 8.41611 210.37 8.03211C210.583 7.62678 210.69 7.14677 210.69 6.59211C210.69 5.84544 210.519 5.29078 210.178 4.92811C209.858 4.54411 209.41 4.28811 208.834 4.16011C208.258 4.01077 207.618 3.93611 206.914 3.93611H202.082V9.76011ZM218.592 22.9121L224 14.2721C222.464 13.8241 221.248 13.0454 220.352 11.9361C219.456 10.8268 219.008 9.36544 219.008 7.55211C219.008 6.18678 219.222 5.04544 219.648 4.12811C220.096 3.18944 220.715 2.44278 221.504 1.88811C222.294 1.31211 223.222 0.906775 224.288 0.672108C225.376 0.416108 226.539 0.288109 227.776 0.288109H236.48V22.9121H232.48V14.9441H227.936L223.232 22.9121H218.592ZM228.096 11.3921H232.48V3.93611H227.52C226.56 3.93611 225.739 4.06411 225.056 4.32011C224.374 4.57611 223.851 4.97078 223.488 5.50411C223.147 6.03744 222.976 6.73077 222.976 7.58411C222.976 8.60811 223.222 9.39744 223.712 9.95211C224.203 10.4854 224.832 10.8588 225.6 11.0721C226.39 11.2854 227.222 11.3921 228.096 11.3921ZM249.455 23.1681C248.261 23.1681 247.119 23.0401 246.031 22.7841C244.965 22.5281 243.994 22.1228 243.119 21.5681C242.266 21.0134 241.573 20.2988 241.039 19.4241C240.527 18.5494 240.239 17.4934 240.175 16.2561H244.047C244.133 16.8534 244.335 17.3548 244.655 17.7601C244.997 18.1654 245.413 18.4961 245.903 18.7521C246.415 19.0081 246.981 19.1894 247.599 19.2961C248.218 19.4028 248.837 19.4561 249.455 19.4561C249.967 19.4561 250.501 19.4241 251.055 19.3601C251.631 19.2748 252.165 19.1148 252.655 18.8801C253.167 18.6454 253.573 18.3148 253.871 17.8881C254.191 17.4401 254.351 16.8641 254.351 16.1601C254.351 15.5201 254.223 14.9974 253.967 14.5921C253.733 14.1868 253.402 13.8774 252.975 13.6641C252.549 13.4508 252.047 13.3014 251.471 13.2161C250.917 13.1308 250.309 13.0881 249.647 13.0881H246.575V9.72811H248.751C249.391 9.72811 249.999 9.67478 250.575 9.56811C251.151 9.44011 251.653 9.25878 252.079 9.02411C252.527 8.78944 252.879 8.48011 253.135 8.09611C253.391 7.69078 253.519 7.21078 253.519 6.65611C253.519 5.82411 253.295 5.20544 252.847 4.80011C252.421 4.37344 251.877 4.08544 251.215 3.93611C250.554 3.76544 249.893 3.68011 249.231 3.68011C248.421 3.68011 247.674 3.78678 246.991 4.00011C246.309 4.21344 245.754 4.54411 245.327 4.99211C244.901 5.44011 244.666 6.00544 244.623 6.68811H240.751C240.773 5.62144 240.975 4.71478 241.359 3.96811C241.743 3.20011 242.245 2.57078 242.863 2.08011C243.482 1.56811 244.175 1.16278 244.943 0.864109C245.711 0.544108 246.501 0.320108 247.311 0.192108C248.122 0.0641085 248.879 0.000108719 249.583 0.000108719C250.565 0.000108719 251.514 0.106775 252.431 0.320108C253.37 0.533442 254.213 0.885441 254.959 1.37611C255.727 1.84544 256.335 2.47478 256.783 3.26411C257.231 4.05344 257.455 5.00278 257.455 6.11211C257.455 6.66678 257.37 7.22144 257.199 7.77611C257.05 8.33078 256.773 8.86411 256.367 9.37611C255.983 9.88811 255.397 10.3574 254.607 10.7841C255.866 11.1468 256.805 11.8294 257.423 12.8321C258.063 13.8348 258.383 14.9868 258.383 16.2881C258.362 17.5041 258.095 18.5494 257.583 19.4241C257.093 20.2988 256.431 21.0134 255.599 21.5681C254.767 22.1014 253.818 22.5068 252.751 22.7841C251.706 23.0401 250.607 23.1681 249.455 23.1681ZM262.207 22.9121V0.288109H266.207V8.99211H270.719C271.871 8.99211 272.959 9.08811 273.983 9.28011C275.007 9.47211 275.914 9.81344 276.703 10.3041C277.492 10.7948 278.111 11.4668 278.559 12.3201C279.007 13.1734 279.231 14.2721 279.231 15.6161C279.252 17.0241 279.007 18.2081 278.495 19.1681C278.004 20.1068 277.332 20.8534 276.479 21.4081C275.626 21.9628 274.644 22.3574 273.535 22.5921C272.447 22.8054 271.306 22.9121 270.111 22.9121H262.207ZM266.207 19.2641H270.111C270.794 19.2641 271.444 19.2214 272.063 19.1361C272.682 19.0508 273.226 18.8908 273.695 18.6561C274.186 18.4001 274.559 18.0481 274.815 17.6001C275.092 17.1308 275.231 16.5228 275.231 15.7761C275.231 15.0508 275.103 14.4748 274.847 14.0481C274.591 13.6214 274.239 13.3014 273.791 13.0881C273.343 12.8748 272.831 12.7361 272.255 12.6721C271.679 12.5868 271.071 12.5441 270.431 12.5441H266.207V19.2641Z" fill="#4E4E4E"/>
<path d="M184.68 23.1681C182.334 23.1681 180.36 22.6881 178.76 21.7281C177.16 20.7468 175.955 19.3921 175.144 17.6641C174.334 15.9361 173.928 13.9308 173.928 11.6481C173.928 9.36544 174.344 7.34944 175.176 5.60011C176.008 3.85078 177.224 2.48544 178.824 1.50411C180.424 0.501442 182.376 0.000108719 184.68 0.000108719C186.387 0.000108719 187.891 0.288109 189.192 0.864109C190.494 1.44011 191.55 2.26144 192.36 3.32811C193.192 4.37344 193.726 5.66411 193.96 7.20011H190.088C189.79 6.11211 189.182 5.25877 188.264 4.64011C187.347 4.02144 186.152 3.71211 184.68 3.71211C183.08 3.71211 181.79 4.08544 180.808 4.83211C179.827 5.57878 179.112 6.53878 178.664 7.71211C178.238 8.88544 178.024 10.1441 178.024 11.4881C178.024 12.8748 178.248 14.1761 178.696 15.3921C179.166 16.6081 179.902 17.5894 180.904 18.3361C181.907 19.0828 183.198 19.4561 184.776 19.4561C185.758 19.4561 186.611 19.3174 187.336 19.0401C188.083 18.7628 188.702 18.3681 189.192 17.8561C189.704 17.3228 190.056 16.7041 190.248 16.0001H194.312C194.056 17.5148 193.48 18.8054 192.584 19.8721C191.71 20.9388 190.59 21.7601 189.224 22.3361C187.88 22.8908 186.366 23.1681 184.68 23.1681ZM198.082 22.9121V0.288109H207.362C208.407 0.288109 209.367 0.384109 210.242 0.576109C211.138 0.746775 211.906 1.05611 212.546 1.50411C213.207 1.95211 213.719 2.54944 214.082 3.29611C214.445 4.04278 214.626 4.97078 214.626 6.08011C214.626 7.10411 214.391 8.04278 213.922 8.89611C213.453 9.72811 212.759 10.3574 211.842 10.7841C213.079 11.1041 214.029 11.7334 214.69 12.6721C215.351 13.5894 215.682 14.7841 215.682 16.2561C215.682 17.5574 215.437 18.6454 214.946 19.5201C214.477 20.3734 213.815 21.0561 212.962 21.5681C212.13 22.0588 211.17 22.4108 210.082 22.6241C208.994 22.8161 207.842 22.9121 206.626 22.9121H198.082ZM202.082 19.2641H206.85C207.447 19.2641 208.034 19.2214 208.61 19.1361C209.186 19.0508 209.709 18.9014 210.178 18.6881C210.647 18.4748 211.01 18.1654 211.266 17.7601C211.543 17.3334 211.682 16.7894 211.682 16.1281C211.682 15.5308 211.575 15.0401 211.362 14.6561C211.149 14.2721 210.85 13.9734 210.466 13.7601C210.103 13.5254 209.666 13.3654 209.154 13.2801C208.642 13.1734 208.109 13.1201 207.554 13.1201H202.082V19.2641ZM202.082 9.76011H206.306C206.967 9.76011 207.565 9.69611 208.098 9.56811C208.631 9.44011 209.09 9.24811 209.474 8.99211C209.858 8.73611 210.157 8.41611 210.37 8.03211C210.583 7.62678 210.69 7.14677 210.69 6.59211C210.69 5.84544 210.519 5.29078 210.178 4.92811C209.858 4.54411 209.41 4.28811 208.834 4.16011C208.258 4.01077 207.618 3.93611 206.914 3.93611H202.082V9.76011ZM218.592 22.9121L224 14.2721C222.464 13.8241 221.248 13.0454 220.352 11.9361C219.456 10.8268 219.008 9.36544 219.008 7.55211C219.008 6.18678 219.222 5.04544 219.648 4.12811C220.096 3.18944 220.715 2.44278 221.504 1.88811C222.294 1.31211 223.222 0.906775 224.288 0.672108C225.376 0.416108 226.539 0.288109 227.776 0.288109H236.48V22.9121H232.48V14.9441H227.936L223.232 22.9121H218.592ZM228.096 11.3921H232.48V3.93611H227.52C226.56 3.93611 225.739 4.06411 225.056 4.32011C224.374 4.57611 223.851 4.97078 223.488 5.50411C223.147 6.03744 222.976 6.73077 222.976 7.58411C222.976 8.60811 223.222 9.39744 223.712 9.95211C224.203 10.4854 224.832 10.8588 225.6 11.0721C226.39 11.2854 227.222 11.3921 228.096 11.3921ZM249.455 23.1681C248.261 23.1681 247.119 23.0401 246.031 22.7841C244.965 22.5281 243.994 22.1228 243.119 21.5681C242.266 21.0134 241.573 20.2988 241.039 19.4241C240.527 18.5494 240.239 17.4934 240.175 16.2561H244.047C244.133 16.8534 244.335 17.3548 244.655 17.7601C244.997 18.1654 245.413 18.4961 245.903 18.7521C246.415 19.0081 246.981 19.1894 247.599 19.2961C248.218 19.4028 248.837 19.4561 249.455 19.4561C249.967 19.4561 250.501 19.4241 251.055 19.3601C251.631 19.2748 252.165 19.1148 252.655 18.8801C253.167 18.6454 253.573 18.3148 253.871 17.8881C254.191 17.4401 254.351 16.8641 254.351 16.1601C254.351 15.5201 254.223 14.9974 253.967 14.5921C253.733 14.1868 253.402 13.8774 252.975 13.6641C252.549 13.4508 252.047 13.3014 251.471 13.2161C250.917 13.1308 250.309 13.0881 249.647 13.0881H246.575V9.72811H248.751C249.391 9.72811 249.999 9.67478 250.575 9.56811C251.151 9.44011 251.653 9.25878 252.079 9.02411C252.527 8.78944 252.879 8.48011 253.135 8.09611C253.391 7.69078 253.519 7.21078 253.519 6.65611C253.519 5.82411 253.295 5.20544 252.847 4.80011C252.421 4.37344 251.877 4.08544 251.215 3.93611C250.554 3.76544 249.893 3.68011 249.231 3.68011C248.421 3.68011 247.674 3.78678 246.991 4.00011C246.309 4.21344 245.754 4.54411 245.327 4.99211C244.901 5.44011 244.666 6.00544 244.623 6.68811H240.751C240.773 5.62144 240.975 4.71478 241.359 3.96811C241.743 3.20011 242.245 2.57078 242.863 2.08011C243.482 1.56811 244.175 1.16278 244.943 0.864109C245.711 0.544108 246.501 0.320108 247.311 0.192108C248.122 0.0641085 248.879 0.000108719 249.583 0.000108719C250.565 0.000108719 251.514 0.106775 252.431 0.320108C253.37 0.533442 254.213 0.885441 254.959 1.37611C255.727 1.84544 256.335 2.47478 256.783 3.26411C257.231 4.05344 257.455 5.00278 257.455 6.11211C257.455 6.66678 257.37 7.22144 257.199 7.77611C257.05 8.33078 256.773 8.86411 256.367 9.37611C255.983 9.88811 255.397 10.3574 254.607 10.7841C255.866 11.1468 256.805 11.8294 257.423 12.8321C258.063 13.8348 258.383 14.9868 258.383 16.2881C258.362 17.5041 258.095 18.5494 257.583 19.4241C257.093 20.2988 256.431 21.0134 255.599 21.5681C254.767 22.1014 253.818 22.5068 252.751 22.7841C251.706 23.0401 250.607 23.1681 249.455 23.1681ZM262.207 22.9121V0.288109H266.207V8.99211H270.719C271.871 8.99211 272.959 9.08811 273.983 9.28011C275.007 9.47211 275.914 9.81344 276.703 10.3041C277.492 10.7948 278.111 11.4668 278.559 12.3201C279.007 13.1734 279.231 14.2721 279.231 15.6161C279.252 17.0241 279.007 18.2081 278.495 19.1681C278.004 20.1068 277.332 20.8534 276.479 21.4081C275.626 21.9628 274.644 22.3574 273.535 22.5921C272.447 22.8054 271.306 22.9121 270.111 22.9121H262.207ZM266.207 19.2641H270.111C270.794 19.2641 271.444 19.2214 272.063 19.1361C272.682 19.0508 273.226 18.8908 273.695 18.6561C274.186 18.4001 274.559 18.0481 274.815 17.6001C275.092 17.1308 275.231 16.5228 275.231 15.7761C275.231 15.0508 275.103 14.4748 274.847 14.0481C274.591 13.6214 274.239 13.3014 273.791 13.0881C273.343 12.8748 272.831 12.7361 272.255 12.6721C271.679 12.5868 271.071 12.5441 270.431 12.5441H266.207V19.2641Z" fill="url(#paint0_linear_460_19)"/>
<defs>
<linearGradient id="paint0_linear_460_19" x1="4.76379" y1="28.3212" x2="273.758" y2="-19.7287" gradientUnits="userSpaceOnUse">
<stop stop-color="#333333"/>
<stop offset="0.5" stop-color="#8F8F8F"/>
<stop offset="1" stop-color="#333333"/>
</linearGradient>
</defs>
</svg>
