<svg width="202" height="30" viewBox="0 0 202 30" fill="none" xmlns="http://www.w3.org/2000/svg">
<path d="M-0.000109196 29.6641V7.04006H17.5039V29.6641H15.6799V8.70406H1.82389V29.6641H-0.000109196ZM23.3124 29.6641V7.04006H30.9284C32.5711 7.04006 33.9684 7.30673 35.1204 7.84006C36.2937 8.35206 37.1897 9.15206 37.8084 10.2401C38.4271 11.3281 38.7364 12.7147 38.7364 14.4001C38.7364 16.0641 38.3631 17.4507 37.6164 18.5601C36.8911 19.6481 35.8884 20.4694 34.6084 21.0241C33.3497 21.5787 31.9204 21.8561 30.3204 21.8561H25.1364V29.6641H23.3124ZM25.1364 20.2241H30.2244C32.2084 20.2241 33.8084 19.7547 35.0244 18.8161C36.2404 17.8561 36.8484 16.3414 36.8484 14.2721C36.8484 12.3094 36.3151 10.8907 35.2484 10.0161C34.1817 9.14139 32.6884 8.70406 30.7684 8.70406H25.1364V20.2241ZM38.8171 29.6641L47.5531 7.04006H49.8891L58.6891 29.6641H56.6411L54.6571 24.5761H42.7851L40.8331 29.6641H38.8171ZM43.3931 22.9441H54.0491L48.7371 8.92806L43.3931 22.9441ZM62.0624 29.6641V7.04006H63.8864V27.4241L77.3584 7.04006H79.6944V29.6641H77.8704V9.44006L64.3664 29.6641H62.0624ZM70.8944 4.03206C69.9131 4.03206 69.0171 3.89339 68.2064 3.61606C67.3957 3.31739 66.7344 2.88006 66.2224 2.30406C65.7104 1.70673 65.4117 0.938728 65.3264 6.10352e-05H67.0224C67.1931 0.938728 67.6411 1.61073 68.3664 2.01606C69.0917 2.40006 69.9451 2.59206 70.9264 2.59206C71.9077 2.59206 72.7504 2.40006 73.4544 2.01606C74.1584 1.61073 74.6064 0.938728 74.7984 6.10352e-05H76.4944C76.4091 0.917394 76.0997 1.67473 75.5664 2.27206C75.0544 2.86939 74.3931 3.31739 73.5824 3.61606C72.7931 3.89339 71.8971 4.03206 70.8944 4.03206ZM94.6511 29.9201C92.3258 29.9201 90.3845 29.4187 88.8271 28.4161C87.2911 27.4134 86.1498 26.0481 85.4031 24.3201C84.6565 22.5707 84.2831 20.5867 84.2831 18.3681C84.2831 16.1494 84.6671 14.1761 85.4351 12.4481C86.2245 10.6987 87.3871 9.32273 88.9231 8.32006C90.4805 7.29606 92.4111 6.78406 94.7151 6.78406C96.0805 6.78406 97.3285 6.98673 98.4591 7.39206C99.5898 7.79739 100.56 8.39473 101.371 9.18406C102.182 9.97339 102.779 10.9761 103.163 12.1921H101.275C100.763 10.9334 99.9205 9.98406 98.7471 9.34406C97.5951 8.70406 96.2618 8.38406 94.7471 8.38406C92.7631 8.38406 91.1311 8.84273 89.8511 9.76006C88.5925 10.6774 87.6538 11.8827 87.0351 13.3761C86.4378 14.8694 86.1391 16.5121 86.1391 18.3041C86.1391 20.0961 86.4378 21.7601 87.0351 23.2961C87.6538 24.8107 88.5925 26.0267 89.8511 26.9441C91.1311 27.8614 92.7525 28.3201 94.7151 28.3201C95.6965 28.3201 96.6351 28.1814 97.5311 27.9041C98.4485 27.6267 99.2591 27.2107 99.9631 26.6561C100.667 26.0801 101.179 25.3654 101.499 24.5121H103.579C103.152 25.6854 102.491 26.6774 101.595 27.4881C100.72 28.2987 99.6858 28.9067 98.4911 29.3121C97.3178 29.7174 96.0378 29.9201 94.6511 29.9201Z" fill="#4E4E4E"/>
<path d="M114.096 29.8241V25.9841C114.779 25.9841 115.323 25.8561 115.728 25.6001C116.155 25.3227 116.485 24.9494 116.72 24.4801C116.976 23.9894 117.157 23.4454 117.264 22.8481C117.392 22.2081 117.477 21.5574 117.52 20.8961C117.584 20.2134 117.627 19.5414 117.648 18.8801C117.691 18.2187 117.712 17.6214 117.712 17.0881L117.84 7.04006H133.552V29.6641H129.584V10.6881H121.648L121.52 16.6721C121.499 18.2721 121.456 19.7974 121.392 21.2481C121.349 22.6774 121.2 23.9681 120.944 25.1201C120.688 26.2721 120.208 27.2321 119.504 28.0001C118.928 28.6401 118.213 29.0987 117.36 29.3761C116.528 29.6321 115.44 29.7814 114.096 29.8241ZM138.616 29.6641V7.04006H142.616V23.0721L153.88 7.04006H157.464V29.6641H153.464V13.8241L142.168 29.6641H138.616ZM172.026 29.9201C169.679 29.9201 167.706 29.4401 166.106 28.4801C164.506 27.4987 163.301 26.1441 162.49 24.4161C161.679 22.6881 161.274 20.6827 161.274 18.4001C161.274 16.1174 161.69 14.1014 162.522 12.3521C163.354 10.6027 164.57 9.23739 166.17 8.25606C167.77 7.2534 169.722 6.75206 172.026 6.75206C173.733 6.75206 175.237 7.04006 176.538 7.61606C177.839 8.19206 178.895 9.01339 179.706 10.0801C180.538 11.1254 181.071 12.4161 181.306 13.9521H177.434C177.135 12.8641 176.527 12.0107 175.61 11.3921C174.693 10.7734 173.498 10.4641 172.026 10.4641C170.426 10.4641 169.135 10.8374 168.154 11.5841C167.173 12.3307 166.458 13.2907 166.01 14.4641C165.583 15.6374 165.37 16.8961 165.37 18.2401C165.37 19.6267 165.594 20.9281 166.042 22.1441C166.511 23.3601 167.247 24.3414 168.25 25.0881C169.253 25.8347 170.543 26.2081 172.122 26.2081C173.103 26.2081 173.957 26.0694 174.682 25.7921C175.429 25.5147 176.047 25.1201 176.538 24.6081C177.05 24.0747 177.402 23.4561 177.594 22.7521H181.658C181.402 24.2667 180.826 25.5574 179.93 26.6241C179.055 27.6907 177.935 28.5121 176.57 29.0881C175.226 29.6427 173.711 29.9201 172.026 29.9201ZM190.011 29.6641V10.6881H182.939V7.04006H201.051V10.6881H193.979V29.6641H190.011Z" fill="#4E4E4E"/>
<path d="M114.096 29.8241V25.9841C114.779 25.9841 115.323 25.8561 115.728 25.6001C116.155 25.3227 116.485 24.9494 116.72 24.4801C116.976 23.9894 117.157 23.4454 117.264 22.8481C117.392 22.2081 117.477 21.5574 117.52 20.8961C117.584 20.2134 117.627 19.5414 117.648 18.8801C117.691 18.2187 117.712 17.6214 117.712 17.0881L117.84 7.04006H133.552V29.6641H129.584V10.6881H121.648L121.52 16.6721C121.499 18.2721 121.456 19.7974 121.392 21.2481C121.349 22.6774 121.2 23.9681 120.944 25.1201C120.688 26.2721 120.208 27.2321 119.504 28.0001C118.928 28.6401 118.213 29.0987 117.36 29.3761C116.528 29.6321 115.44 29.7814 114.096 29.8241ZM138.616 29.6641V7.04006H142.616V23.0721L153.88 7.04006H157.464V29.6641H153.464V13.8241L142.168 29.6641H138.616ZM172.026 29.9201C169.679 29.9201 167.706 29.4401 166.106 28.4801C164.506 27.4987 163.301 26.1441 162.49 24.4161C161.679 22.6881 161.274 20.6827 161.274 18.4001C161.274 16.1174 161.69 14.1014 162.522 12.3521C163.354 10.6027 164.57 9.23739 166.17 8.25606C167.77 7.2534 169.722 6.75206 172.026 6.75206C173.733 6.75206 175.237 7.04006 176.538 7.61606C177.839 8.19206 178.895 9.01339 179.706 10.0801C180.538 11.1254 181.071 12.4161 181.306 13.9521H177.434C177.135 12.8641 176.527 12.0107 175.61 11.3921C174.693 10.7734 173.498 10.4641 172.026 10.4641C170.426 10.4641 169.135 10.8374 168.154 11.5841C167.173 12.3307 166.458 13.2907 166.01 14.4641C165.583 15.6374 165.37 16.8961 165.37 18.2401C165.37 19.6267 165.594 20.9281 166.042 22.1441C166.511 23.3601 167.247 24.3414 168.25 25.0881C169.253 25.8347 170.543 26.2081 172.122 26.2081C173.103 26.2081 173.957 26.0694 174.682 25.7921C175.429 25.5147 176.047 25.1201 176.538 24.6081C177.05 24.0747 177.402 23.4561 177.594 22.7521H181.658C181.402 24.2667 180.826 25.5574 179.93 26.6241C179.055 27.6907 177.935 28.5121 176.57 29.0881C175.226 29.6427 173.711 29.9201 172.026 29.9201ZM190.011 29.6641V10.6881H182.939V7.04006H201.051V10.6881H193.979V29.6641H190.011Z" fill="url(#paint0_linear_215_803)"/>
<defs>
<linearGradient id="paint0_linear_215_803" x1="1.52566" y1="35.0732" x2="199.542" y2="9.41644" gradientUnits="userSpaceOnUse">
<stop stop-color="#333333"/>
<stop offset="0.5" stop-color="#8F8F8F"/>
<stop offset="1" stop-color="#333333"/>
</linearGradient>
</defs>
</svg>
