<svg width="390" height="98" viewBox="0 0 390 98" fill="none" xmlns="http://www.w3.org/2000/svg">
<path d="M-17 98L21.0903 0H43.1716L80.8478 98H59.5946L53.5222 81.2514H10.3256L4.25326 98H-17ZM16.674 63.3955H47.3118L32.1309 21.0395L16.674 63.3955Z" fill="#E6E6E6"/>
<path d="M91.3278 98V0H111.063V79.7288H160.608V98H91.3278Z" fill="#E6E6E6"/>
<path d="M173.27 98V0H193.005V98H173.27Z" fill="#E6E6E6"/>
<path d="M213.702 98V0H233.851L278.98 66.3023V0H298.715V98H279.118L233.437 32.3898V98H213.702Z" fill="#E6E6E6"/>
<path d="M309.152 98L347.242 0H369.324L407 98H385.747L379.674 81.2514H336.478L330.405 98H309.152ZM342.826 63.3955H373.464L358.283 21.0395L342.826 63.3955Z" fill="#E6E6E6"/>
</svg>
