<svg width="390" height="62" viewBox="0 0 390 62" fill="none" xmlns="http://www.w3.org/2000/svg">
<g opacity="0.4">
<path d="M-1.30994e-05 61.1426L0.0488281 0L24.7278 0.0197138C29.4286 0.0234688 33.5268 0.71762 37.0226 2.10217C40.5758 3.48676 43.3256 5.73431 45.2722 8.84482C47.2762 11.9554 48.276 16.159 48.2718 21.4557C48.2679 26.3494 47.2041 30.4363 45.0804 33.7163C42.9567 36.9962 40.0598 39.4408 36.3896 41.0499C32.7195 42.6014 28.534 43.3753 23.8333 43.3716L13.9445 43.3637L13.9303 61.1538L-1.30994e-05 61.1426ZM13.9544 30.9279L23.8432 30.9358C27.1108 30.9384 29.6911 30.1344 31.5842 28.5239C33.5346 26.9134 34.511 24.5537 34.5135 21.4447C34.5157 18.6812 33.6861 16.5791 32.0248 15.1385C30.4208 13.6979 27.7557 12.9761 24.0295 12.9731L13.9688 12.9651L13.9544 30.9279Z" fill="#D9D9D9"/>
<path d="M56.8504 61.188L56.8993 0.0454126L82.0082 0.0654698C84.8745 0.0677594 87.7119 0.357891 90.5205 0.935866C93.3864 1.45631 95.9939 2.43714 98.3431 3.87834C100.692 5.31955 102.554 7.36488 103.928 10.0143C105.359 12.6063 106.073 15.9461 106.069 20.0338C106.067 22.7973 105.606 25.3589 104.687 27.7187C103.768 30.0785 102.391 32.1212 100.555 33.8469C98.7764 35.5727 96.511 36.9239 93.7585 37.9004L107.584 61.2286L91.7622 61.2159L79.9984 40.1348L70.7976 40.1274L70.7807 61.1992L56.8504 61.188ZM70.8074 27.778L81.5561 27.7866C83.2186 27.7879 84.6805 27.6451 85.9419 27.3583C87.2607 27.0139 88.3789 26.5542 89.2966 25.9792C90.2143 25.3466 90.9029 24.5412 91.3623 23.5628C91.879 22.5845 92.1666 21.4044 92.225 20.0227C92.2265 18.1228 91.7691 16.6831 90.8526 15.7036C89.9935 14.7242 88.8189 14.0324 87.3287 13.6282C85.8385 13.224 84.1189 13.0211 82.1698 13.0196L70.8192 13.0105L70.8074 27.778Z" fill="#D9D9D9"/>
<path d="M117.06 61.2361L117.109 0.0935083L131.039 0.104636L130.99 61.2473L117.06 61.2361Z" fill="#D9D9D9"/>
<path d="M160.288 61.2707L160.306 38.5581L137.377 0.109699L153.457 0.122544L167.367 25.6961L181.662 0.145074L197.484 0.157713L174.322 38.4829L174.304 61.2819L160.288 61.2707Z" fill="#D9D9D9"/>
<path d="M203.721 61.3054L203.77 0.162734L221.828 0.177159L237.283 28.3428L252.784 0.201887L270.154 0.215762L270.105 61.3584L256.089 61.3472L256.122 19.5491L239.847 48.4666L234.258 48.4622L217.685 19.5184L217.651 61.3165L203.721 61.3054Z" fill="#D9D9D9"/>
<path d="M276.044 61.3631L300.169 0.239739L314.96 0.251553L338.73 61.4132L323.682 61.4012L320.336 51.899L294.453 51.8783L291.006 61.3751L276.044 61.3631ZM298.849 39.1869L315.96 39.2006L307.552 15.5313L298.849 39.1869Z" fill="#D9D9D9"/>
<path d="M344.63 61.4179L344.678 0.275293L358.609 0.28642L358.589 24.7262L367.102 24.733L381.568 0.30476L397.476 0.317468L378.621 29.8374L397.341 61.46L381.089 61.447L367.436 37.6009L358.579 37.5938L358.56 61.4291L344.63 61.4179Z" fill="#D9D9D9"/>
</g>
</svg>
